<svg width="16" height="16" viewBox="0 0 16 16" fill="none" xmlns="http://www.w3.org/2000/svg">
<rect width="16" height="16" fill="#1A4CD4"/>
<path d="M6.32167 11.8076C6.20083 11.9112 6.01092 12.0018 5.75196 12.0795C5.50163 12.1572 5.2254 12.196 4.92328 12.196C4.56073 12.196 4.24998 12.1442 3.99101 12.0407C3.73205 11.9284 3.55509 11.7774 3.46014 11.5875C3.36519 11.3889 3.24866 11.1343 3.11054 10.8235C2.97243 10.5041 2.82568 10.1502 2.67031 9.76179C2.52356 9.37335 2.36818 8.96332 2.20417 8.53172C2.0488 8.09148 1.89774 7.64693 1.75099 7.19806C1.60425 6.74919 1.46613 6.30896 1.33665 5.87736C1.20717 5.44575 1.09495 5.04004 1 4.66023C1.12085 4.53938 1.29349 4.43148 1.51792 4.33653C1.75099 4.23294 1.997 4.18115 2.25597 4.18115C2.57535 4.18115 2.83432 4.25021 3.03285 4.38832C3.24002 4.5178 3.39108 4.76382 3.48604 5.12636C3.7191 5.97231 3.95217 6.78372 4.18524 7.56061C4.42693 8.32886 4.67726 9.13165 4.93623 9.96896H5.01392C5.24698 9.15754 5.48436 8.27276 5.72606 7.3146C5.97639 6.35644 6.21377 5.40259 6.43821 4.45306C6.59358 4.37537 6.75759 4.31063 6.93024 4.25884C7.11151 4.20705 7.31436 4.18115 7.5388 4.18115C7.85818 4.18115 8.13009 4.25453 8.35453 4.40127C8.57896 4.53938 8.69118 4.77245 8.69118 5.10047C8.69118 5.29037 8.6437 5.5666 8.54875 5.92915C8.46243 6.29169 8.3459 6.70172 8.19915 7.15922C8.06104 7.60809 7.90134 8.07853 7.72007 8.57056C7.54743 9.06259 7.37047 9.52872 7.1892 9.96896C7.01656 10.4006 6.85255 10.7847 6.69717 11.1213C6.54179 11.4494 6.41663 11.6781 6.32167 11.8076Z" fill="white"/>
<path d="M10.1614 9.41943L10.1614 9.41945L10.1646 9.42052L10.706 9.60096C10.9169 9.67384 11.0581 9.74163 11.1458 9.79798C11.1368 9.80813 11.1218 9.82276 11.0974 9.84099C11.062 9.86757 10.9066 9.93521 10.504 9.93521C10.147 9.93521 9.82576 9.87605 9.53532 9.763C9.22628 9.6392 8.97699 9.49757 8.78008 9.34285L8.52001 9.13852L8.23021 9.29791C7.99298 9.42838 7.78637 9.61079 7.60704 9.83135C7.37807 10.1031 7.27197 10.4313 7.27197 10.7848C7.27197 11.1289 7.37259 11.4483 7.57477 11.7263L7.58238 11.7368L7.59052 11.7468C7.78879 11.9917 8.04589 12.1877 8.34504 12.3425L8.35409 12.3471L8.36331 12.3514C8.66691 12.4931 9.00573 12.5949 9.37498 12.6615C9.75491 12.7371 10.1576 12.7738 10.5817 12.7738C11.7589 12.7738 12.7372 12.5403 13.4391 11.9955L13.4391 11.9956L13.4427 11.9927C14.1402 11.4409 14.5 10.7012 14.5 9.8137C14.5 9.00906 14.2387 8.32191 13.6784 7.81445C13.1744 7.34213 12.4789 6.98078 11.6276 6.70904C11.6274 6.70899 11.6273 6.70895 11.6272 6.70891L10.9416 6.48901L10.9416 6.48898L10.9359 6.48723C10.8494 6.46062 10.7796 6.43541 10.7239 6.41254C10.8153 6.38168 10.9772 6.35158 11.2421 6.35158C11.5802 6.35158 11.8812 6.39384 12.1484 6.47328L12.1483 6.47343L12.1604 6.47669C12.4517 6.55541 12.654 6.64239 12.7864 6.72659L13.0811 6.91413L13.3585 6.70194C13.5495 6.55588 13.7125 6.38145 13.8463 6.18072L13.8465 6.18081L13.853 6.17037C14.0146 5.91455 14.0857 5.62451 14.0857 5.32071C14.0857 4.99483 13.9896 4.6911 13.7878 4.43317C13.6011 4.18624 13.3515 4.00223 13.0611 3.87145C12.7829 3.73394 12.4633 3.64112 12.1119 3.58414L12.0319 4.07769L12.1119 3.58414C11.7626 3.52748 11.3902 3.5 10.9961 3.5C9.91158 3.5 8.99497 3.73377 8.30788 4.26471L8.30787 4.2647L8.30496 4.26698C7.61907 4.80514 7.27197 5.53918 7.27197 6.4213C7.27197 6.85208 7.34027 7.2499 7.49756 7.5982L7.50162 7.60719L7.50603 7.61601C7.66627 7.93649 7.88584 8.21445 8.16115 8.4474C8.42693 8.67229 8.73637 8.86021 9.08383 9.01464L9.08378 9.01477L9.09459 9.01927C9.41725 9.15371 9.77307 9.28704 10.1614 9.41943Z" fill="white" stroke="#1A4CD4"/>
</svg>
