<svg width="16" height="16" viewBox="0 0 16 16" fill="none" xmlns="http://www.w3.org/2000/svg">
<path d="M6.32167 11.8076C6.20083 11.9112 6.01092 12.0018 5.75196 12.0795C5.50163 12.1572 5.2254 12.196 4.92328 12.196C4.56073 12.196 4.24998 12.1442 3.99101 12.0407C3.73205 11.9284 3.55509 11.7774 3.46014 11.5875C3.36519 11.3889 3.24866 11.1343 3.11054 10.8235C2.97243 10.5041 2.82568 10.1502 2.67031 9.76179C2.52356 9.37335 2.36818 8.96332 2.20417 8.53172C2.0488 8.09148 1.89774 7.64693 1.75099 7.19806C1.60425 6.74919 1.46613 6.30896 1.33665 5.87736C1.20717 5.44575 1.09495 5.04004 1 4.66023C1.12085 4.53938 1.29349 4.43148 1.51792 4.33653C1.75099 4.23294 1.997 4.18115 2.25597 4.18115C2.57535 4.18115 2.83432 4.25021 3.03285 4.38832C3.24002 4.5178 3.39108 4.76382 3.48604 5.12636C3.7191 5.97231 3.95217 6.78372 4.18524 7.56061C4.42693 8.32886 4.67726 9.13165 4.93623 9.96896H5.01392C5.24698 9.15754 5.48436 8.27276 5.72606 7.3146C5.97639 6.35644 6.21377 5.40259 6.43821 4.45306C6.59358 4.37537 6.75759 4.31063 6.93024 4.25884C7.11151 4.20705 7.31436 4.18115 7.5388 4.18115C7.85818 4.18115 8.13009 4.25453 8.35453 4.40127C8.57896 4.53938 8.69118 4.77245 8.69118 5.10047C8.69118 5.29037 8.6437 5.5666 8.54875 5.92915C8.46243 6.29169 8.3459 6.70172 8.19915 7.15922C8.06104 7.60809 7.90134 8.07853 7.72007 8.57056C7.54743 9.06259 7.37047 9.52872 7.1892 9.96896C7.01656 10.4006 6.85255 10.7847 6.69717 11.1213C6.54179 11.4494 6.41663 11.6781 6.32167 11.8076Z" fill="#1A4CD4"/>
<path d="M10.1937 9.32478L10.1937 9.32479L10.1963 9.32565L10.7381 9.50626C10.9705 9.58654 11.1265 9.66292 11.2226 9.72898L11.2298 9.73393L11.2372 9.73856C11.2462 9.74419 11.2502 9.74805 11.2513 9.74921C11.2523 9.7502 11.252 9.75011 11.2517 9.74945C11.2503 9.74683 11.2564 9.75555 11.2564 9.78781V9.78821C11.2564 9.80404 11.2564 9.84675 11.1574 9.92099C11.0946 9.96815 10.9106 10.0352 10.504 10.0352C10.1355 10.0352 9.80174 9.97407 9.49862 9.85602C9.18231 9.72935 8.92417 9.58324 8.7183 9.42149L8.51024 9.25802L8.2784 9.38553C8.05408 9.50891 7.85686 9.68245 7.68408 9.89511C7.47152 10.1471 7.37197 10.4519 7.37197 10.7848C7.37197 11.1084 7.46627 11.4071 7.65565 11.6675L7.66173 11.6759L7.66824 11.6839C7.85621 11.9161 8.1016 12.104 8.39099 12.2536L8.39822 12.2574L8.4056 12.2608C8.70028 12.3983 9.03091 12.4979 9.39362 12.5633C9.76662 12.6376 10.163 12.6738 10.5817 12.6738C11.7479 12.6738 12.7006 12.4421 13.3777 11.9165L13.3778 11.9166L13.3807 11.9143C14.0543 11.3813 14.4 10.6704 14.4 9.8137C14.4 9.0319 14.147 8.37339 13.6107 7.88801C13.1211 7.42897 12.4403 7.07343 11.597 6.80425C11.5969 6.80423 11.5968 6.8042 11.5967 6.80417L10.9111 6.58423L10.9111 6.5842L10.9065 6.58281C10.7074 6.52155 10.5864 6.46523 10.5211 6.4225C10.5196 6.42122 10.5183 6.42006 10.5172 6.41903C10.5236 6.41125 10.5421 6.39227 10.5859 6.3672L10.5861 6.36742L10.598 6.36001C10.6828 6.30754 10.8756 6.25158 11.2421 6.25158C11.5886 6.25158 11.8992 6.29488 12.1769 6.37742L12.1768 6.37754L12.1865 6.38015C12.4834 6.46039 12.6962 6.5507 12.8401 6.64223L13.0758 6.79225L13.2978 6.62251C13.4799 6.48321 13.6353 6.31691 13.7631 6.12525L13.7632 6.12532L13.7685 6.11697C13.9185 5.87951 13.9857 5.60864 13.9857 5.32071C13.9857 5.01513 13.8959 4.73328 13.7085 4.49412C13.5332 4.26199 13.2973 4.08719 13.0184 3.9619C12.7509 3.82942 12.4408 3.73878 12.0959 3.68285C11.7526 3.62716 11.3856 3.6 10.9961 3.6C9.92476 3.6 9.03264 3.83104 8.36902 4.34384L8.36901 4.34383L8.36669 4.34566C7.70576 4.86423 7.37197 5.56886 7.37197 6.4213C7.37197 6.84189 7.43869 7.22488 7.5887 7.55704L7.59195 7.56423L7.59548 7.57129C7.74956 7.87947 7.96061 8.14672 8.22574 8.37106C8.48325 8.58895 8.78433 8.7721 9.12445 8.92326L9.1244 8.92336L9.13306 8.92697C9.45333 9.06041 9.80704 9.19297 10.1937 9.32478Z" fill="#1A4CD4" stroke="white" stroke-width="0.8"/>
</svg>
