<svg width="236" height="51" viewBox="0 0 236 51" fill="none" xmlns="http://www.w3.org/2000/svg">
<path d="M21.152 35.112C20.8533 35.368 20.384 35.592 19.744 35.784C19.1253 35.976 18.4427 36.072 17.696 36.072C16.8 36.072 16.032 35.944 15.392 35.688C14.752 35.4107 14.3147 35.0373 14.08 34.568C13.8453 34.0773 13.5573 33.448 13.216 32.68C12.8747 31.8907 12.512 31.016 12.128 30.056C11.7653 29.096 11.3813 28.0827 10.976 27.016C10.592 25.928 10.2187 24.8293 9.856 23.72C9.49333 22.6107 9.152 21.5227 8.832 20.456C8.512 19.3893 8.23467 18.3867 8 17.448C8.29867 17.1493 8.72533 16.8827 9.28 16.648C9.856 16.392 10.464 16.264 11.104 16.264C11.8933 16.264 12.5333 16.4347 13.024 16.776C13.536 17.096 13.9093 17.704 14.144 18.6C14.72 20.6907 15.296 22.696 15.872 24.616C16.4693 26.5147 17.088 28.4987 17.728 30.568H17.92C18.496 28.5627 19.0827 26.376 19.68 24.008C20.2987 21.64 20.8853 19.2827 21.44 16.936C21.824 16.744 22.2293 16.584 22.656 16.456C23.104 16.328 23.6053 16.264 24.16 16.264C24.9493 16.264 25.6213 16.4453 26.176 16.808C26.7307 17.1493 27.008 17.7253 27.008 18.536C27.008 19.0053 26.8907 19.688 26.656 20.584C26.4427 21.48 26.1547 22.4933 25.792 23.624C25.4507 24.7333 25.056 25.896 24.608 27.112C24.1813 28.328 23.744 29.48 23.296 30.568C22.8693 31.6347 22.464 32.584 22.08 33.416C21.696 34.2267 21.3867 34.792 21.152 35.112Z" fill="#1A4CD4"/>
<path d="M29.0888 20.424C29.3021 20.36 29.6327 20.296 30.0807 20.232C30.5501 20.168 31.0301 20.136 31.5208 20.136C31.9901 20.136 32.4061 20.168 32.7688 20.232C33.1528 20.296 33.4727 20.424 33.7288 20.616C33.9848 20.808 34.1768 21.0747 34.3048 21.416C34.4541 21.736 34.5288 22.1627 34.5288 22.696V29.576C34.5288 30.4507 34.7421 31.08 35.1688 31.464C35.5954 31.8267 36.2141 32.008 37.0247 32.008C37.5154 32.008 37.9101 31.9653 38.2087 31.88C38.5287 31.7947 38.7741 31.7093 38.9447 31.624V20.424C39.1581 20.36 39.4888 20.296 39.9368 20.232C40.4061 20.168 40.8861 20.136 41.3768 20.136C41.8461 20.136 42.2621 20.168 42.6248 20.232C43.0088 20.296 43.3288 20.424 43.5848 20.616C43.8408 20.808 44.0328 21.0747 44.1608 21.416C44.3101 21.736 44.3848 22.1627 44.3848 22.696V32.424C44.3848 33.4907 43.9368 34.2907 43.0408 34.824C42.2941 35.2933 41.3981 35.6453 40.3527 35.88C39.3287 36.136 38.2087 36.264 36.9928 36.264C35.8407 36.264 34.7741 36.136 33.7928 35.88C32.8328 35.624 32.0008 35.2293 31.2968 34.696C30.5928 34.1627 30.0487 33.48 29.6647 32.648C29.2807 31.7947 29.0888 30.7707 29.0888 29.576V20.424Z" fill="#1A4CD4"/>
<path d="M53.2498 35.72C53.0151 35.7627 52.6631 35.816 52.1937 35.88C51.7458 35.9653 51.2871 36.008 50.8177 36.008C50.3484 36.008 49.9217 35.976 49.5378 35.912C49.1751 35.848 48.8657 35.72 48.6097 35.528C48.3537 35.336 48.1511 35.08 48.0018 34.76C47.8738 34.4187 47.8097 33.9813 47.8097 33.448V14.888C48.0444 14.8453 48.3857 14.792 48.8338 14.728C49.3031 14.6427 49.7724 14.6 50.2417 14.6C50.7111 14.6 51.1271 14.632 51.4897 14.696C51.8737 14.76 52.1937 14.888 52.4497 15.08C52.7057 15.272 52.8978 15.5387 53.0257 15.88C53.1751 16.2 53.2498 16.6267 53.2498 17.16V35.72Z" fill="#1A4CD4"/>
<path d="M65.4505 24.008C64.9172 24.008 64.4052 24.0933 63.9145 24.264C63.4452 24.4347 63.0292 24.6907 62.6665 25.032C62.3252 25.352 62.0478 25.7573 61.8345 26.248C61.6212 26.7387 61.5145 27.3147 61.5145 27.976C61.5145 29.2987 61.8878 30.2907 62.6345 30.952C63.4025 31.6133 64.3305 31.944 65.4185 31.944C66.0585 31.944 66.6132 31.8693 67.0825 31.72C67.5518 31.5707 67.9678 31.4107 68.3305 31.24C68.7572 31.5387 69.0772 31.8693 69.2905 32.232C69.5038 32.5733 69.6105 32.9893 69.6105 33.48C69.6105 34.3547 69.1945 35.0373 68.3625 35.528C67.5305 35.9973 66.3785 36.232 64.9065 36.232C63.5625 36.232 62.3465 36.04 61.2585 35.656C60.1705 35.2507 59.2318 34.696 58.4425 33.992C57.6745 33.2667 57.0772 32.4027 56.6505 31.4C56.2238 30.3973 56.0105 29.288 56.0105 28.072C56.0105 26.664 56.2345 25.4373 56.6825 24.392C57.1518 23.3253 57.7812 22.4507 58.5705 21.768C59.3598 21.0853 60.2665 20.5733 61.2905 20.232C62.3358 19.8907 63.4345 19.72 64.5865 19.72C66.1225 19.72 67.3065 19.9973 68.1385 20.552C68.9705 21.1067 69.3865 21.8213 69.3865 22.696C69.3865 23.1013 69.2905 23.4853 69.0985 23.848C68.9065 24.1893 68.6825 24.488 68.4265 24.744C68.0638 24.5733 67.6265 24.4133 67.1145 24.264C66.6025 24.0933 66.0478 24.008 65.4505 24.008Z" fill="#1A4CD4"/>
<path d="M78.9948 32.296C79.3574 32.296 79.7521 32.264 80.1787 32.2C80.6267 32.1147 80.9574 32.008 81.1708 31.88V29.32L78.8668 29.512C78.2694 29.5547 77.7788 29.6827 77.3948 29.896C77.0107 30.1093 76.8187 30.4293 76.8187 30.856C76.8187 31.2827 76.9788 31.6347 77.2988 31.912C77.6401 32.168 78.2054 32.296 78.9948 32.296ZM78.7387 19.72C79.8907 19.72 80.9361 19.8373 81.8747 20.072C82.8347 20.3067 83.6454 20.6693 84.3067 21.16C84.9894 21.6293 85.5121 22.2373 85.8747 22.984C86.2374 23.7093 86.4187 24.5733 86.4187 25.576V32.744C86.4187 33.2987 86.2588 33.7573 85.9388 34.12C85.6401 34.4613 85.2774 34.76 84.8508 35.016C83.4641 35.848 81.5121 36.264 78.9948 36.264C77.8641 36.264 76.8401 36.1573 75.9228 35.944C75.0267 35.7307 74.2481 35.4107 73.5868 34.984C72.9468 34.5573 72.4454 34.0133 72.0827 33.352C71.7414 32.6907 71.5708 31.9227 71.5708 31.048C71.5708 29.576 72.0081 28.4453 72.8828 27.656C73.7574 26.8667 75.1121 26.376 76.9467 26.184L81.1387 25.736V25.512C81.1387 24.8933 80.8614 24.456 80.3067 24.2C79.7734 23.9227 78.9948 23.784 77.9707 23.784C77.1601 23.784 76.3708 23.8693 75.6028 24.04C74.8348 24.2107 74.1414 24.424 73.5228 24.68C73.2454 24.488 73.0107 24.2 72.8187 23.816C72.6267 23.4107 72.5307 22.9947 72.5307 22.568C72.5307 22.0133 72.6588 21.576 72.9147 21.256C73.1921 20.9147 73.6081 20.6267 74.1628 20.392C74.7814 20.1573 75.5068 19.9867 76.3388 19.88C77.1921 19.7733 77.9921 19.72 78.7387 19.72Z" fill="#1A4CD4"/>
<path d="M99.601 25.896C99.601 25.2347 99.409 24.7547 99.025 24.456C98.6623 24.136 98.161 23.976 97.521 23.976C97.0943 23.976 96.6677 24.0293 96.241 24.136C95.8357 24.2427 95.4837 24.4027 95.185 24.616V35.72C94.9717 35.784 94.6303 35.848 94.161 35.912C93.713 35.976 93.2437 36.008 92.753 36.008C92.2837 36.008 91.857 35.976 91.473 35.912C91.1103 35.848 90.801 35.72 90.545 35.528C90.289 35.336 90.0863 35.08 89.937 34.76C89.809 34.4187 89.745 33.9813 89.745 33.448V23.848C89.745 23.272 89.8623 22.8027 90.097 22.44C90.353 22.0773 90.6943 21.7467 91.121 21.448C91.8463 20.936 92.753 20.52 93.841 20.2C94.9503 19.88 96.177 19.72 97.521 19.72C99.9317 19.72 101.788 20.2533 103.089 21.32C104.39 22.3653 105.041 23.8267 105.041 25.704V35.72C104.828 35.784 104.486 35.848 104.017 35.912C103.569 35.976 103.1 36.008 102.609 36.008C102.14 36.008 101.713 35.976 101.329 35.912C100.966 35.848 100.657 35.72 100.401 35.528C100.145 35.336 99.9423 35.08 99.793 34.76C99.665 34.4187 99.601 33.9813 99.601 33.448V25.896Z" fill="#1A4CD4"/>
<path d="M114.165 28.04C113.226 27.72 112.373 27.4 111.605 27.08C110.837 26.7387 110.176 26.3333 109.621 25.864C109.066 25.3947 108.629 24.84 108.309 24.2C108.01 23.5387 107.861 22.7387 107.861 21.8C107.861 19.9867 108.554 18.536 109.941 17.448C111.349 16.36 113.312 15.816 115.829 15.816C116.746 15.816 117.6 15.88 118.389 16.008C119.178 16.136 119.85 16.3387 120.405 16.616C120.981 16.872 121.429 17.2133 121.749 17.64C122.069 18.0453 122.229 18.5253 122.229 19.08C122.229 19.6347 122.101 20.1147 121.845 20.52C121.589 20.904 121.28 21.2347 120.917 21.512C120.448 21.2133 119.818 20.9573 119.029 20.744C118.24 20.5093 117.376 20.392 116.437 20.392C115.477 20.392 114.773 20.5307 114.325 20.808C113.877 21.064 113.653 21.3947 113.653 21.8C113.653 22.12 113.792 22.3867 114.069 22.6C114.346 22.792 114.762 22.9733 115.317 23.144L117.013 23.688C119.018 24.328 120.554 25.1493 121.621 26.152C122.709 27.1333 123.253 28.4773 123.253 30.184C123.253 31.9973 122.538 33.4693 121.109 34.6C119.68 35.7093 117.578 36.264 114.805 36.264C113.824 36.264 112.906 36.1787 112.053 36.008C111.221 35.8587 110.485 35.6347 109.845 35.336C109.226 35.016 108.736 34.632 108.373 34.184C108.032 33.7147 107.861 33.1813 107.861 32.584C107.861 31.9653 108.042 31.4427 108.405 31.016C108.768 30.568 109.162 30.2267 109.589 29.992C110.186 30.4613 110.912 30.8667 111.765 31.208C112.64 31.5493 113.589 31.72 114.613 31.72C115.658 31.72 116.394 31.56 116.821 31.24C117.248 30.92 117.461 30.5467 117.461 30.12C117.461 29.6933 117.29 29.3733 116.949 29.16C116.608 28.9253 116.128 28.7013 115.509 28.488L114.165 28.04Z" fill="#1A4CD4"/>
<path d="M142.029 27.976C142.029 29.2987 141.826 30.4827 141.421 31.528C141.015 32.552 140.439 33.416 139.693 34.12C138.967 34.824 138.092 35.3573 137.068 35.72C136.044 36.0827 134.903 36.264 133.645 36.264C132.386 36.264 131.244 36.072 130.22 35.688C129.196 35.304 128.311 34.76 127.564 34.056C126.839 33.3307 126.274 32.456 125.868 31.432C125.463 30.408 125.26 29.256 125.26 27.976C125.26 26.7173 125.463 25.576 125.868 24.552C126.274 23.528 126.839 22.664 127.564 21.96C128.311 21.2347 129.196 20.68 130.22 20.296C131.244 19.912 132.386 19.72 133.645 19.72C134.903 19.72 136.044 19.9227 137.068 20.328C138.092 20.712 138.967 21.2667 139.693 21.992C140.439 22.696 141.015 23.56 141.421 24.584C141.826 25.608 142.029 26.7387 142.029 27.976ZM130.828 27.976C130.828 29.2773 131.074 30.28 131.564 30.984C132.076 31.6667 132.781 32.008 133.676 32.008C134.573 32.008 135.255 31.656 135.725 30.952C136.215 30.248 136.46 29.256 136.46 27.976C136.46 26.696 136.215 25.7147 135.725 25.032C135.234 24.328 134.54 23.976 133.645 23.976C132.749 23.976 132.055 24.328 131.564 25.032C131.074 25.7147 130.828 26.696 130.828 27.976Z" fill="#1A4CD4"/>
<path d="M150.219 35.72C149.984 35.7627 149.632 35.816 149.163 35.88C148.715 35.9653 148.256 36.008 147.786 36.008C147.317 36.008 146.891 35.976 146.507 35.912C146.144 35.848 145.835 35.72 145.579 35.528C145.323 35.336 145.12 35.08 144.971 34.76C144.842 34.4187 144.779 33.9813 144.779 33.448V14.888C145.013 14.8453 145.355 14.792 145.803 14.728C146.272 14.6427 146.741 14.6 147.21 14.6C147.68 14.6 148.096 14.632 148.458 14.696C148.842 14.76 149.163 14.888 149.419 15.08C149.674 15.272 149.867 15.5387 149.995 15.88C150.144 16.2 150.219 16.6267 150.219 17.16V35.72Z" fill="#1A4CD4"/>
<path d="M153.651 20.424C153.865 20.36 154.195 20.296 154.643 20.232C155.113 20.168 155.593 20.136 156.083 20.136C156.553 20.136 156.969 20.168 157.331 20.232C157.715 20.296 158.035 20.424 158.291 20.616C158.547 20.808 158.739 21.0747 158.867 21.416C159.017 21.736 159.091 22.1627 159.091 22.696V29.576C159.091 30.4507 159.305 31.08 159.731 31.464C160.158 31.8267 160.777 32.008 161.587 32.008C162.078 32.008 162.473 31.9653 162.771 31.88C163.091 31.7947 163.337 31.7093 163.507 31.624V20.424C163.721 20.36 164.051 20.296 164.499 20.232C164.969 20.168 165.449 20.136 165.939 20.136C166.409 20.136 166.825 20.168 167.187 20.232C167.571 20.296 167.891 20.424 168.147 20.616C168.403 20.808 168.595 21.0747 168.723 21.416C168.873 21.736 168.947 22.1627 168.947 22.696V32.424C168.947 33.4907 168.499 34.2907 167.603 34.824C166.857 35.2933 165.961 35.6453 164.915 35.88C163.891 36.136 162.771 36.264 161.555 36.264C160.403 36.264 159.337 36.136 158.355 35.88C157.395 35.624 156.563 35.2293 155.859 34.696C155.155 34.1627 154.611 33.48 154.227 32.648C153.843 31.7947 153.651 30.7707 153.651 29.576V20.424Z" fill="#1A4CD4"/>
<path d="M177.716 30.408C177.716 30.9627 177.887 31.3573 178.228 31.592C178.591 31.8267 179.092 31.944 179.732 31.944C180.052 31.944 180.383 31.9227 180.724 31.88C181.066 31.816 181.364 31.7413 181.62 31.656C181.812 31.8907 181.972 32.1573 182.1 32.456C182.25 32.7333 182.324 33.0747 182.324 33.48C182.324 34.2907 182.015 34.952 181.396 35.464C180.799 35.976 179.732 36.232 178.196 36.232C176.319 36.232 174.868 35.8053 173.844 34.952C172.842 34.0987 172.34 32.712 172.34 30.792V17.096C172.575 17.032 172.906 16.968 173.332 16.904C173.78 16.8187 174.25 16.776 174.74 16.776C175.679 16.776 176.404 16.9467 176.916 17.288C177.45 17.608 177.716 18.3013 177.716 19.368V21.416H181.908C182.036 21.6507 182.154 21.9493 182.26 22.312C182.388 22.6533 182.452 23.0373 182.452 23.464C182.452 24.2107 182.282 24.7547 181.94 25.096C181.62 25.416 181.183 25.576 180.628 25.576H177.716V30.408Z" fill="#1A4CD4"/>
<path d="M184.961 15.88C184.961 15.0693 185.227 14.3867 185.761 13.832C186.315 13.2773 187.041 13 187.937 13C188.833 13 189.547 13.2773 190.081 13.832C190.635 14.3867 190.913 15.0693 190.913 15.88C190.913 16.6907 190.635 17.3733 190.081 17.928C189.547 18.4827 188.833 18.76 187.937 18.76C187.041 18.76 186.315 18.4827 185.761 17.928C185.227 17.3733 184.961 16.6907 184.961 15.88ZM190.657 35.72C190.422 35.7627 190.07 35.816 189.601 35.88C189.153 35.9653 188.694 36.008 188.225 36.008C187.755 36.008 187.329 35.976 186.945 35.912C186.582 35.848 186.273 35.72 186.017 35.528C185.761 35.336 185.558 35.08 185.409 34.76C185.281 34.4187 185.217 33.9813 185.217 33.448V20.424C185.451 20.3813 185.793 20.328 186.241 20.264C186.71 20.1787 187.179 20.136 187.649 20.136C188.118 20.136 188.534 20.168 188.897 20.232C189.281 20.296 189.601 20.424 189.857 20.616C190.113 20.808 190.305 21.0747 190.433 21.416C190.582 21.736 190.657 22.1627 190.657 22.696V35.72Z" fill="#1A4CD4"/>
<path d="M210.216 27.976C210.216 29.2987 210.013 30.4827 209.608 31.528C209.203 32.552 208.627 33.416 207.88 34.12C207.155 34.824 206.28 35.3573 205.256 35.72C204.232 36.0827 203.091 36.264 201.832 36.264C200.573 36.264 199.432 36.072 198.408 35.688C197.384 35.304 196.499 34.76 195.752 34.056C195.027 33.3307 194.461 32.456 194.056 31.432C193.651 30.408 193.448 29.256 193.448 27.976C193.448 26.7173 193.651 25.576 194.056 24.552C194.461 23.528 195.027 22.664 195.752 21.96C196.499 21.2347 197.384 20.68 198.408 20.296C199.432 19.912 200.573 19.72 201.832 19.72C203.091 19.72 204.232 19.9227 205.256 20.328C206.28 20.712 207.155 21.2667 207.88 21.992C208.627 22.696 209.203 23.56 209.608 24.584C210.013 25.608 210.216 26.7387 210.216 27.976ZM199.016 27.976C199.016 29.2773 199.261 30.28 199.752 30.984C200.264 31.6667 200.968 32.008 201.864 32.008C202.76 32.008 203.443 31.656 203.912 30.952C204.403 30.248 204.648 29.256 204.648 27.976C204.648 26.696 204.403 25.7147 203.912 25.032C203.421 24.328 202.728 23.976 201.832 23.976C200.936 23.976 200.243 24.328 199.752 25.032C199.261 25.7147 199.016 26.696 199.016 27.976Z" fill="#1A4CD4"/>
<path d="M222.726 25.896C222.726 25.2347 222.534 24.7547 222.15 24.456C221.787 24.136 221.286 23.976 220.646 23.976C220.219 23.976 219.793 24.0293 219.366 24.136C218.961 24.2427 218.609 24.4027 218.31 24.616V35.72C218.097 35.784 217.755 35.848 217.286 35.912C216.838 35.976 216.369 36.008 215.878 36.008C215.409 36.008 214.982 35.976 214.598 35.912C214.235 35.848 213.926 35.72 213.67 35.528C213.414 35.336 213.211 35.08 213.062 34.76C212.934 34.4187 212.87 33.9813 212.87 33.448V23.848C212.87 23.272 212.987 22.8027 213.222 22.44C213.478 22.0773 213.819 21.7467 214.246 21.448C214.971 20.936 215.878 20.52 216.966 20.2C218.075 19.88 219.302 19.72 220.646 19.72C223.057 19.72 224.913 20.2533 226.214 21.32C227.515 22.3653 228.166 23.8267 228.166 25.704V35.72C227.953 35.784 227.611 35.848 227.142 35.912C226.694 35.976 226.225 36.008 225.734 36.008C225.265 36.008 224.838 35.976 224.454 35.912C224.091 35.848 223.782 35.72 223.526 35.528C223.27 35.336 223.067 35.08 222.918 34.76C222.79 34.4187 222.726 33.9813 222.726 33.448V25.896Z" fill="#1A4CD4"/>
</svg>
