<svg width="236" height="51" viewBox="0 0 236 51" fill="none" xmlns="http://www.w3.org/2000/svg">
<g clip-path="url(#clip0_1871_18)">
<path d="M21.152 35.1122C20.8533 35.3682 20.384 35.5922 19.744 35.7842C19.1253 35.9762 18.4427 36.0722 17.696 36.0722C16.8 36.0722 16.032 35.9442 15.392 35.6882C14.752 35.4109 14.3147 35.0375 14.08 34.5682C13.8453 34.0775 13.5573 33.4482 13.216 32.6802C12.8747 31.8909 12.512 31.0162 12.128 30.0562C11.7653 29.0962 11.3813 28.0829 10.976 27.0162C10.592 25.9282 10.2187 24.8295 9.856 23.7202C9.49333 22.6109 9.152 21.5229 8.832 20.4562C8.512 19.3895 8.23467 18.3869 8 17.4482C8.29867 17.1495 8.72533 16.8829 9.28 16.6482C9.856 16.3922 10.464 16.2642 11.104 16.2642C11.8933 16.2642 12.5333 16.4349 13.024 16.7762C13.536 17.0962 13.9093 17.7042 14.144 18.6002C14.72 20.6909 15.296 22.6962 15.872 24.6162C16.4693 26.5149 17.088 28.4989 17.728 30.5682H17.92C18.496 28.5629 19.0827 26.3762 19.68 24.0082C20.2987 21.6402 20.8853 19.2829 21.44 16.9362C21.824 16.7442 22.2293 16.5842 22.656 16.4562C23.104 16.3282 23.6053 16.2642 24.16 16.2642C24.9493 16.2642 25.6213 16.4455 26.176 16.8082C26.7307 17.1495 27.008 17.7255 27.008 18.5362C27.008 19.0055 26.8907 19.6882 26.656 20.5842C26.4427 21.4802 26.1547 22.4935 25.792 23.6242C25.4507 24.7335 25.056 25.8962 24.608 27.1122C24.1813 28.3282 23.744 29.4802 23.296 30.5682C22.8693 31.6349 22.464 32.5842 22.08 33.4162C21.696 34.2269 21.3867 34.7922 21.152 35.1122Z" fill="white"/>
<path d="M29.0888 20.4242C29.3021 20.3602 29.6327 20.2962 30.0807 20.2322C30.5501 20.1682 31.0301 20.1362 31.5208 20.1362C31.9901 20.1362 32.4061 20.1682 32.7688 20.2322C33.1528 20.2962 33.4728 20.4242 33.7288 20.6162C33.9848 20.8082 34.1768 21.0749 34.3048 21.4162C34.4541 21.7362 34.5288 22.1629 34.5288 22.6962V29.5762C34.5288 30.4509 34.7421 31.0802 35.1688 31.4642C35.5954 31.8269 36.2141 32.0082 37.0247 32.0082C37.5154 32.0082 37.9101 31.9655 38.2087 31.8802C38.5288 31.7949 38.7741 31.7095 38.9447 31.6242V20.4242C39.1581 20.3602 39.4887 20.2962 39.9368 20.2322C40.4061 20.1682 40.8861 20.1362 41.3768 20.1362C41.8461 20.1362 42.2621 20.1682 42.6248 20.2322C43.0088 20.2962 43.3288 20.4242 43.5848 20.6162C43.8408 20.8082 44.0328 21.0749 44.1608 21.4162C44.3101 21.7362 44.3848 22.1629 44.3848 22.6962V32.4242C44.3848 33.4909 43.9368 34.2909 43.0408 34.8242C42.2941 35.2935 41.3981 35.6455 40.3527 35.8802C39.3287 36.1362 38.2087 36.2642 36.9928 36.2642C35.8407 36.2642 34.7741 36.1362 33.7928 35.8802C32.8328 35.6242 32.0008 35.2295 31.2968 34.6962C30.5928 34.1629 30.0487 33.4802 29.6647 32.6482C29.2807 31.7949 29.0888 30.7709 29.0888 29.5762V20.4242Z" fill="white"/>
<path d="M53.2498 35.7201C53.0151 35.7628 52.6631 35.8161 52.1937 35.8801C51.7457 35.9654 51.2871 36.0081 50.8177 36.0081C50.3484 36.0081 49.9218 35.9761 49.5378 35.9121C49.1751 35.8481 48.8657 35.7201 48.6097 35.5281C48.3537 35.3361 48.1511 35.0801 48.0018 34.7601C47.8738 34.4188 47.8097 33.9814 47.8097 33.4481V14.8881C48.0444 14.8454 48.3858 14.7921 48.8338 14.7281C49.3031 14.6428 49.7724 14.6001 50.2417 14.6001C50.7111 14.6001 51.1271 14.6321 51.4897 14.6961C51.8738 14.7601 52.1937 14.8881 52.4497 15.0801C52.7057 15.2721 52.8977 15.5388 53.0257 15.8801C53.1751 16.2001 53.2498 16.6268 53.2498 17.1601V35.7201Z" fill="white"/>
<path d="M65.4505 24.0082C64.9172 24.0082 64.4052 24.0935 63.9145 24.2642C63.4452 24.4349 63.0292 24.6909 62.6665 25.0322C62.3252 25.3522 62.0478 25.7575 61.8345 26.2482C61.6212 26.7389 61.5145 27.3149 61.5145 27.9762C61.5145 29.2989 61.8878 30.2909 62.6345 30.9522C63.4025 31.6135 64.3305 31.9442 65.4185 31.9442C66.0585 31.9442 66.6132 31.8695 67.0825 31.7202C67.5518 31.5709 67.9678 31.4109 68.3305 31.2402C68.7572 31.5389 69.0772 31.8695 69.2905 32.2322C69.5038 32.5735 69.6105 32.9895 69.6105 33.4802C69.6105 34.3549 69.1945 35.0375 68.3625 35.5282C67.5305 35.9975 66.3785 36.2322 64.9065 36.2322C63.5625 36.2322 62.3465 36.0402 61.2585 35.6562C60.1705 35.2509 59.2318 34.6962 58.4425 33.9922C57.6745 33.2669 57.0772 32.4029 56.6505 31.4002C56.2238 30.3975 56.0105 29.2882 56.0105 28.0722C56.0105 26.6642 56.2345 25.4375 56.6825 24.3922C57.1518 23.3255 57.7812 22.4509 58.5705 21.7682C59.3598 21.0855 60.2665 20.5735 61.2905 20.2322C62.3358 19.8909 63.4345 19.7202 64.5865 19.7202C66.1225 19.7202 67.3065 19.9975 68.1385 20.5522C68.9705 21.1069 69.3865 21.8215 69.3865 22.6962C69.3865 23.1015 69.2905 23.4855 69.0985 23.8482C68.9065 24.1895 68.6825 24.4882 68.4265 24.7442C68.0638 24.5735 67.6265 24.4135 67.1145 24.2642C66.6025 24.0935 66.0478 24.0082 65.4505 24.0082Z" fill="white"/>
<path d="M78.9948 32.2962C79.3574 32.2962 79.7521 32.2642 80.1787 32.2002C80.6267 32.1149 80.9574 32.0082 81.1708 31.8802V29.3202L78.8668 29.5122C78.2694 29.5549 77.7788 29.6829 77.3948 29.8962C77.0108 30.1095 76.8187 30.4295 76.8187 30.8562C76.8187 31.2829 76.9788 31.6349 77.2988 31.9122C77.6401 32.1682 78.2054 32.2962 78.9948 32.2962ZM78.7387 19.7202C79.8907 19.7202 80.9361 19.8375 81.8747 20.0722C82.8347 20.3069 83.6454 20.6695 84.3067 21.1602C84.9894 21.6295 85.5121 22.2375 85.8747 22.9842C86.2374 23.7095 86.4187 24.5735 86.4187 25.5762V32.7442C86.4187 33.2989 86.2588 33.7575 85.9388 34.1202C85.6401 34.4615 85.2774 34.7602 84.8508 35.0162C83.4641 35.8482 81.5121 36.2642 78.9948 36.2642C77.8641 36.2642 76.8401 36.1575 75.9228 35.9442C75.0268 35.7309 74.2481 35.4109 73.5868 34.9842C72.9468 34.5575 72.4454 34.0135 72.0827 33.3522C71.7414 32.6909 71.5708 31.9229 71.5708 31.0482C71.5708 29.5762 72.0081 28.4455 72.8828 27.6562C73.7574 26.8669 75.1121 26.3762 76.9467 26.1842L81.1387 25.7362V25.5122C81.1387 24.8935 80.8614 24.4562 80.3067 24.2002C79.7734 23.9229 78.9947 23.7842 77.9707 23.7842C77.1601 23.7842 76.3708 23.8695 75.6028 24.0402C74.8348 24.2109 74.1414 24.4242 73.5228 24.6802C73.2454 24.4882 73.0107 24.2002 72.8187 23.8162C72.6267 23.4109 72.5307 22.9949 72.5307 22.5682C72.5307 22.0135 72.6587 21.5762 72.9147 21.2562C73.1921 20.9149 73.6081 20.6269 74.1628 20.3922C74.7814 20.1575 75.5068 19.9869 76.3388 19.8802C77.1921 19.7735 77.9921 19.7202 78.7387 19.7202Z" fill="white"/>
<path d="M99.601 25.8962C99.601 25.2349 99.409 24.7549 99.025 24.4562C98.6623 24.1362 98.161 23.9762 97.521 23.9762C97.0943 23.9762 96.6677 24.0295 96.241 24.1362C95.8357 24.2429 95.4837 24.4029 95.185 24.6162V35.7202C94.9717 35.7842 94.6303 35.8482 94.161 35.9122C93.713 35.9762 93.2437 36.0082 92.753 36.0082C92.2837 36.0082 91.857 35.9762 91.473 35.9122C91.1103 35.8482 90.801 35.7202 90.545 35.5282C90.289 35.3362 90.0863 35.0802 89.937 34.7602C89.809 34.4189 89.745 33.9815 89.745 33.4482V23.8482C89.745 23.2722 89.8623 22.8029 90.097 22.4402C90.353 22.0775 90.6943 21.7469 91.121 21.4482C91.8463 20.9362 92.753 20.5202 93.841 20.2002C94.9503 19.8802 96.177 19.7202 97.521 19.7202C99.9317 19.7202 101.788 20.2535 103.089 21.3202C104.39 22.3655 105.041 23.8269 105.041 25.7042V35.7202C104.828 35.7842 104.486 35.8482 104.017 35.9122C103.569 35.9762 103.1 36.0082 102.609 36.0082C102.14 36.0082 101.713 35.9762 101.329 35.9122C100.966 35.8482 100.657 35.7202 100.401 35.5282C100.145 35.3362 99.9423 35.0802 99.793 34.7602C99.665 34.4189 99.601 33.9815 99.601 33.4482V25.8962Z" fill="white"/>
<path d="M114.165 28.0399C113.226 27.7199 112.373 27.3999 111.605 27.0799C110.837 26.7386 110.176 26.3332 109.621 25.8639C109.066 25.3946 108.629 24.8399 108.309 24.1999C108.01 23.5386 107.861 22.7386 107.861 21.7999C107.861 19.9866 108.554 18.5359 109.941 17.4479C111.349 16.3599 113.312 15.8159 115.829 15.8159C116.746 15.8159 117.6 15.8799 118.389 16.0079C119.178 16.1359 119.85 16.3386 120.405 16.6159C120.981 16.8719 121.429 17.2132 121.749 17.6399C122.069 18.0452 122.229 18.5252 122.229 19.0799C122.229 19.6346 122.101 20.1146 121.845 20.5199C121.589 20.9039 121.28 21.2346 120.917 21.5119C120.448 21.2132 119.818 20.9572 119.029 20.7439C118.24 20.5092 117.376 20.3919 116.437 20.3919C115.477 20.3919 114.773 20.5306 114.325 20.8079C113.877 21.0639 113.653 21.3946 113.653 21.7999C113.653 22.1199 113.792 22.3866 114.069 22.5999C114.346 22.7919 114.762 22.9732 115.317 23.1439L117.013 23.6879C119.018 24.3279 120.554 25.1492 121.621 26.1519C122.709 27.1332 123.253 28.4772 123.253 30.1839C123.253 31.9972 122.538 33.4692 121.109 34.5999C119.68 35.7092 117.578 36.2639 114.805 36.2639C113.824 36.2639 112.906 36.1786 112.053 36.0079C111.221 35.8586 110.485 35.6346 109.845 35.3359C109.226 35.0159 108.736 34.6319 108.373 34.1839C108.032 33.7146 107.861 33.1812 107.861 32.5839C107.861 31.9652 108.042 31.4426 108.405 31.0159C108.768 30.5679 109.162 30.2266 109.589 29.9919C110.186 30.4612 110.912 30.8666 111.765 31.2079C112.64 31.5492 113.589 31.7199 114.613 31.7199C115.658 31.7199 116.394 31.5599 116.821 31.2399C117.248 30.9199 117.461 30.5466 117.461 30.1199C117.461 29.6932 117.29 29.3732 116.949 29.1599C116.608 28.9252 116.128 28.7012 115.509 28.4879L114.165 28.0399Z" fill="white"/>
<path d="M142.029 27.9762C142.029 29.2989 141.826 30.4829 141.421 31.5282C141.015 32.5522 140.439 33.4162 139.693 34.1202C138.967 34.8242 138.092 35.3575 137.068 35.7202C136.044 36.0829 134.903 36.2642 133.645 36.2642C132.386 36.2642 131.244 36.0722 130.22 35.6882C129.196 35.3042 128.311 34.7602 127.564 34.0562C126.839 33.3309 126.274 32.4562 125.868 31.4322C125.463 30.4082 125.26 29.2562 125.26 27.9762C125.26 26.7175 125.463 25.5762 125.868 24.5522C126.274 23.5282 126.839 22.6642 127.564 21.9602C128.311 21.2349 129.196 20.6802 130.22 20.2962C131.244 19.9122 132.386 19.7202 133.645 19.7202C134.903 19.7202 136.044 19.9229 137.068 20.3282C138.092 20.7122 138.967 21.2669 139.693 21.9922C140.439 22.6962 141.015 23.5602 141.421 24.5842C141.826 25.6082 142.029 26.7389 142.029 27.9762ZM130.828 27.9762C130.828 29.2775 131.074 30.2802 131.564 30.9842C132.076 31.6669 132.78 32.0082 133.676 32.0082C134.572 32.0082 135.255 31.6562 135.725 30.9522C136.215 30.2482 136.46 29.2562 136.46 27.9762C136.46 26.6962 136.215 25.7149 135.725 25.0322C135.234 24.3282 134.541 23.9762 133.645 23.9762C132.749 23.9762 132.055 24.3282 131.564 25.0322C131.074 25.7149 130.828 26.6962 130.828 27.9762Z" fill="white"/>
<path d="M150.219 35.7201C149.984 35.7628 149.632 35.8161 149.163 35.8801C148.715 35.9654 148.256 36.0081 147.786 36.0081C147.317 36.0081 146.891 35.9761 146.507 35.9121C146.144 35.8481 145.835 35.7201 145.579 35.5281C145.323 35.3361 145.12 35.0801 144.971 34.7601C144.843 34.4188 144.779 33.9814 144.779 33.4481V14.8881C145.013 14.8454 145.355 14.7921 145.803 14.7281C146.272 14.6428 146.741 14.6001 147.21 14.6001C147.68 14.6001 148.096 14.6321 148.458 14.6961C148.842 14.7601 149.163 14.8881 149.419 15.0801C149.675 15.2721 149.867 15.5388 149.995 15.8801C150.144 16.2001 150.219 16.6268 150.219 17.1601V35.7201Z" fill="white"/>
<path d="M153.651 20.4242C153.865 20.3602 154.195 20.2962 154.643 20.2322C155.113 20.1682 155.593 20.1362 156.083 20.1362C156.553 20.1362 156.969 20.1682 157.331 20.2322C157.715 20.2962 158.035 20.4242 158.291 20.6162C158.547 20.8082 158.739 21.0749 158.867 21.4162C159.017 21.7362 159.091 22.1629 159.091 22.6962V29.5762C159.091 30.4509 159.305 31.0802 159.731 31.4642C160.158 31.8269 160.777 32.0082 161.587 32.0082C162.078 32.0082 162.473 31.9655 162.771 31.8802C163.091 31.7949 163.337 31.7095 163.507 31.6242V20.4242C163.721 20.3602 164.051 20.2962 164.499 20.2322C164.969 20.1682 165.449 20.1362 165.939 20.1362C166.409 20.1362 166.825 20.1682 167.187 20.2322C167.571 20.2962 167.891 20.4242 168.147 20.6162C168.403 20.8082 168.595 21.0749 168.723 21.4162C168.873 21.7362 168.947 22.1629 168.947 22.6962V32.4242C168.947 33.4909 168.499 34.2909 167.603 34.8242C166.857 35.2935 165.961 35.6455 164.915 35.8802C163.891 36.1362 162.771 36.2642 161.555 36.2642C160.403 36.2642 159.337 36.1362 158.355 35.8802C157.395 35.6242 156.563 35.2295 155.859 34.6962C155.155 34.1629 154.611 33.4802 154.227 32.6482C153.843 31.7949 153.651 30.7709 153.651 29.5762V20.4242Z" fill="white"/>
<path d="M177.716 30.4079C177.716 30.9626 177.887 31.3572 178.228 31.5919C178.591 31.8266 179.092 31.9439 179.732 31.9439C180.052 31.9439 180.383 31.9226 180.724 31.8799C181.066 31.8159 181.364 31.7412 181.62 31.6559C181.812 31.8906 181.972 32.1572 182.1 32.4559C182.25 32.7332 182.324 33.0746 182.324 33.4799C182.324 34.2906 182.015 34.9519 181.396 35.4639C180.799 35.9759 179.732 36.2319 178.196 36.2319C176.319 36.2319 174.868 35.8052 173.844 34.9519C172.842 34.0986 172.34 32.7119 172.34 30.7919V17.0959C172.575 17.0319 172.906 16.9679 173.332 16.9039C173.78 16.8186 174.25 16.7759 174.74 16.7759C175.679 16.7759 176.404 16.9466 176.916 17.2879C177.45 17.6079 177.716 18.3012 177.716 19.3679V21.4159H181.908C182.036 21.6506 182.154 21.9492 182.26 22.3119C182.388 22.6532 182.452 23.0372 182.452 23.4639C182.452 24.2106 182.282 24.7546 181.94 25.0959C181.62 25.4159 181.183 25.5759 180.628 25.5759H177.716V30.4079Z" fill="white"/>
<path d="M184.961 15.88C184.961 15.0693 185.227 14.3867 185.761 13.832C186.315 13.2773 187.041 13 187.937 13C188.833 13 189.547 13.2773 190.081 13.832C190.635 14.3867 190.913 15.0693 190.913 15.88C190.913 16.6907 190.635 17.3733 190.081 17.928C189.547 18.4827 188.833 18.76 187.937 18.76C187.041 18.76 186.315 18.4827 185.761 17.928C185.227 17.3733 184.961 16.6907 184.961 15.88ZM190.657 35.72C190.422 35.7627 190.07 35.816 189.601 35.88C189.153 35.9653 188.694 36.008 188.225 36.008C187.755 36.008 187.329 35.976 186.945 35.912C186.582 35.848 186.273 35.72 186.017 35.528C185.761 35.336 185.558 35.08 185.409 34.76C185.281 34.4187 185.217 33.9813 185.217 33.448V20.424C185.451 20.3813 185.793 20.328 186.241 20.264C186.71 20.1787 187.179 20.136 187.649 20.136C188.118 20.136 188.534 20.168 188.897 20.232C189.281 20.296 189.601 20.424 189.857 20.616C190.113 20.808 190.305 21.0747 190.433 21.416C190.582 21.736 190.657 22.1627 190.657 22.696V35.72Z" fill="white"/>
<path d="M210.216 27.9762C210.216 29.2989 210.013 30.4829 209.608 31.5282C209.203 32.5522 208.627 33.4162 207.88 34.1202C207.155 34.8242 206.28 35.3575 205.256 35.7202C204.232 36.0829 203.091 36.2642 201.832 36.2642C200.573 36.2642 199.432 36.0722 198.408 35.6882C197.384 35.3042 196.499 34.7602 195.752 34.0562C195.027 33.3309 194.461 32.4562 194.056 31.4322C193.651 30.4082 193.448 29.2562 193.448 27.9762C193.448 26.7175 193.651 25.5762 194.056 24.5522C194.461 23.5282 195.027 22.6642 195.752 21.9602C196.499 21.2349 197.384 20.6802 198.408 20.2962C199.432 19.9122 200.573 19.7202 201.832 19.7202C203.091 19.7202 204.232 19.9229 205.256 20.3282C206.28 20.7122 207.155 21.2669 207.88 21.9922C208.627 22.6962 209.203 23.5602 209.608 24.5842C210.013 25.6082 210.216 26.7389 210.216 27.9762ZM199.016 27.9762C199.016 29.2775 199.261 30.2802 199.752 30.9842C200.264 31.6669 200.968 32.0082 201.864 32.0082C202.76 32.0082 203.443 31.6562 203.912 30.9522C204.403 30.2482 204.648 29.2562 204.648 27.9762C204.648 26.6962 204.403 25.7149 203.912 25.0322C203.421 24.3282 202.728 23.9762 201.832 23.9762C200.936 23.9762 200.243 24.3282 199.752 25.0322C199.261 25.7149 199.016 26.6962 199.016 27.9762Z" fill="white"/>
<path d="M222.726 25.8962C222.726 25.2349 222.534 24.7549 222.15 24.4562C221.787 24.1362 221.286 23.9762 220.646 23.9762C220.219 23.9762 219.793 24.0295 219.366 24.1362C218.961 24.2429 218.609 24.4029 218.31 24.6162V35.7202C218.097 35.7842 217.755 35.8482 217.286 35.9122C216.838 35.9762 216.369 36.0082 215.878 36.0082C215.409 36.0082 214.982 35.9762 214.598 35.9122C214.235 35.8482 213.926 35.7202 213.67 35.5282C213.414 35.3362 213.211 35.0802 213.062 34.7602C212.934 34.4189 212.87 33.9815 212.87 33.4482V23.8482C212.87 23.2722 212.987 22.8029 213.222 22.4402C213.478 22.0775 213.819 21.7469 214.246 21.4482C214.971 20.9362 215.878 20.5202 216.966 20.2002C218.075 19.8802 219.302 19.7202 220.646 19.7202C223.057 19.7202 224.913 20.2535 226.214 21.3202C227.515 22.3655 228.166 23.8269 228.166 25.7042V35.7202C227.953 35.7842 227.611 35.8482 227.142 35.9122C226.694 35.9762 226.225 36.0082 225.734 36.0082C225.265 36.0082 224.838 35.9762 224.454 35.9122C224.091 35.8482 223.782 35.7202 223.526 35.5282C223.27 35.3362 223.067 35.0802 222.918 34.7602C222.79 34.4189 222.726 33.9815 222.726 33.4482V25.8962Z" fill="white"/>
</g>
<defs>
<clipPath id="clip0_1871_18">
<rect width="236" height="51" fill="white"/>
</clipPath>
</defs>
</svg>
