<svg width="110" height="110" viewBox="0 0 110 110" fill="none" xmlns="http://www.w3.org/2000/svg">
<rect width="110" height="110" fill="white"/>
<path fill-rule="evenodd" clip-rule="evenodd" d="M58.2644 59.3888C58.2644 51.6936 51.8266 45.4351 43.9234 45.4351C36.0202 45.4351 29.5926 51.7035 29.5926 59.3987C29.5926 65.5686 32.2303 68.9439 34.3426 71.65C35.3835 72.9883 36.3133 74.179 36.8489 75.537H35.7777C35.1814 75.537 34.6963 76.0093 34.6963 76.5899V80.9886C34.6963 81.5692 35.1814 82.0415 35.7777 82.0415H38.3649C38.3649 85.0231 40.8612 87.4537 43.9234 87.4537C46.9856 87.4537 49.4819 85.0231 49.4819 82.0415H52.0692C52.6654 82.0415 53.1505 81.5692 53.1505 80.9886V76.5899C53.1505 76.0093 52.6654 75.537 52.0692 75.537H50.9878C51.5335 74.179 52.4532 72.9883 53.4942 71.65C55.6064 68.934 58.2442 65.5588 58.2442 59.3888H58.2644ZM43.9436 85.338C42.0638 85.338 40.5378 83.8521 40.5378 82.0218H47.3495C47.3495 83.8521 45.8234 85.338 43.9436 85.338ZM51.008 79.9258H36.8692V77.633H51.008V79.9258ZM40.7803 65.0372C41.9223 65.175 42.9734 64.9979 43.9335 64.5059C44.8936 64.9979 45.9447 65.175 47.0867 65.0372C45.5202 68.3633 44.9239 71.8862 45.3282 75.5271H42.5388C42.933 71.8763 42.3468 68.3633 40.7702 65.0372H40.7803ZM48.734 75.5271H47.5011C46.9957 71.404 47.9053 67.4678 50.1995 63.817C50.4521 63.4136 50.4016 62.9117 50.0782 62.5673C49.7548 62.2229 49.2394 62.1245 48.8048 62.3311C47.0665 63.1676 45.6718 63.1971 44.5601 62.4197C44.1862 62.154 43.6809 62.154 43.3069 62.4197C42.1952 63.1971 40.8005 63.1676 39.0622 62.3311C38.6277 62.1245 38.1122 62.2229 37.7888 62.5673C37.4654 62.9117 37.4149 63.4234 37.6676 63.817C39.9617 67.4678 40.8814 71.404 40.3761 75.5271H39.133C38.5367 73.559 37.334 72.0043 36.0606 70.3806C33.9383 67.6646 31.7452 64.8601 31.7452 59.3987C31.7452 52.8548 37.2027 47.5311 43.9234 47.5311C50.634 47.5311 56.1117 52.8449 56.1117 59.3888C56.1117 64.8503 53.9186 67.6646 51.8064 70.3806C50.533 72.0141 49.3303 73.559 48.734 75.5271ZM42.8521 42.6503V39.2652C42.8521 38.6846 43.3372 38.2122 43.9335 38.2122C44.5298 38.2122 45.0149 38.6846 45.0149 39.2652V42.6503C45.0149 43.2309 44.5298 43.7032 43.9335 43.7032C43.3372 43.7032 42.8521 43.2309 42.8521 42.6503ZM51.584 44.3625L53.3223 41.4301C53.6154 40.9282 54.2825 40.7609 54.7979 41.0463C55.3133 41.3316 55.4851 41.9811 55.192 42.483L53.4537 45.4154C53.2516 45.75 52.8979 45.937 52.5239 45.9468C52.342 45.9468 52.1601 45.8976 51.9883 45.809C51.4729 45.5237 51.3011 44.8742 51.5942 44.3723L51.584 44.3625ZM57.8803 51.5362C57.5872 51.0343 57.759 50.3947 58.2745 50.0995L61.2862 48.4069C61.8016 48.1215 62.4585 48.2888 62.7617 48.7907C63.0548 49.2926 62.883 49.9322 62.3676 50.2274L59.3559 51.9199C59.184 52.0184 59.0021 52.0577 58.8202 52.0577C58.4463 52.0577 58.0825 51.8707 57.8803 51.5362ZM61.1245 58.3261H64.6011C65.1973 58.3261 65.6824 58.7984 65.6824 59.379C65.6824 59.9596 65.1973 60.4319 64.6011 60.4319H61.1245C60.5282 60.4319 60.0431 59.9596 60.0431 59.379C60.0431 58.7984 60.5282 58.3261 61.1245 58.3261ZM22.1846 59.3888C22.1846 58.8082 22.6697 58.3359 23.266 58.3359H26.7426C27.3388 58.3359 27.8239 58.8082 27.8239 59.3888C27.8239 59.9694 27.3388 60.4418 26.7426 60.4418H23.266C22.6697 60.4418 22.1846 59.9694 22.1846 59.3888ZM25.0952 48.8005C25.3883 48.2987 26.0553 48.1314 26.5707 48.4168L29.5824 50.1093C30.0979 50.3947 30.2697 51.0442 29.9766 51.546C29.7745 51.8806 29.4207 52.0676 29.0468 52.0774C28.8649 52.0774 28.683 52.0282 28.5112 51.9396L25.4995 50.2471C24.984 49.9617 24.8122 49.3122 25.1053 48.8104L25.0952 48.8005ZM32.6548 42.483C32.3516 41.9811 32.5335 41.3415 33.0489 41.0463C33.5644 40.7609 34.2213 40.9282 34.5245 41.4301L36.2729 44.3625C36.5761 44.8644 36.3941 45.504 35.8787 45.7992C35.7069 45.8976 35.525 45.937 35.3431 45.937C34.9691 45.937 34.6053 45.75 34.4133 45.4154L32.6649 42.483H32.6548ZM45.1867 49.4303C45.1867 50.0109 44.7016 50.4832 44.1053 50.4832C38.9106 50.4832 34.6862 54.5965 34.6963 59.6545C34.6963 60.2351 34.2112 60.7075 33.6149 60.7075C33.0186 60.7075 32.5335 60.2351 32.5335 59.6545C32.5335 53.4452 37.7181 48.3872 44.0952 48.3872C44.6915 48.3872 45.1766 48.8596 45.1766 49.4402L45.1867 49.4303ZM87.3303 54.321C87.1383 53.9864 86.7846 53.7798 86.3904 53.7798C85.9963 53.7798 85.6426 53.9864 85.4505 54.321L79.9324 63.9942C79.8415 64.1516 79.8011 64.3287 79.8011 64.5059V90.9274C79.8011 91.508 80.2862 91.9803 80.8825 91.9803H91.9186C92.5149 91.9803 93 91.508 93 90.9274V64.5059C93 64.3287 92.9495 64.1516 92.8585 63.9942L87.3404 54.3308L87.3303 54.321ZM86.3904 56.9878L90.0793 63.4529H82.7016L86.3904 56.9976V56.9878ZM81.9638 89.8745V65.5489H90.8372V89.8745H81.9638ZM66.8952 81.9923C66.8952 82.5729 66.4101 83.0452 65.8138 83.0452H55.95C55.3537 83.0452 54.8686 82.5827 54.8686 82.0021C54.8686 81.4215 55.3537 80.9492 55.95 80.9492H65.8138C66.4101 80.9492 66.8952 81.4117 66.8952 81.9923ZM66.8952 87.2176C66.8952 87.7981 66.4101 88.2705 65.8138 88.2705H55.95C55.3537 88.2705 54.8686 87.808 54.8686 87.2274C54.8686 86.6468 55.3537 86.1745 55.95 86.1745H65.8138C66.4101 86.1745 66.8952 86.637 66.8952 87.2176ZM32.9883 82.0021C32.9883 82.5827 32.5032 83.0551 31.9069 83.0551H22.0532C21.4569 83.0551 20.9718 82.5926 20.9718 82.012C20.9718 81.4314 21.4569 80.959 22.0532 80.959H31.917C32.5133 80.959 32.9984 81.4215 32.9984 82.0021H32.9883ZM32.9883 87.2274C32.9883 87.808 32.5032 88.2803 31.9069 88.2803H22.0532C21.4569 88.2803 20.9718 87.8178 20.9718 87.2372C20.9718 86.6567 21.4569 86.1843 22.0532 86.1843H31.917C32.5133 86.1843 32.9984 86.6468 32.9984 87.2274H32.9883ZM92.7473 33.292C93.0505 32.9181 93.0505 32.3867 92.7473 32.0029C88.2601 26.3939 83.0149 23.304 77.517 23.0481V19.0529C77.517 18.4723 77.0319 18 76.4356 18H69.7452L18.0814 18.0197C17.4851 18.0197 17 18.492 17 19.0726L17.0303 90.9471C17.0303 91.5277 17.5154 92 18.1117 92L65.7734 91.9803H76.4761C77.0723 91.9803 77.5574 91.508 77.5574 90.9274L77.5372 42.2665C83.0351 42.0008 88.2803 38.9109 92.7575 33.3019L92.7473 33.292ZM90.5239 32.6524C86.4207 37.5332 81.7213 40.141 76.8904 40.1803H76.7692C71.8676 40.1803 67.0367 37.5824 62.7314 32.6622C67.0266 27.7322 71.8676 25.1343 76.7692 25.1343H76.8904C81.7213 25.1737 86.4207 27.7715 90.5239 32.6524ZM64.6213 27.8306C63.1963 29.0114 61.8117 30.4088 60.4878 32.0029C60.1644 32.3867 60.1644 32.9378 60.4878 33.3215C60.7707 33.6561 61.0537 33.9907 61.3367 34.3056H23.2053V24.7309L64.6213 24.7112V27.8207V27.8306ZM75.3644 23.0973C73.8383 23.2351 72.3223 23.5795 70.8367 24.1404V20.096H75.3644V23.0973ZM65.7633 89.8745L19.183 89.8941L19.1628 20.1157L68.684 20.096V25.1048C68.0473 25.4394 67.4106 25.8133 66.784 26.2266V23.6779C66.784 23.0973 66.2989 22.625 65.7027 22.625L22.134 22.6447C21.5378 22.6447 21.0527 23.117 21.0527 23.6976V35.3782C21.0527 35.9588 21.5378 36.4311 22.134 36.4311L63.3883 36.4114C65.0862 37.9957 66.8548 39.2652 68.6739 40.2197L68.6942 89.8843H65.7532L65.7633 89.8745ZM70.8468 89.8745L70.8266 41.184C72.3122 41.7449 73.8282 42.0894 75.3644 42.2173L75.3846 89.8745H70.8468ZM82.0144 29.5035C82.0144 29.5035 81.9942 29.4739 81.984 29.4641C81.9436 29.3952 81.8931 29.3362 81.8527 29.2673C81.8325 29.2476 81.8223 29.2279 81.8122 29.1984C81.7718 29.1394 81.7314 29.0803 81.691 29.0213C81.6505 28.9721 81.6101 28.913 81.5697 28.8638C81.5697 28.854 81.5495 28.8441 81.5394 28.8245C80.5287 27.5944 79.0532 26.7481 77.3755 26.5513C77.3553 26.5513 77.3351 26.5513 77.325 26.5513C77.2745 26.5513 77.2239 26.5415 77.1633 26.5316H77.0117C77.0117 26.5316 76.941 26.512 76.9005 26.512C76.8096 26.512 76.7085 26.512 76.6176 26.512C76.4862 26.512 76.3548 26.512 76.2234 26.5218C76.2032 26.5218 76.183 26.5218 76.1628 26.5218C76.1426 26.5218 76.1223 26.5218 76.1122 26.5218C72.8681 26.7777 70.3213 29.4247 70.3213 32.6426C70.3213 36.0277 73.1511 38.7731 76.6277 38.7731C80.1043 38.7731 82.9239 36.0178 82.9239 32.6327C82.9239 31.875 82.7825 31.1468 82.5197 30.4777C82.5197 30.458 82.5197 30.4481 82.4995 30.4383C82.3984 30.1923 82.2872 29.9463 82.1559 29.7199V29.7003C82.1053 29.6314 82.0649 29.5527 82.0144 29.4838V29.5035ZM76.8298 28.6277C76.9207 28.6277 77.0016 28.6375 77.0926 28.6473H77.1128C78.2548 28.7851 79.2957 29.3952 79.9729 30.2907C79.983 30.3104 79.9931 30.3202 80.0032 30.3301C80.0436 30.3793 80.0739 30.4285 80.1043 30.4777C80.1245 30.4973 80.1346 30.5269 80.1447 30.5465C80.1851 30.5957 80.2154 30.6548 80.2458 30.7138C80.2458 30.7335 80.266 30.7434 80.266 30.7532C79.8819 31.2059 79.3059 31.4715 78.6894 31.4715C77.5574 31.4715 76.6378 30.5761 76.6378 29.4739C76.6378 29.1787 76.7085 28.8934 76.8298 28.6277ZM76.6074 36.6968C74.3133 36.6968 72.4537 34.8862 72.4537 32.6524C72.4537 31.1763 73.2723 29.8774 74.4851 29.1787C74.4851 29.2771 74.475 29.3755 74.475 29.4641C74.475 31.7274 76.3649 33.5577 78.6793 33.5577C79.417 33.5577 80.1144 33.3707 80.7309 33.046C80.5287 35.0928 78.75 36.6968 76.5973 36.6968H76.6074ZM28.6931 33.5971C30.9973 33.5971 32.8771 31.7668 32.8771 29.533C32.8771 27.2992 30.9973 25.4689 28.6931 25.4689C26.3888 25.4689 24.5191 27.2992 24.5191 29.533C24.5191 31.7766 26.3989 33.5971 28.6931 33.5971ZM28.6931 27.5649C29.8149 27.5649 30.7245 28.4505 30.7245 29.533C30.7245 30.6154 29.8149 31.5011 28.7032 31.5011C27.5814 31.5011 26.6819 30.6154 26.6819 29.533C26.6819 28.4505 27.5915 27.5649 28.7032 27.5649H28.6931ZM38.4963 29.5231C38.4963 28.9426 38.9814 28.4702 39.5777 28.4702H57.9207C58.517 28.4702 59.0021 28.9327 59.0021 29.5133C59.0021 30.0939 58.517 30.5662 57.9207 30.5662H39.5777C38.9814 30.5662 38.4963 30.1037 38.4963 29.5231ZM27.6117 29.533C27.6117 28.9524 28.0968 28.4801 28.6931 28.4801C29.2894 28.4801 29.7745 28.9524 29.7745 29.533C29.7745 30.1136 29.2894 30.5859 28.6931 30.5859C28.0968 30.5859 27.6117 30.1136 27.6117 29.533Z" fill="black"/>
</svg>
