<svg width="100" height="100" viewBox="0 0 100 100" fill="none" xmlns="http://www.w3.org/2000/svg">
<path fill-rule="evenodd" clip-rule="evenodd" d="M54.2644 54.3888C54.2644 46.6936 47.8266 40.4351 39.9234 40.4351C32.0202 40.4351 25.5926 46.7035 25.5926 54.3987C25.5926 60.5686 28.2303 63.9439 30.3426 66.65C31.3835 67.9883 32.3133 69.179 32.8489 70.537H31.7777C31.1814 70.537 30.6963 71.0093 30.6963 71.5899V75.9886C30.6963 76.5692 31.1814 77.0415 31.7777 77.0415H34.3649C34.3649 80.0231 36.8612 82.4537 39.9234 82.4537C42.9856 82.4537 45.4819 80.0231 45.4819 77.0415H48.0692C48.6654 77.0415 49.1505 76.5692 49.1505 75.9886V71.5899C49.1505 71.0093 48.6654 70.537 48.0692 70.537H46.9878C47.5335 69.179 48.4532 67.9883 49.4942 66.65C51.6064 63.934 54.2442 60.5588 54.2442 54.3888H54.2644ZM39.9436 80.338C38.0638 80.338 36.5378 78.8521 36.5378 77.0218H43.3495C43.3495 78.8521 41.8234 80.338 39.9436 80.338ZM47.008 74.9258H32.8691V72.633H47.008V74.9258ZM36.7803 60.0372C37.9223 60.175 38.9734 59.9979 39.9335 59.5059C40.8936 59.9979 41.9447 60.175 43.0867 60.0372C41.5202 63.3633 40.9239 66.8862 41.3282 70.5271H38.5388C38.933 66.8763 38.3468 63.3633 36.7702 60.0372H36.7803ZM44.734 70.5271H43.5011C42.9957 66.404 43.9053 62.4678 46.1995 58.817C46.4521 58.4136 46.4016 57.9117 46.0782 57.5673C45.7548 57.2229 45.2394 57.1245 44.8048 57.3311C43.0665 58.1676 41.6718 58.1971 40.5601 57.4197C40.1862 57.154 39.6809 57.154 39.3069 57.4197C38.1952 58.1971 36.8005 58.1676 35.0622 57.3311C34.6277 57.1245 34.1122 57.2229 33.7888 57.5673C33.4654 57.9117 33.4149 58.4234 33.6676 58.817C35.9617 62.4678 36.8814 66.404 36.3761 70.5271H35.133C34.5367 68.559 33.334 67.0043 32.0606 65.3806C29.9383 62.6646 27.7452 59.8601 27.7452 54.3987C27.7452 47.8548 33.2027 42.5311 39.9234 42.5311C46.634 42.5311 52.1117 47.8449 52.1117 54.3888C52.1117 59.8503 49.9186 62.6646 47.8064 65.3806C46.533 67.0141 45.3303 68.559 44.734 70.5271ZM38.8521 37.6503V34.2652C38.8521 33.6846 39.3372 33.2122 39.9335 33.2122C40.5298 33.2122 41.0149 33.6846 41.0149 34.2652V37.6503C41.0149 38.2309 40.5298 38.7032 39.9335 38.7032C39.3372 38.7032 38.8521 38.2309 38.8521 37.6503ZM47.584 39.3625L49.3223 36.4301C49.6154 35.9282 50.2825 35.7609 50.7979 36.0463C51.3133 36.3316 51.4851 36.9811 51.192 37.483L49.4537 40.4154C49.2516 40.75 48.8979 40.937 48.5239 40.9468C48.342 40.9468 48.1601 40.8976 47.9883 40.809C47.4729 40.5237 47.3011 39.8742 47.5942 39.3723L47.584 39.3625ZM53.8803 46.5362C53.5872 46.0343 53.759 45.3947 54.2745 45.0995L57.2862 43.4069C57.8016 43.1215 58.4585 43.2888 58.7617 43.7907C59.0548 44.2926 58.883 44.9322 58.3676 45.2274L55.3559 46.9199C55.184 47.0184 55.0021 47.0577 54.8202 47.0577C54.4463 47.0577 54.0824 46.8707 53.8803 46.5362ZM57.1245 53.3261H60.6011C61.1973 53.3261 61.6824 53.7984 61.6824 54.379C61.6824 54.9596 61.1973 55.4319 60.6011 55.4319H57.1245C56.5282 55.4319 56.0431 54.9596 56.0431 54.379C56.0431 53.7984 56.5282 53.3261 57.1245 53.3261ZM18.1846 54.3888C18.1846 53.8082 18.6697 53.3359 19.266 53.3359H22.7426C23.3388 53.3359 23.8239 53.8082 23.8239 54.3888C23.8239 54.9694 23.3388 55.4418 22.7426 55.4418H19.266C18.6697 55.4418 18.1846 54.9694 18.1846 54.3888ZM21.0952 43.8005C21.3883 43.2987 22.0553 43.1314 22.5707 43.4168L25.5824 45.1093C26.0979 45.3947 26.2697 46.0442 25.9766 46.546C25.7745 46.8806 25.4207 47.0676 25.0468 47.0774C24.8649 47.0774 24.683 47.0282 24.5112 46.9396L21.4995 45.2471C20.984 44.9617 20.8122 44.3122 21.1053 43.8104L21.0952 43.8005ZM28.6548 37.483C28.3516 36.9811 28.5335 36.3415 29.0489 36.0463C29.5644 35.7609 30.2213 35.9282 30.5245 36.4301L32.2729 39.3625C32.5761 39.8644 32.3942 40.504 31.8787 40.7992C31.7069 40.8976 31.525 40.937 31.3431 40.937C30.9691 40.937 30.6053 40.75 30.4133 40.4154L28.6649 37.483H28.6548ZM41.1867 44.4303C41.1867 45.0109 40.7016 45.4832 40.1053 45.4832C34.9106 45.4832 30.6862 49.5965 30.6963 54.6545C30.6963 55.2351 30.2112 55.7074 29.6149 55.7074C29.0186 55.7074 28.5335 55.2351 28.5335 54.6545C28.5335 48.4452 33.7181 43.3872 40.0952 43.3872C40.6915 43.3872 41.1766 43.8596 41.1766 44.4402L41.1867 44.4303ZM83.3303 49.321C83.1383 48.9864 82.7846 48.7798 82.3904 48.7798C81.9963 48.7798 81.6426 48.9864 81.4505 49.321L75.9325 58.9942C75.8415 59.1516 75.8011 59.3287 75.8011 59.5059V85.9274C75.8011 86.508 76.2862 86.9803 76.8824 86.9803H87.9186C88.5149 86.9803 89 86.508 89 85.9274V59.5059C89 59.3287 88.9495 59.1516 88.8585 58.9942L83.3404 49.3309L83.3303 49.321ZM82.3904 51.9878L86.0793 58.4529H78.7016L82.3904 51.9976V51.9878ZM77.9638 84.8745V60.5489H86.8372V84.8745H77.9638ZM62.8952 76.9923C62.8952 77.5729 62.4101 78.0452 61.8138 78.0452H51.95C51.3537 78.0452 50.8686 77.5827 50.8686 77.0021C50.8686 76.4215 51.3537 75.9492 51.95 75.9492H61.8138C62.4101 75.9492 62.8952 76.4117 62.8952 76.9923ZM62.8952 82.2176C62.8952 82.7981 62.4101 83.2705 61.8138 83.2705H51.95C51.3537 83.2705 50.8686 82.808 50.8686 82.2274C50.8686 81.6468 51.3537 81.1745 51.95 81.1745H61.8138C62.4101 81.1745 62.8952 81.637 62.8952 82.2176ZM28.9883 77.0021C28.9883 77.5827 28.5032 78.0551 27.9069 78.0551H18.0532C17.4569 78.0551 16.9718 77.5926 16.9718 77.012C16.9718 76.4314 17.4569 75.959 18.0532 75.959H27.917C28.5133 75.959 28.9984 76.4215 28.9984 77.0021H28.9883ZM28.9883 82.2274C28.9883 82.808 28.5032 83.2803 27.9069 83.2803H18.0532C17.4569 83.2803 16.9718 82.8178 16.9718 82.2372C16.9718 81.6567 17.4569 81.1843 18.0532 81.1843H27.917C28.5133 81.1843 28.9984 81.6468 28.9984 82.2274H28.9883ZM88.7473 28.292C89.0505 27.9181 89.0505 27.3867 88.7473 27.0029C84.2601 21.3939 79.0149 18.304 73.517 18.0481V14.0529C73.517 13.4723 73.0319 13 72.4356 13H65.7452L14.0814 13.0197C13.4851 13.0197 13 13.492 13 14.0726L13.0303 85.9471C13.0303 86.5277 13.5154 87 14.1117 87L61.7734 86.9803H72.4761C73.0723 86.9803 73.5574 86.508 73.5574 85.9274L73.5372 37.2665C79.0351 37.0008 84.2803 33.9109 88.7575 28.3019L88.7473 28.292ZM86.5239 27.6524C82.4207 32.5332 77.7213 35.141 72.8904 35.1803H72.7692C67.8676 35.1803 63.0367 32.5824 58.7314 27.6622C63.0266 22.7322 67.8676 20.1343 72.7692 20.1343H72.8904C77.7213 20.1737 82.4207 22.7715 86.5239 27.6524ZM60.6213 22.8306C59.1963 24.0114 57.8117 25.4088 56.4878 27.0029C56.1644 27.3867 56.1644 27.9378 56.4878 28.3215C56.7707 28.6561 57.0537 28.9907 57.3367 29.3056H19.2053V19.7309L60.6213 19.7112V22.8207V22.8306ZM71.3644 18.0973C69.8383 18.2351 68.3223 18.5795 66.8367 19.1404V15.096H71.3644V18.0973ZM61.7633 84.8745L15.183 84.8941L15.1628 15.1157L64.684 15.096V20.1048C64.0473 20.4394 63.4106 20.8133 62.784 21.2266V18.6779C62.784 18.0973 62.2989 17.625 61.7027 17.625L18.134 17.6447C17.5378 17.6447 17.0527 18.117 17.0527 18.6976V30.3782C17.0527 30.9588 17.5378 31.4311 18.134 31.4311L59.3883 31.4114C61.0862 32.9957 62.8548 34.2652 64.6739 35.2197L64.6942 84.8843H61.7532L61.7633 84.8745ZM66.8468 84.8745L66.8266 36.184C68.3122 36.7449 69.8282 37.0894 71.3644 37.2173L71.3846 84.8745H66.8468ZM78.0144 24.5035C78.0144 24.5035 77.9942 24.4739 77.984 24.4641C77.9436 24.3952 77.8931 24.3362 77.8527 24.2673C77.8324 24.2476 77.8223 24.2279 77.8122 24.1984C77.7718 24.1394 77.7314 24.0803 77.691 24.0213C77.6505 23.9721 77.6101 23.913 77.5697 23.8638C77.5697 23.854 77.5495 23.8441 77.5394 23.8245C76.5287 22.5944 75.0532 21.7481 73.3755 21.5513C73.3553 21.5513 73.3351 21.5513 73.325 21.5513C73.2745 21.5513 73.2239 21.5415 73.1633 21.5316H73.0117C73.0117 21.5316 72.941 21.512 72.9005 21.512C72.8096 21.512 72.7085 21.512 72.6176 21.512C72.4862 21.512 72.3548 21.512 72.2234 21.5218C72.2032 21.5218 72.183 21.5218 72.1628 21.5218C72.1426 21.5218 72.1223 21.5218 72.1122 21.5218C68.8681 21.7777 66.3213 24.4247 66.3213 27.6426C66.3213 31.0277 69.1511 33.7731 72.6277 33.7731C76.1043 33.7731 78.9239 31.0178 78.9239 27.6327C78.9239 26.875 78.7825 26.1468 78.5197 25.4777C78.5197 25.458 78.5197 25.4481 78.4995 25.4383C78.3984 25.1923 78.2872 24.9463 78.1559 24.7199V24.7003C78.1053 24.6314 78.0649 24.5527 78.0144 24.4838V24.5035ZM72.8298 23.6277C72.9207 23.6277 73.0016 23.6375 73.0926 23.6473H73.1128C74.2548 23.7851 75.2957 24.3952 75.9729 25.2907C75.983 25.3104 75.9931 25.3202 76.0032 25.3301C76.0436 25.3793 76.0739 25.4285 76.1043 25.4777C76.1245 25.4973 76.1346 25.5269 76.1447 25.5465C76.1851 25.5957 76.2154 25.6548 76.2458 25.7138C76.2458 25.7335 76.266 25.7434 76.266 25.7532C75.8819 26.2059 75.3059 26.4715 74.6894 26.4715C73.5575 26.4715 72.6378 25.5761 72.6378 24.4739C72.6378 24.1787 72.7085 23.8934 72.8298 23.6277ZM72.6074 31.6968C70.3133 31.6968 68.4537 29.8862 68.4537 27.6524C68.4537 26.1763 69.2723 24.8774 70.4851 24.1787C70.4851 24.2771 70.475 24.3755 70.475 24.4641C70.475 26.7274 72.3649 28.5577 74.6793 28.5577C75.417 28.5577 76.1144 28.3707 76.7309 28.046C76.5287 30.0928 74.75 31.6968 72.5973 31.6968H72.6074ZM24.6931 28.5971C26.9973 28.5971 28.8771 26.7668 28.8771 24.533C28.8771 22.2992 26.9973 20.4689 24.6931 20.4689C22.3888 20.4689 20.5191 22.2992 20.5191 24.533C20.5191 26.7766 22.3989 28.5971 24.6931 28.5971ZM24.6931 22.5649C25.8149 22.5649 26.7245 23.4505 26.7245 24.533C26.7245 25.6154 25.8149 26.5011 24.7032 26.5011C23.5814 26.5011 22.6819 25.6154 22.6819 24.533C22.6819 23.4505 23.5915 22.5649 24.7032 22.5649H24.6931ZM34.4963 24.5231C34.4963 23.9426 34.9814 23.4702 35.5777 23.4702H53.9207C54.517 23.4702 55.0021 23.9327 55.0021 24.5133C55.0021 25.0939 54.517 25.5662 53.9207 25.5662H35.5777C34.9814 25.5662 34.4963 25.1037 34.4963 24.5231ZM23.6117 24.533C23.6117 23.9524 24.0968 23.4801 24.6931 23.4801C25.2894 23.4801 25.7745 23.9524 25.7745 24.533C25.7745 25.1136 25.2894 25.5859 24.6931 25.5859C24.0968 25.5859 23.6117 25.1136 23.6117 24.533Z" fill="black"/>
</svg>
