<svg width="100" height="100" viewBox="0 0 100 100" fill="none" xmlns="http://www.w3.org/2000/svg">
<path fill-rule="evenodd" clip-rule="evenodd" d="M21.5596 23.3563H24.6784C25.5392 23.3563 26.2378 22.6577 26.2378 21.7969C26.2378 20.9362 25.5392 20.2375 24.6784 20.2375H21.5596C20.6988 20.2375 20.0002 20.9362 20.0002 21.7969C20.0002 22.6577 20.6988 23.3563 21.5596 23.3563Z" fill="black"/>
<path fill-rule="evenodd" clip-rule="evenodd" d="M31.1531 23.3563H34.2719C35.1327 23.3563 35.8313 22.6577 35.8313 21.7969C35.8313 20.9362 35.1327 20.2375 34.2719 20.2375H31.1531C30.2924 20.2375 29.5938 20.9362 29.5938 21.7969C29.5938 22.6577 30.2924 23.3563 31.1531 23.3563Z" fill="black"/>
<path fill-rule="evenodd" clip-rule="evenodd" d="M42.5096 23.3563H67.4598C68.3205 23.3563 69.0191 22.6577 69.0191 21.7969C69.0191 20.9362 68.3205 20.2375 67.4598 20.2375H42.5096C41.6488 20.2375 40.9502 20.9362 40.9502 21.7969C40.9502 22.6577 41.6488 23.3563 42.5096 23.3563Z" fill="black"/>
<path fill-rule="evenodd" clip-rule="evenodd" d="M41.8314 52.9846V40.5095C41.8314 37.9256 39.7372 35.8313 37.1533 35.8313H24.6782C22.0943 35.8313 20 37.9256 20 40.5095V52.9846C20 55.5685 22.0943 57.6627 24.6782 57.6627H37.1533C39.7372 57.6627 41.8314 55.5685 41.8314 52.9846ZM38.6144 53.5319L35.137 50.0545C34.8454 49.7629 34.4477 49.5976 34.0345 49.5976C33.6212 49.5976 33.2236 49.7629 32.932 50.0545L28.4425 54.5439H37.1533C37.8222 54.5439 38.393 54.1229 38.6144 53.5319ZM38.7126 49.2202V40.5095C38.7126 39.6487 38.014 38.9501 37.1533 38.9501H24.6782C23.8174 38.9501 23.1188 39.6487 23.1188 40.5095V52.9846C23.1188 53.6535 23.5398 54.2243 24.1308 54.4457L30.727 47.8495C31.6034 46.9716 32.7932 46.4788 34.0345 46.4788C35.2758 46.4788 36.4656 46.9731 37.3419 47.8495L38.7126 49.2202Z" fill="black"/>
<path d="M21.5594 45.1876C22.4206 45.1876 23.1188 44.4895 23.1188 43.6282C23.1188 42.767 22.4206 42.0688 21.5594 42.0688C20.6982 42.0688 20 42.767 20 43.6282C20 44.4895 20.6982 45.1876 21.5594 45.1876Z" fill="black"/>
<path fill-rule="evenodd" clip-rule="evenodd" d="M48.7471 38.9502H67.4598C68.3205 38.9502 69.0192 38.2516 69.0192 37.3908C69.0192 36.53 68.3205 35.8314 67.4598 35.8314H48.7471C47.8863 35.8314 47.1877 36.53 47.1877 37.3908C47.1877 38.2516 47.8863 38.9502 48.7471 38.9502Z" fill="black"/>
<path fill-rule="evenodd" clip-rule="evenodd" d="M48.7471 45.1877H64.341C65.2018 45.1877 65.9004 44.4891 65.9004 43.6283C65.9004 42.7676 65.2018 42.069 64.341 42.069H48.7471C47.8863 42.069 47.1877 42.7676 47.1877 43.6283C47.1877 44.4891 47.8863 45.1877 48.7471 45.1877Z" fill="black"/>
<path fill-rule="evenodd" clip-rule="evenodd" d="M48.7471 51.4253H58.1034C58.9642 51.4253 59.6628 50.7267 59.6628 49.8659C59.6628 49.0051 58.9642 48.3065 58.1034 48.3065H48.7471C47.8863 48.3065 47.1877 49.0051 47.1877 49.8659C47.1877 50.7267 47.8863 51.4253 48.7471 51.4253Z" fill="black"/>
<path fill-rule="evenodd" clip-rule="evenodd" d="M48.7471 57.6628H51.8659C52.7267 57.6628 53.4253 56.9642 53.4253 56.1034C53.4253 55.2427 52.7267 54.5441 51.8659 54.5441H48.7471C47.8863 54.5441 47.1877 55.2427 47.1877 56.1034C47.1877 56.9642 47.8863 57.6628 48.7471 57.6628Z" fill="black"/>
<path fill-rule="evenodd" clip-rule="evenodd" d="M21.5594 63.9003H43.3908C44.2516 63.9003 44.9502 63.2017 44.9502 62.3409C44.9502 61.4801 44.2516 60.7815 43.3908 60.7815H21.5594C20.6986 60.7815 20 61.4801 20 62.3409C20 63.2017 20.6986 63.9003 21.5594 63.9003Z" fill="black"/>
<path fill-rule="evenodd" clip-rule="evenodd" d="M21.5594 70.1378H40.272C41.1328 70.1378 41.8314 69.4392 41.8314 68.5784C41.8314 67.7176 41.1328 67.019 40.272 67.019H21.5594C20.6986 67.019 20 67.7176 20 68.5784C20 69.4392 20.6986 70.1378 21.5594 70.1378Z" fill="black"/>
<path fill-rule="evenodd" clip-rule="evenodd" d="M21.5594 76.3754H40.272C41.1328 76.3754 41.8314 75.6768 41.8314 74.816C41.8314 73.9552 41.1328 73.2566 40.272 73.2566H21.5594C20.6986 73.2566 20 73.9552 20 74.816C20 75.6768 20.6986 76.3754 21.5594 76.3754Z" fill="black"/>
<path fill-rule="evenodd" clip-rule="evenodd" d="M75.2567 56.749V77.9349C75.2567 82.2403 71.7652 85.7318 67.4598 85.7318C56.6594 85.7318 29.5972 85.7318 18.7969 85.7318C14.4915 85.7318 11 82.2403 11 77.9349C11 64.8875 11 24.9157 11 21.7969C11 17.4915 14.4915 14 18.7969 14C29.5972 14 56.6594 14 67.4598 14C71.7652 14 75.2567 17.4915 75.2567 21.7969V39.864L78.1868 36.9339C79.0632 36.056 80.253 35.5632 81.4942 35.5632C82.7355 35.5632 83.9253 36.0575 84.8017 36.9339C85.3958 37.5265 86.0367 38.1674 86.6293 38.7615C87.5057 39.6379 88 40.8277 88 42.069C88 43.3102 87.5072 44.5 86.6293 45.3764L75.2567 56.749ZM72.1379 42.9828V29.5939H14.1188C14.1188 29.5939 14.1188 64.8875 14.1188 77.9349C14.1188 80.5188 16.213 82.613 18.7969 82.613H67.4598C70.0437 82.613 72.1379 80.5188 72.1379 77.9349V59.8678L57.001 75.0048C56.123 75.8827 54.9332 76.3755 53.6935 76.3755H48.7471C47.8863 76.3755 47.1877 75.6769 47.1877 74.8161V69.8697C47.1877 68.63 47.6805 67.4402 48.5584 66.5622L72.1379 42.9828ZM50.4063 69.3239L54.2393 73.1569C54.0662 73.2224 53.8822 73.2567 53.6935 73.2567H50.3065V69.8697C50.3065 69.681 50.3408 69.497 50.4063 69.3239ZM52.5115 67.0191L56.5441 71.0517L79.2893 48.3065L75.2567 44.2739L52.5115 67.0191ZM81.4942 46.1015L77.4617 42.069L80.3918 39.1389C80.6834 38.8473 81.081 38.682 81.4942 38.682C81.9075 38.682 82.3051 38.8473 82.5967 39.1389L84.4243 40.9665C84.7159 41.2581 84.8812 41.6557 84.8812 42.069C84.8812 42.4822 84.7159 42.8798 84.4243 43.1714L81.4942 46.1015ZM72.1379 26.4751H14.1188V21.7969C14.1188 19.213 16.213 17.1188 18.7969 17.1188H67.4598C70.0437 17.1188 72.1379 19.213 72.1379 21.7969V26.4751Z" fill="black"/>
</svg>
