<svg width="100" height="100" viewBox="0 0 100 100" fill="none" xmlns="http://www.w3.org/2000/svg">
<path d="M31.4 58.6422C29.8573 58.6422 28.3493 59.1045 27.0666 59.9705C25.7838 60.8366 24.7841 62.0676 24.1937 63.5078C23.6034 64.948 23.4489 66.5328 23.7499 68.0617C24.0508 69.5906 24.7937 70.995 25.8846 72.0973C26.9754 73.1996 28.3652 73.9503 29.8783 74.2544C31.3913 74.5585 32.9597 74.4024 34.3849 73.8059C35.8102 73.2093 37.0284 72.1991 37.8855 70.9029C38.7425 69.6068 39.2 68.0829 39.2 66.524C39.1977 64.4343 38.3752 62.4309 36.9129 60.9533C35.4506 59.4756 33.468 58.6445 31.4 58.6422ZM31.4 71.7786C30.3715 71.7786 29.3662 71.4704 28.511 70.893C27.6559 70.3156 26.9894 69.495 26.5958 68.5349C26.2022 67.5747 26.0993 66.5182 26.2999 65.4989C26.5006 64.4796 26.9958 63.5434 27.723 62.8085C28.4503 62.0736 29.3768 61.5732 30.3855 61.3704C31.3942 61.1677 32.4398 61.2718 33.39 61.6695C34.3401 62.0672 35.1523 62.7407 35.7236 63.6048C36.295 64.4689 36.6 65.4848 36.6 66.524C36.5985 67.9172 36.0502 69.2528 35.0753 70.2379C34.1005 71.223 32.7787 71.7771 31.4 71.7786Z" fill="black"/>
<path d="M58.1346 37.2191L50.5953 40.1528L58.1428 43.149C59.7212 43.7756 58.9358 46.8776 57.1498 46.0947L48.2778 42.204C47.89 42.0266 47.5609 41.74 47.3302 41.3785C47.0995 41.017 46.9769 40.5958 46.9771 40.1656C46.9772 39.7355 47.1002 39.3145 47.3313 38.9531C47.5623 38.5918 47.8916 38.3055 48.2797 38.1285L57.151 34.2478C58.9451 33.4632 59.7167 36.6035 58.1346 37.2191ZM63.0493 47.2859L66.3903 33.3745C66.6542 32.3488 66.9291 30.9311 65.4153 30.9311C64.3475 30.9311 64.1797 32.0012 63.9853 32.8622L60.6443 46.7736C60.4753 47.572 60.0882 48.6988 61.032 49.1301C62.3774 49.7449 62.8283 48.2655 63.0493 47.2859ZM69.9003 46.1161L78.7844 42.2007C79.1687 42.0243 79.4945 41.7396 79.7227 41.3809C79.9509 41.0221 80.0719 40.6045 80.0711 40.178C80.0703 39.7515 79.9478 39.3343 79.7183 38.9764C79.4888 38.6185 79.162 38.335 78.7771 38.1601L69.8959 34.2848C68.1131 33.5069 67.3262 36.6008 68.9123 37.2195L76.4653 40.166L68.9042 43.1742C67.3254 43.803 68.1161 46.9024 69.9003 46.1161Z" fill="black"/>
<path d="M57.4 20.8818H26.2C25.863 20.87 25.5437 20.7265 25.3095 20.4814C25.0752 20.2363 24.9443 19.9089 24.9443 19.5682C24.9443 19.2275 25.0752 18.9 25.3095 18.655C25.5437 18.4099 25.863 18.2663 26.2 18.2545H57.4C57.737 18.2663 58.0563 18.4099 58.2905 18.655C58.5248 18.9 58.6557 19.2275 58.6557 19.5682C58.6557 19.9089 58.5248 20.2363 58.2905 20.4814C58.0563 20.7265 57.737 20.87 57.4 20.8818Z" fill="black"/>
<path d="M80.8 19.5682C80.8 19.9579 80.6856 20.3389 80.4714 20.6629C80.2571 20.9869 79.9525 21.2395 79.5962 21.3886C79.2399 21.5378 78.8478 21.5768 78.4696 21.5008C78.0913 21.4247 77.7439 21.2371 77.4711 20.9615C77.1984 20.6859 77.0127 20.3348 76.9375 19.9526C76.8622 19.5704 76.9008 19.1742 77.0484 18.8141C77.196 18.4541 77.446 18.1463 77.7666 17.9298C78.0873 17.7133 78.4643 17.5977 78.85 17.5977C79.3672 17.5977 79.8632 17.8053 80.2289 18.1749C80.5946 18.5444 80.8 19.0456 80.8 19.5682Z" fill="black"/>
<path d="M75.6 19.5682C75.6 19.9579 75.4856 20.3389 75.2714 20.6629C75.0571 20.9869 74.7525 21.2395 74.3962 21.3886C74.0399 21.5378 73.6478 21.5768 73.2696 21.5008C72.8913 21.4247 72.5438 21.2371 72.2711 20.9615C71.9984 20.6859 71.8127 20.3348 71.7375 19.9526C71.6622 19.5704 71.7008 19.1742 71.8484 18.8141C71.996 18.4541 72.246 18.1463 72.5666 17.9298C72.8873 17.7133 73.2643 17.5977 73.65 17.5977C74.1672 17.5977 74.6632 17.8053 75.0289 18.1749C75.3946 18.5444 75.6 19.0456 75.6 19.5682Z" fill="black"/>
<path d="M82.1 13H11.9C10.866 13.0011 9.87468 13.4167 9.14354 14.1555C8.41239 14.8943 8.00114 15.8961 8 16.9409V71.7786C8.00114 72.8234 8.41239 73.8251 9.14354 74.564C9.87468 75.3028 10.866 75.7183 11.9 75.7195H15.07C15.1256 74.889 15.3572 74.0802 15.7492 73.3481C15.7128 73.2632 15.6775 73.1773 15.6423 73.0922H11.9C11.5553 73.0919 11.2249 72.9533 10.9811 72.7071C10.7374 72.4608 10.6003 72.1269 10.6 71.7786V26.1364H83.4V71.7786C83.3997 72.1269 83.2626 72.4608 83.0189 72.7071C82.7751 72.9533 82.4447 73.0919 82.1 73.0922H47.157C47.1219 73.1779 47.0868 73.263 47.0507 73.3481C47.4427 74.0802 47.6742 74.889 47.7296 75.7195H82.1C83.134 75.7183 84.1253 75.3028 84.8565 74.564C85.5876 73.8251 85.9989 72.8234 86 71.7786V16.9409C85.9989 15.8961 85.5876 14.8943 84.8565 14.1555C84.1253 13.4167 83.134 13.0011 82.1 13ZM10.6 23.5091V16.9409C10.6003 16.5926 10.7374 16.2587 10.9811 16.0124C11.2249 15.7661 11.5553 15.6276 11.9 15.6273H82.1C82.4447 15.6276 82.7751 15.7661 83.0189 16.0124C83.2626 16.2587 83.3997 16.5926 83.4 16.9409V23.5091H10.6Z" fill="black"/>
<path d="M46.7016 62.5793L45.2586 62.4042C44.9629 61.3907 44.5603 60.4123 44.0577 59.4857L44.4398 58.9263C46.981 55.8309 41.9685 50.7949 38.9185 53.3472L38.365 53.7339C37.448 53.226 36.4797 52.8189 35.4768 52.5197L35.3117 51.1311C35.0421 47.0742 27.7613 46.9901 27.4952 51.0625L27.3225 52.5207C26.32 52.8194 25.3521 53.2262 24.4356 53.7342C22.4611 52.3549 20.8235 52.3189 19.0833 54.0773C17.3431 55.8358 17.3788 57.4891 18.7431 59.4858C18.2405 60.4126 17.8378 61.3912 17.542 62.4049L16.1684 62.5722C12.1532 62.8399 12.0676 70.2062 16.0986 70.4687L17.5416 70.6438C17.8374 71.6573 18.24 72.6358 18.7425 73.5624L18.3605 74.1217C15.8255 77.2095 20.8231 82.2607 23.8817 79.7008L24.4352 79.3141C25.3522 79.822 26.3205 80.2291 27.3235 80.5283L27.4886 81.917C27.7582 85.9739 35.039 86.0579 35.3051 81.9855L35.4777 80.5274C36.4803 80.2287 37.4482 79.8218 38.3646 79.3139L38.9182 79.7006C41.9752 82.2582 46.9762 77.2118 44.4394 74.1214L44.0573 73.5621C44.5599 72.6353 44.9625 71.6566 45.2583 70.6429L46.6318 70.4756C50.9 70.4758 50.9 62.5793 46.7016 62.5793ZM47 66.524C47 69.1513 43.1 66.524 42.9578 69.1544C42.7644 70.5212 42.234 71.8169 41.4153 72.9222C41.28 73.1399 41.2109 73.3929 41.2166 73.6499C41.2222 73.9069 41.3024 74.1566 41.447 74.368L42.3382 75.6694C42.9398 76.5536 41.3193 78.186 40.4505 77.577L39.1635 76.677C38.9538 76.532 38.7069 76.4518 38.4529 76.446C38.1989 76.4402 37.9487 76.5091 37.7327 76.6443C36.585 77.372 35.324 77.8989 34.0029 78.2029C32.8537 78.4684 32.9369 79.8691 32.8287 80.7908C32.696 81.9154 32.596 82.2877 31.4 82.2877C30.2797 82.2877 30.1092 81.9432 29.982 80.8689C29.8713 79.9362 29.9625 78.4719 28.7975 78.2022C27.4764 77.8983 26.2154 77.3714 25.0677 76.6436C23.8252 75.8579 22.2405 78.4407 21.4445 77.6411L20.3984 76.5827C19.626 75.8046 22.1498 74.1524 21.3848 72.9214C20.6647 71.762 20.1433 70.4883 19.8423 69.1537C19.3399 66.9263 15.67 69.1941 15.7197 66.524C15.7689 63.8686 19.3409 66.1176 19.8421 63.8939C20.143 62.5593 20.6645 61.2855 21.3845 60.1261C22.1973 58.8189 20.3383 58.0743 20.3315 56.9133C20.3529 56.6659 20.431 56.427 20.5597 56.2154C20.6884 56.0039 20.8641 55.8256 21.073 55.6947C21.2818 55.5638 21.518 55.4839 21.7627 55.4614C22.0074 55.4388 22.254 55.4743 22.4828 55.5649C23.2652 56.0268 24.0754 57.0313 25.0669 56.4039C26.2146 55.6762 27.4756 55.1492 28.7967 54.8453C31.0009 54.336 28.7578 50.6305 31.3999 50.6795C34.0268 50.7282 31.802 54.337 34.0018 54.8453C35.323 55.1492 36.5839 55.6762 37.7316 56.4039C38.6312 56.9745 39.4636 56.1496 40.1716 55.6656C40.948 55.1349 41.2392 55.2894 41.8779 55.9356C42.4751 56.5399 42.6978 56.8111 42.1948 57.587C41.7138 58.3293 40.8254 59.1784 41.4148 60.126C42.2335 61.2313 42.7639 62.527 42.9573 63.8937C43.1 66.524 47 63.8968 47 66.524Z" fill="black"/>
</svg>
