<svg width="110" height="110" viewBox="0 0 110 110" fill="none" xmlns="http://www.w3.org/2000/svg">
<rect width="110" height="110" fill="white"/>
<path d="M36.4 63.6422C34.8573 63.6422 33.3493 64.1045 32.0666 64.9705C30.7838 65.8366 29.7841 67.0676 29.1937 68.5078C28.6034 69.948 28.4489 71.5328 28.7499 73.0617C29.0508 74.5906 29.7937 75.995 30.8846 77.0973C31.9754 78.1996 33.3652 78.9503 34.8783 79.2544C36.3913 79.5585 37.9597 79.4024 39.3849 78.8059C40.8102 78.2093 42.0284 77.1991 42.8855 75.9029C43.7425 74.6068 44.2 73.0829 44.2 71.524C44.1977 69.4343 43.3752 67.4309 41.9129 65.9533C40.4506 64.4756 38.468 63.6445 36.4 63.6422ZM36.4 76.7786C35.3715 76.7786 34.3662 76.4704 33.511 75.893C32.6559 75.3156 31.9894 74.495 31.5958 73.5349C31.2022 72.5747 31.0993 71.5182 31.2999 70.4989C31.5006 69.4796 31.9958 68.5434 32.723 67.8085C33.4503 67.0736 34.3768 66.5732 35.3855 66.3704C36.3942 66.1677 37.4398 66.2718 38.39 66.6695C39.3401 67.0672 40.1523 67.7407 40.7236 68.6048C41.295 69.4689 41.6 70.4848 41.6 71.524C41.5985 72.9172 41.0502 74.2528 40.0753 75.2379C39.1005 76.223 37.7787 76.7771 36.4 76.7786Z" fill="black"/>
<path d="M63.1346 42.2191L55.5953 45.1528L63.1428 48.149C64.7212 48.7756 63.9358 51.8776 62.1498 51.0947L53.2778 47.204C52.89 47.0266 52.5609 46.74 52.3302 46.3785C52.0995 46.017 51.9769 45.5958 51.9771 45.1656C51.9772 44.7355 52.1002 44.3145 52.3313 43.9531C52.5623 43.5918 52.8916 43.3055 53.2797 43.1285L62.151 39.2478C63.9451 38.4632 64.7167 41.6035 63.1346 42.2191ZM68.0493 52.2859L71.3903 38.3745C71.6542 37.3488 71.9291 35.9311 70.4153 35.9311C69.3475 35.9311 69.1797 37.0012 68.9853 37.8622L65.6443 51.7736C65.4753 52.572 65.0882 53.6988 66.032 54.1301C67.3774 54.7449 67.8283 53.2655 68.0493 52.2859ZM74.9003 51.1161L83.7844 47.2007C84.1687 47.0243 84.4945 46.7396 84.7227 46.3809C84.9509 46.0221 85.0719 45.6045 85.0711 45.178C85.0703 44.7515 84.9478 44.3343 84.7183 43.9764C84.4888 43.6185 84.162 43.335 83.7771 43.1601L74.8959 39.2848C73.1131 38.5069 72.3262 41.6008 73.9123 42.2195L81.4653 45.166L73.9042 48.1742C72.3254 48.803 73.1161 51.9024 74.9003 51.1161Z" fill="black"/>
<path d="M62.4 25.8818H31.2C30.863 25.87 30.5437 25.7265 30.3095 25.4814C30.0752 25.2363 29.9443 24.9089 29.9443 24.5682C29.9443 24.2275 30.0752 23.9 30.3095 23.655C30.5437 23.4099 30.863 23.2663 31.2 23.2545H62.4C62.737 23.2663 63.0563 23.4099 63.2905 23.655C63.5248 23.9 63.6557 24.2275 63.6557 24.5682C63.6557 24.9089 63.5248 25.2363 63.2905 25.4814C63.0563 25.7265 62.737 25.87 62.4 25.8818Z" fill="black"/>
<path d="M85.8 24.5682C85.8 24.9579 85.6856 25.3389 85.4714 25.6629C85.2571 25.9869 84.9525 26.2395 84.5962 26.3886C84.2399 26.5378 83.8478 26.5768 83.4696 26.5008C83.0913 26.4247 82.7439 26.2371 82.4711 25.9615C82.1984 25.6859 82.0127 25.3348 81.9375 24.9526C81.8622 24.5704 81.9008 24.1742 82.0484 23.8141C82.196 23.4541 82.446 23.1463 82.7666 22.9298C83.0873 22.7133 83.4643 22.5977 83.85 22.5977C84.3672 22.5977 84.8632 22.8053 85.2289 23.1749C85.5946 23.5444 85.8 24.0456 85.8 24.5682Z" fill="black"/>
<path d="M80.6 24.5682C80.6 24.9579 80.4856 25.3389 80.2714 25.6629C80.0571 25.9869 79.7525 26.2395 79.3962 26.3886C79.0399 26.5378 78.6478 26.5768 78.2696 26.5008C77.8913 26.4247 77.5438 26.2371 77.2711 25.9615C76.9984 25.6859 76.8127 25.3348 76.7375 24.9526C76.6622 24.5704 76.7008 24.1742 76.8484 23.8141C76.996 23.4541 77.246 23.1463 77.5666 22.9298C77.8873 22.7133 78.2643 22.5977 78.65 22.5977C79.1672 22.5977 79.6632 22.8053 80.0289 23.1749C80.3946 23.5444 80.6 24.0456 80.6 24.5682Z" fill="black"/>
<path d="M87.1 18H16.9C15.866 18.0011 14.8747 18.4167 14.1435 19.1555C13.4124 19.8943 13.0011 20.8961 13 21.9409V76.7786C13.0011 77.8234 13.4124 78.8251 14.1435 79.564C14.8747 80.3028 15.866 80.7183 16.9 80.7195H20.07C20.1256 79.889 20.3572 79.0802 20.7492 78.3481C20.7128 78.2632 20.6775 78.1773 20.6423 78.0922H16.9C16.5553 78.0919 16.2249 77.9533 15.9811 77.7071C15.7374 77.4608 15.6003 77.1269 15.6 76.7786V31.1364H88.4V76.7786C88.3997 77.1269 88.2626 77.4608 88.0189 77.7071C87.7751 77.9533 87.4447 78.0919 87.1 78.0922H52.157C52.1219 78.1779 52.0868 78.263 52.0507 78.3481C52.4427 79.0802 52.6742 79.889 52.7296 80.7195H87.1C88.134 80.7183 89.1253 80.3028 89.8565 79.564C90.5876 78.8251 90.9989 77.8234 91 76.7786V21.9409C90.9989 20.8961 90.5876 19.8943 89.8565 19.1555C89.1253 18.4167 88.134 18.0011 87.1 18ZM15.6 28.5091V21.9409C15.6003 21.5926 15.7374 21.2587 15.9811 21.0124C16.2249 20.7661 16.5553 20.6276 16.9 20.6273H87.1C87.4447 20.6276 87.7751 20.7661 88.0189 21.0124C88.2626 21.2587 88.3997 21.5926 88.4 21.9409V28.5091H15.6Z" fill="black"/>
<path d="M51.7016 67.5793L50.2586 67.4042C49.9629 66.3907 49.5603 65.4123 49.0577 64.4857L49.4398 63.9263C51.981 60.8309 46.9685 55.7949 43.9185 58.3472L43.365 58.7339C42.448 58.226 41.4797 57.8189 40.4768 57.5197L40.3117 56.1311C40.0421 52.0742 32.7613 51.9901 32.4952 56.0625L32.3225 57.5207C31.32 57.8194 30.3521 58.2262 29.4356 58.7342C27.4611 57.3549 25.8235 57.3189 24.0833 59.0773C22.3431 60.8358 22.3788 62.4891 23.7431 64.4858C23.2405 65.4126 22.8378 66.3912 22.542 67.4049L21.1684 67.5722C17.1532 67.8399 17.0676 75.2062 21.0986 75.4687L22.5416 75.6438C22.8374 76.6573 23.24 77.6358 23.7425 78.5624L23.3605 79.1217C20.8255 82.2095 25.8231 87.2607 28.8817 84.7008L29.4352 84.3141C30.3522 84.822 31.3205 85.2291 32.3235 85.5283L32.4886 86.917C32.7582 90.9739 40.039 91.0579 40.3051 86.9855L40.4777 85.5274C41.4803 85.2287 42.4482 84.8218 43.3646 84.3139L43.9182 84.7006C46.9752 87.2582 51.9762 82.2118 49.4394 79.1214L49.0573 78.5621C49.5599 77.6353 49.9625 76.6566 50.2583 75.6429L51.6318 75.4756C55.9 75.4758 55.9 67.5793 51.7016 67.5793ZM52 71.524C52 74.1513 48.1 71.524 47.9578 74.1544C47.7644 75.5212 47.234 76.8169 46.4153 77.9222C46.28 78.1399 46.2109 78.3929 46.2166 78.6499C46.2222 78.9069 46.3024 79.1566 46.447 79.368L47.3382 80.6694C47.9398 81.5536 46.3193 83.186 45.4505 82.577L44.1635 81.677C43.9538 81.532 43.7069 81.4518 43.4529 81.446C43.1989 81.4402 42.9487 81.5091 42.7327 81.6443C41.585 82.372 40.324 82.8989 39.0029 83.2029C37.8537 83.4684 37.9369 84.8691 37.8287 85.7908C37.696 86.9154 37.596 87.2877 36.4 87.2877C35.2797 87.2877 35.1092 86.9432 34.982 85.8689C34.8713 84.9362 34.9625 83.4719 33.7975 83.2022C32.4764 82.8983 31.2154 82.3714 30.0677 81.6436C28.8252 80.8579 27.2405 83.4407 26.4445 82.6411L25.3984 81.5827C24.626 80.8046 27.1498 79.1524 26.3848 77.9214C25.6647 76.762 25.1433 75.4883 24.8423 74.1537C24.3399 71.9263 20.67 74.1941 20.7197 71.524C20.7689 68.8686 24.3409 71.1176 24.8421 68.8939C25.143 67.5593 25.6645 66.2855 26.3845 65.1261C27.1973 63.8189 25.3383 63.0743 25.3315 61.9133C25.3529 61.6659 25.431 61.427 25.5597 61.2154C25.6884 61.0039 25.8641 60.8256 26.073 60.6947C26.2818 60.5638 26.518 60.4839 26.7627 60.4614C27.0074 60.4388 27.254 60.4743 27.4828 60.5649C28.2652 61.0268 29.0754 62.0313 30.0669 61.4039C31.2146 60.6762 32.4756 60.1492 33.7967 59.8453C36.0009 59.336 33.7578 55.6305 36.3999 55.6795C39.0268 55.7282 36.802 59.337 39.0018 59.8453C40.323 60.1492 41.5839 60.6762 42.7316 61.4039C43.6312 61.9745 44.4636 61.1496 45.1716 60.6656C45.948 60.1349 46.2392 60.2894 46.8779 60.9356C47.4751 61.5399 47.6978 61.8111 47.1948 62.587C46.7138 63.3293 45.8254 64.1784 46.4148 65.126C47.2335 66.2313 47.7639 67.527 47.9573 68.8937C48.1 71.524 52 68.8968 52 71.524Z" fill="black"/>
</svg>
