<svg width="100" height="100" viewBox="0 0 100 100" fill="none" xmlns="http://www.w3.org/2000/svg">
<path d="M54.0489 73.5799C54.0489 74.2417 53.531 74.7743 52.8874 74.7743H49.1047C48.4612 74.7743 47.9432 74.2417 47.9432 73.5799C47.9432 72.9182 48.4612 72.3856 49.1047 72.3856H52.8874C53.531 72.3856 54.0489 72.9182 54.0489 73.5799ZM73.4726 48.031V70.0292C73.4726 70.0292 73.4726 70.0615 73.4726 70.0857C73.4726 70.1019 73.4726 70.118 73.4726 70.1422V75.0567C73.4726 76.8563 72.0443 78.325 70.2942 78.325H58.8833V80.7136H66.5664C67.6573 80.7136 68.5519 81.6255 68.5519 82.7553V84.9583C68.5519 86.08 67.6651 87 66.5664 87H35.4336C34.3427 87 33.4481 86.0881 33.4481 84.9583V82.7553C33.4481 81.6336 34.3349 80.7136 35.4336 80.7136H43.1167V78.325H31.7058C29.9557 78.325 28.5274 76.8563 28.5274 75.0567V70.3197C28.5274 70.2713 28.5274 70.2229 28.5353 70.1745C28.5353 70.1261 28.5274 70.0776 28.5274 70.0292V48.031C28.5274 46.2314 29.9557 44.7627 31.7058 44.7627H38.8632V41.3008H38.8239C38.1804 41.3008 37.6624 40.7682 37.6624 40.1064V34.853C37.6624 34.1913 38.1804 33.6587 38.8239 33.6587H63.1682C63.8118 33.6587 64.3297 34.1913 64.3297 34.853V40.1064C64.3297 40.7682 63.8118 41.3008 63.1682 41.3008H63.129V44.7627H70.2863C72.0364 44.7627 73.4647 46.2314 73.4647 48.031H73.4726ZM60.8139 41.2927H54.2844V56.2218H60.8139V41.2927ZM51.9614 56.2218V41.2927H50.0386V56.2218H51.9614ZM39.9854 38.904H62.0067V36.0393H39.9854V38.904ZM41.1861 41.2927V56.2218H47.7156V41.2927H41.1861ZM30.8504 68.8268H71.1496V48.0229C71.1496 47.5387 70.765 47.1433 70.2942 47.1433H63.1368V57.4161C63.1368 58.0779 62.6189 58.6105 61.9754 58.6105H40.0246C39.3811 58.6105 38.8632 58.0779 38.8632 57.4161V47.1433H31.7058C31.2349 47.1433 30.8504 47.5387 30.8504 48.0229V68.8268ZM66.2289 83.0942H35.7711V84.6033H66.2211V83.0942H66.2289ZM56.5603 78.3169H45.4476V80.7056H56.5603V78.3169ZM71.1496 75.0486V71.2155H30.8426V75.0486C30.8426 75.5328 31.2271 75.9282 31.698 75.9282H70.2785C70.7494 75.9282 71.1339 75.5328 71.1339 75.0486H71.1496ZM26.173 41.1878C25.7414 42.7614 24.3288 43.9234 22.6571 43.9234C20.6402 43.9234 19 42.2369 19 40.1629C19 38.089 20.6402 36.4024 22.6571 36.4024C24.2032 36.4024 25.5295 37.395 26.0632 38.7991H34.6959C35.3394 38.7991 35.8574 39.3317 35.8574 39.9935C35.8574 40.6552 35.3394 41.1878 34.6959 41.1878H26.173ZM23.9913 40.1629C23.9913 39.4044 23.3949 38.7911 22.6571 38.7911C21.9194 38.7911 21.323 39.4044 21.323 40.1629C21.323 40.9215 21.9194 41.5348 22.6571 41.5348C23.3949 41.5348 23.9913 40.9215 23.9913 40.1629ZM63.0505 30.5437L67.5945 22.4578C67.1236 21.8203 66.8411 21.0294 66.8411 20.174C66.8411 18.1001 68.4813 16.4135 70.4982 16.4135C72.5151 16.4135 74.1554 18.1001 74.1554 20.174C74.1554 22.248 72.5151 23.9346 70.4982 23.9346C70.1608 23.9346 69.839 23.8862 69.5329 23.7974L65.0753 31.7381C64.8634 32.1173 64.471 32.3352 64.0708 32.3352C63.8746 32.3352 63.6705 32.2868 63.49 32.1738C62.9328 31.843 62.7444 31.1167 63.0662 30.5437H63.0505ZM69.1562 20.174C69.1562 20.9326 69.7527 21.5459 70.4904 21.5459C71.2281 21.5459 71.8245 20.9326 71.8245 20.174C71.8245 19.4155 71.2281 18.8022 70.4904 18.8022C69.7527 18.8022 69.1562 19.4155 69.1562 20.174ZM82.9921 40.0499C82.9921 42.1239 81.3519 43.8105 79.335 43.8105C77.7419 43.8105 76.392 42.7614 75.8898 41.3008H67.2649C66.6213 41.3008 66.1034 40.7682 66.1034 40.1064C66.1034 39.4447 66.6213 38.9121 67.2649 38.9121H75.8584C76.3292 37.395 77.7105 36.2894 79.3429 36.2894C81.3598 36.2894 83 37.976 83 40.0499H82.9921ZM80.6692 40.0499C80.6692 39.2914 80.0727 38.6781 79.335 38.6781C78.5973 38.6781 78.0009 39.2914 78.0009 40.0499C78.0009 40.8085 78.5973 41.4218 79.335 41.4218C80.0727 41.4218 80.6692 40.8085 80.6692 40.0499ZM47.3389 16.7605C47.3389 14.6866 48.9792 13 50.9961 13C53.013 13 54.6532 14.6866 54.6532 16.7605C54.6532 18.4148 53.6094 19.827 52.1576 20.3274V30.6164C52.1576 31.2781 51.6396 31.8107 50.9961 31.8107C50.3525 31.8107 49.8346 31.2781 49.8346 30.6164V20.3193C48.3827 19.819 47.3389 18.4148 47.3389 16.7525V16.7605ZM49.6619 16.7605C49.6619 17.5191 50.2584 18.1324 50.9961 18.1324C51.7338 18.1324 52.3302 17.5191 52.3302 16.7605C52.3302 16.002 51.7338 15.3887 50.9961 15.3887C50.2584 15.3887 49.6619 16.002 49.6619 16.7605ZM28.0251 20.174C28.0251 18.1001 29.6654 16.4135 31.6823 16.4135C33.6992 16.4135 35.3394 18.1001 35.3394 20.174C35.3394 21.094 35.0177 21.9413 34.4761 22.595L38.8945 30.463C39.2163 31.036 39.028 31.7623 38.4708 32.0931C38.2903 32.198 38.0862 32.2545 37.89 32.2545C37.4898 32.2545 37.0974 32.0366 36.8855 31.6574L32.4985 23.8377C32.2395 23.9023 31.9648 23.9346 31.6823 23.9346C29.6654 23.9346 28.0251 22.248 28.0251 20.174ZM30.3481 20.174C30.3481 20.9326 30.9446 21.5459 31.6823 21.5459C32.42 21.5459 33.0164 20.9326 33.0164 20.174C33.0164 19.4155 32.42 18.8022 31.6823 18.8022C30.9446 18.8022 30.3481 19.4155 30.3481 20.174Z" fill="black"/>
</svg>
