<svg width="110" height="110" viewBox="0 0 110 110" fill="none" xmlns="http://www.w3.org/2000/svg">
<rect width="110" height="110" fill="white"/>
<path d="M58.0489 78.5799C58.0489 79.2417 57.531 79.7743 56.8874 79.7743H53.1047C52.4612 79.7743 51.9432 79.2417 51.9432 78.5799C51.9432 77.9182 52.4612 77.3856 53.1047 77.3856H56.8874C57.531 77.3856 58.0489 77.9182 58.0489 78.5799ZM77.4726 53.031V75.0292C77.4726 75.0292 77.4726 75.0615 77.4726 75.0857C77.4726 75.1019 77.4726 75.118 77.4726 75.1422V80.0567C77.4726 81.8563 76.0443 83.325 74.2942 83.325H62.8833V85.7136H70.5664C71.6573 85.7136 72.5519 86.6255 72.5519 87.7553V89.9583C72.5519 91.08 71.6651 92 70.5664 92H39.4336C38.3427 92 37.4481 91.0881 37.4481 89.9583V87.7553C37.4481 86.6336 38.3349 85.7136 39.4336 85.7136H47.1167V83.325H35.7058C33.9557 83.325 32.5274 81.8563 32.5274 80.0567V75.3197C32.5274 75.2713 32.5274 75.2229 32.5353 75.1745C32.5353 75.1261 32.5274 75.0776 32.5274 75.0292V53.031C32.5274 51.2314 33.9557 49.7627 35.7058 49.7627H42.8632V46.3008H42.8239C42.1804 46.3008 41.6624 45.7682 41.6624 45.1064V39.853C41.6624 39.1913 42.1804 38.6587 42.8239 38.6587H67.1682C67.8118 38.6587 68.3297 39.1913 68.3297 39.853V45.1064C68.3297 45.7682 67.8118 46.3008 67.1682 46.3008H67.129V49.7627H74.2863C76.0364 49.7627 77.4647 51.2314 77.4647 53.031H77.4726ZM64.8139 46.2927H58.2844V61.2218H64.8139V46.2927ZM55.9614 61.2218V46.2927H54.0386V61.2218H55.9614ZM43.9854 43.904H66.0067V41.0393H43.9854V43.904ZM45.1861 46.2927V61.2218H51.7156V46.2927H45.1861ZM34.8504 73.8268H75.1496V53.0229C75.1496 52.5387 74.765 52.1433 74.2942 52.1433H67.1368V62.4161C67.1368 63.0779 66.6189 63.6105 65.9754 63.6105H44.0246C43.3811 63.6105 42.8632 63.0779 42.8632 62.4161V52.1433H35.7058C35.2349 52.1433 34.8504 52.5387 34.8504 53.0229V73.8268ZM70.2289 88.0942H39.7711V89.6033H70.2211V88.0942H70.2289ZM60.5603 83.3169H49.4476V85.7056H60.5603V83.3169ZM75.1496 80.0486V76.2155H34.8426V80.0486C34.8426 80.5328 35.2271 80.9282 35.698 80.9282H74.2785C74.7494 80.9282 75.1339 80.5328 75.1339 80.0486H75.1496ZM30.173 46.1878C29.7414 47.7614 28.3288 48.9234 26.6571 48.9234C24.6402 48.9234 23 47.2369 23 45.1629C23 43.089 24.6402 41.4024 26.6571 41.4024C28.2032 41.4024 29.5295 42.395 30.0632 43.7991H38.6959C39.3394 43.7991 39.8574 44.3317 39.8574 44.9935C39.8574 45.6552 39.3394 46.1878 38.6959 46.1878H30.173ZM27.9913 45.1629C27.9913 44.4044 27.3949 43.7911 26.6571 43.7911C25.9194 43.7911 25.323 44.4044 25.323 45.1629C25.323 45.9215 25.9194 46.5348 26.6571 46.5348C27.3949 46.5348 27.9913 45.9215 27.9913 45.1629ZM67.0505 35.5437L71.5945 27.4578C71.1236 26.8203 70.8411 26.0294 70.8411 25.174C70.8411 23.1001 72.4813 21.4135 74.4982 21.4135C76.5151 21.4135 78.1554 23.1001 78.1554 25.174C78.1554 27.248 76.5151 28.9346 74.4982 28.9346C74.1608 28.9346 73.839 28.8862 73.5329 28.7974L69.0753 36.7381C68.8634 37.1173 68.471 37.3352 68.0708 37.3352C67.8746 37.3352 67.6705 37.2868 67.49 37.1738C66.9328 36.843 66.7444 36.1167 67.0662 35.5437H67.0505ZM73.1562 25.174C73.1562 25.9326 73.7527 26.5459 74.4904 26.5459C75.2281 26.5459 75.8245 25.9326 75.8245 25.174C75.8245 24.4155 75.2281 23.8022 74.4904 23.8022C73.7527 23.8022 73.1562 24.4155 73.1562 25.174ZM86.9921 45.0499C86.9921 47.1239 85.3519 48.8105 83.335 48.8105C81.7419 48.8105 80.392 47.7614 79.8898 46.3008H71.2649C70.6213 46.3008 70.1034 45.7682 70.1034 45.1064C70.1034 44.4447 70.6213 43.9121 71.2649 43.9121H79.8584C80.3292 42.395 81.7105 41.2894 83.3429 41.2894C85.3598 41.2894 87 42.976 87 45.0499H86.9921ZM84.6692 45.0499C84.6692 44.2914 84.0727 43.6781 83.335 43.6781C82.5973 43.6781 82.0009 44.2914 82.0009 45.0499C82.0009 45.8085 82.5973 46.4218 83.335 46.4218C84.0727 46.4218 84.6692 45.8085 84.6692 45.0499ZM51.3389 21.7605C51.3389 19.6866 52.9792 18 54.9961 18C57.013 18 58.6532 19.6866 58.6532 21.7605C58.6532 23.4148 57.6094 24.827 56.1576 25.3274V35.6164C56.1576 36.2781 55.6396 36.8107 54.9961 36.8107C54.3525 36.8107 53.8346 36.2781 53.8346 35.6164V25.3193C52.3827 24.819 51.3389 23.4148 51.3389 21.7525V21.7605ZM53.6619 21.7605C53.6619 22.5191 54.2584 23.1324 54.9961 23.1324C55.7338 23.1324 56.3302 22.5191 56.3302 21.7605C56.3302 21.002 55.7338 20.3887 54.9961 20.3887C54.2584 20.3887 53.6619 21.002 53.6619 21.7605ZM32.0251 25.174C32.0251 23.1001 33.6654 21.4135 35.6823 21.4135C37.6992 21.4135 39.3394 23.1001 39.3394 25.174C39.3394 26.094 39.0177 26.9413 38.4761 27.595L42.8945 35.463C43.2163 36.036 43.028 36.7623 42.4708 37.0931C42.2903 37.198 42.0862 37.2545 41.89 37.2545C41.4898 37.2545 41.0974 37.0366 40.8855 36.6574L36.4985 28.8377C36.2395 28.9023 35.9648 28.9346 35.6823 28.9346C33.6654 28.9346 32.0251 27.248 32.0251 25.174ZM34.3481 25.174C34.3481 25.9326 34.9446 26.5459 35.6823 26.5459C36.42 26.5459 37.0164 25.9326 37.0164 25.174C37.0164 24.4155 36.42 23.8022 35.6823 23.8022C34.9446 23.8022 34.3481 24.4155 34.3481 25.174Z" fill="black"/>
</svg>
