<svg width="110" height="110" viewBox="0 0 110 110" fill="none" xmlns="http://www.w3.org/2000/svg">
<rect width="110" height="110" fill="white"/>
<path d="M50.5 77.5H24.625C23.1337 77.4982 21.704 76.905 20.6495 75.8505C19.595 74.796 19.0018 73.3663 19 71.875V24.625C19.0018 23.1337 19.595 21.704 20.6495 20.6495C21.704 19.595 23.1337 19.0018 24.625 19H26.875V21.25H24.625C23.7299 21.25 22.8714 21.6056 22.2385 22.2385C21.6056 22.8714 21.25 23.7299 21.25 24.625V71.875C21.25 72.7701 21.6056 73.6285 22.2385 74.2615C22.8714 74.8944 23.7299 75.25 24.625 75.25H50.5V77.5Z" fill="black"/>
<path d="M31.3761 19H29.125V21.25H31.3761V19Z" fill="black"/>
<path d="M85.375 77.5V75.25C86.2701 75.25 87.1285 74.8944 87.7615 74.2615C88.3944 73.6285 88.75 72.7701 88.75 71.875V24.625C88.75 23.7299 88.3944 22.8714 87.7615 22.2385C87.1285 21.6056 86.2701 21.25 85.375 21.25H33.625V19H85.375C86.8663 19.0018 88.296 19.595 89.3505 20.6495C90.405 21.704 90.9982 23.1337 91 24.625V71.875C90.9982 73.3663 90.405 74.796 89.3505 75.8505C88.296 76.905 86.8663 77.4982 85.375 77.5Z" fill="black"/>
<path d="M41.5341 76.1028L40.4086 80.6025L42.5914 81.1485L43.7169 76.6488L41.5341 76.1028Z" fill="black"/>
<path d="M50.5 86.5H39.25C38.9516 86.5 38.6655 86.3815 38.4545 86.1705C38.2435 85.9595 38.125 85.6734 38.125 85.375V83.125C38.125 82.2299 38.4806 81.3715 39.1135 80.7385C39.7464 80.1056 40.6049 79.75 41.5 79.75H50.5V82H41.5C41.2016 82 40.9155 82.1185 40.7045 82.3295C40.4935 82.5405 40.375 82.8266 40.375 83.125V84.25H50.5V86.5Z" fill="black"/>
<path d="M50.5 66.25H20.125V68.5H50.5V66.25Z" fill="black"/>
<path d="M25.75 70.75H23.5V73H25.75V70.75Z" fill="black"/>
<path d="M34.75 70.75H28V73H34.75V70.75Z" fill="black"/>
<path d="M80.875 91H58.375C56.8837 90.9982 55.454 90.405 54.3995 89.3505C53.345 88.296 52.7518 86.8663 52.75 85.375V40.375C52.7518 38.8837 53.345 37.454 54.3995 36.3995C55.454 35.345 56.8837 34.7518 58.375 34.75H80.875C82.3663 34.7518 83.796 35.345 84.8505 36.3995C85.905 37.454 86.4982 38.8837 86.5 40.375V85.375C86.4982 86.8663 85.905 88.296 84.8505 89.3505C83.796 90.405 82.3663 90.9982 80.875 91ZM58.375 37C57.4799 37 56.6215 37.3556 55.9885 37.9885C55.3556 38.6214 55 39.4799 55 40.375V85.375C55 86.2701 55.3556 87.1285 55.9885 87.7615C56.6215 88.3944 57.4799 88.75 58.375 88.75H80.875C81.7701 88.75 82.6285 88.3944 83.2615 87.7615C83.8944 87.1285 84.25 86.2701 84.25 85.375V40.375C84.25 39.4799 83.8944 38.6214 83.2615 37.9885C82.6285 37.3556 81.7701 37 80.875 37H58.375Z" fill="black"/>
<path d="M75.25 46H64C61.8918 46 61.0086 44.164 60.7296 42.625H53.875V40.375H61.75C62.0484 40.375 62.3345 40.4935 62.5455 40.7045C62.7565 40.9155 62.875 41.2016 62.875 41.5C62.875 41.5191 62.938 43.75 64 43.75H75.25C76.312 43.75 76.375 41.5191 76.375 41.5C76.375 41.2016 76.4935 40.9155 76.7045 40.7045C76.9155 40.4935 77.2016 40.375 77.5 40.375H85.375V42.625H78.5204C78.2414 44.164 77.3582 46 75.25 46Z" fill="black"/>
<path d="M74.125 39.25H65.125V41.5H74.125V39.25Z" fill="black"/>
<path d="M74.125 85.375H65.125V87.625H74.125V85.375Z" fill="black"/>
<path d="M85.375 82H53.875V84.25H85.375V82Z" fill="black"/>
<path d="M39.25 50.5H34.75C34.4516 50.5 34.1655 50.3815 33.9545 50.1705C33.7435 49.9595 33.625 49.6734 33.625 49.375V47.7257C32.9968 47.5279 32.3873 47.2749 31.8036 46.9697L30.6359 48.1375C30.4249 48.3484 30.1388 48.4669 29.8405 48.4669C29.5422 48.4669 29.2561 48.3484 29.0451 48.1375L25.8625 44.9549C25.6516 44.7439 25.5331 44.4578 25.5331 44.1595C25.5331 43.8612 25.6516 43.5751 25.8625 43.3641L27.0291 42.1964C26.7244 41.6127 26.4718 41.0032 26.2743 40.375H24.625C24.3266 40.375 24.0405 40.2565 23.8295 40.0455C23.6185 39.8345 23.5 39.5484 23.5 39.25V34.75C23.5 34.4516 23.6185 34.1655 23.8295 33.9545C24.0405 33.7435 24.3266 33.625 24.625 33.625H26.2743C26.4721 32.9968 26.7251 32.3873 27.0302 31.8036L25.8625 30.6359C25.6516 30.4249 25.5331 30.1388 25.5331 29.8405C25.5331 29.5422 25.6516 29.2561 25.8625 29.0451L29.0451 25.8625C29.2561 25.6516 29.5422 25.5331 29.8405 25.5331C30.1388 25.5331 30.4249 25.6516 30.6359 25.8625L31.8036 27.0291C32.3873 26.7244 32.9968 26.4718 33.625 26.2743V24.625C33.625 24.3266 33.7435 24.0405 33.9545 23.8295C34.1655 23.6185 34.4516 23.5 34.75 23.5H39.25C39.5484 23.5 39.8345 23.6185 40.0455 23.8295C40.2565 24.0405 40.375 24.3266 40.375 24.625V26.2743C41.0032 26.4721 41.6127 26.7251 42.1964 27.0302L43.3641 25.8625C43.5751 25.6516 43.8612 25.5331 44.1595 25.5331C44.4578 25.5331 44.7439 25.6516 44.9549 25.8625L48.1375 29.0451C48.3484 29.2561 48.4669 29.5422 48.4669 29.8405C48.4669 30.1388 48.3484 30.4249 48.1375 30.6359L46.9709 31.8036C47.2756 32.3873 47.5282 32.9968 47.7257 33.625H49.375C49.6734 33.625 49.9595 33.7435 50.1705 33.9545C50.3815 34.1655 50.5 34.4516 50.5 34.75V39.25C50.5 39.5484 50.3815 39.8345 50.1705 40.0455C49.9595 40.2565 49.6734 40.375 49.375 40.375H47.7257C47.5279 41.0032 47.2749 41.6127 46.9697 42.1964L48.1375 43.3641C48.3484 43.5751 48.4669 43.8612 48.4669 44.1595C48.4669 44.4578 48.3484 44.7439 48.1375 44.9549L44.9549 48.1375C44.7439 48.3484 44.4578 48.4669 44.1595 48.4669C43.8612 48.4669 43.5751 48.3484 43.3641 48.1375L42.1964 46.9709C41.6127 47.2756 41.0032 47.5282 40.375 47.7257V49.375C40.375 49.6734 40.2565 49.9595 40.0455 50.1705C39.8345 50.3815 39.5484 50.5 39.25 50.5ZM35.875 48.25H38.125V46.8663C38.1248 46.6111 38.2113 46.3635 38.3703 46.1639C38.5293 45.9644 38.7515 45.8249 39.0002 45.7683C39.9865 45.5439 40.9273 45.1532 41.7824 44.6129C41.9983 44.4767 42.2541 44.4179 42.5078 44.4464C42.7616 44.4748 42.9981 44.5886 43.1785 44.7693L44.1595 45.7502L45.7502 44.1595L44.7693 43.1785C44.5886 42.9981 44.4748 42.7616 44.4464 42.5078C44.4179 42.2541 44.4767 41.9983 44.6129 41.7824C45.1532 40.9273 45.5439 39.9865 45.7683 39.0002C45.8249 38.7515 45.9644 38.5293 46.1639 38.3703C46.3635 38.2113 46.6111 38.1248 46.8663 38.125H48.25V35.875H46.8663C46.6111 35.8752 46.3635 35.7887 46.1639 35.6297C45.9644 35.4707 45.8249 35.2485 45.7683 34.9998C45.5439 34.0135 45.1532 33.0727 44.6129 32.2176C44.4767 32.0017 44.4179 31.7459 44.4464 31.4922C44.4748 31.2384 44.5886 31.0019 44.7693 30.8215L45.7502 29.8405L44.1595 28.2498L43.1785 29.2308C42.9981 29.4114 42.7616 29.5252 42.5078 29.5536C42.2541 29.5821 41.9983 29.5233 41.7824 29.3871C40.9273 28.8468 39.9865 28.4561 39.0002 28.2318C38.7515 28.1751 38.5293 28.0356 38.3703 27.8361C38.2113 27.6365 38.1248 27.3889 38.125 27.1337V25.75H35.875V27.1337C35.8752 27.3889 35.7887 27.6365 35.6297 27.8361C35.4707 28.0356 35.2485 28.1751 34.9998 28.2318C34.0135 28.4561 33.0727 28.8468 32.2176 29.3871C32.0017 29.5233 31.7459 29.5821 31.4922 29.5536C31.2384 29.5252 31.0019 29.4114 30.8215 29.2308L29.8405 28.2498L28.2498 29.8405L29.2308 30.8215C29.4114 31.0019 29.5252 31.2384 29.5536 31.4922C29.5821 31.7459 29.5233 32.0017 29.3871 32.2176C28.8468 33.0727 28.4561 34.0135 28.2318 34.9998C28.1751 35.2485 28.0356 35.4707 27.8361 35.6297C27.6365 35.7887 27.3889 35.8752 27.1337 35.875H25.75V38.125H27.1337C27.3889 38.1248 27.6365 38.2113 27.8361 38.3703C28.0356 38.5293 28.1751 38.7515 28.2318 39.0002C28.4561 39.9865 28.8468 40.9273 29.3871 41.7824C29.5233 41.9983 29.5821 42.2541 29.5536 42.5078C29.5252 42.7616 29.4114 42.9981 29.2308 43.1785L28.2498 44.1595L29.8405 45.7502L30.8215 44.7693C31.0019 44.5886 31.2384 44.4748 31.4922 44.4464C31.7459 44.4179 32.0017 44.4767 32.2176 44.6129C33.0727 45.1532 34.0135 45.5439 34.9998 45.7683C35.2485 45.8249 35.4707 45.9644 35.6297 46.1639C35.7887 46.3635 35.8752 46.6111 35.875 46.8663V48.25Z" fill="black"/>
<path d="M37 42.625C35.8875 42.625 34.7999 42.2951 33.8749 41.677C32.9499 41.0589 32.2289 40.1804 31.8032 39.1526C31.3774 38.1248 31.266 36.9938 31.4831 35.9026C31.7001 34.8115 32.2359 33.8092 33.0225 33.0225C33.8092 32.2359 34.8115 31.7001 35.9026 31.4831C36.9938 31.266 38.1248 31.3774 39.1526 31.8032C40.1804 32.2289 41.0589 32.9499 41.677 33.8749C42.2951 34.7999 42.625 35.8875 42.625 37C42.6232 38.4913 42.03 39.921 40.9755 40.9755C39.921 42.03 38.4913 42.6232 37 42.625ZM37 33.625C36.3325 33.625 35.68 33.8229 35.125 34.1938C34.5699 34.5646 34.1374 35.0917 33.8819 35.7084C33.6265 36.3251 33.5596 37.0037 33.6899 37.6584C33.8201 38.3131 34.1415 38.9145 34.6135 39.3865C35.0855 39.8585 35.6869 40.1799 36.3416 40.3102C36.9963 40.4404 37.6749 40.3735 38.2916 40.1181C38.9083 39.8626 39.4354 39.4301 39.8062 38.8751C40.1771 38.32 40.375 37.6675 40.375 37C40.375 36.1049 40.0194 35.2465 39.3865 34.6135C38.7536 33.9806 37.8951 33.625 37 33.625Z" fill="black"/>
<path d="M38.125 65.125H35.875V60.625C35.875 60.3266 35.9935 60.0405 36.2045 59.8295C36.4155 59.6185 36.7016 59.5 37 59.5H38.6493C38.8471 58.8718 39.1001 58.2623 39.4053 57.6786L38.2375 56.5109C38.0266 56.2999 37.9081 56.0138 37.9081 55.7155C37.9081 55.4172 38.0266 55.1311 38.2375 54.9201L41.4201 51.7375C41.6311 51.5266 41.9172 51.4081 42.2155 51.4081C42.5138 51.4081 42.7999 51.5266 43.0109 51.7375L44.1786 52.9041C44.7623 52.5994 45.3718 52.3468 46 52.1493V50.5C46 50.2016 46.1185 49.9155 46.3295 49.7045C46.5405 49.4935 46.8266 49.375 47.125 49.375H51.625V51.625H48.25V53.0088C48.2502 53.2639 48.1637 53.5115 48.0047 53.7111C47.8457 53.9106 47.6235 54.0501 47.3748 54.1068C46.3885 54.3311 45.4477 54.7218 44.5926 55.2621C44.3767 55.3983 44.1209 55.4571 43.8672 55.4286C43.6134 55.4002 43.3769 55.2864 43.1965 55.1058L42.2155 54.1247L40.6248 55.7155L41.6057 56.6965C41.7864 56.8769 41.9002 57.1134 41.9286 57.3672C41.9571 57.6209 41.8983 57.8767 41.7621 58.0926C41.2218 58.9477 40.8311 59.8885 40.6067 60.8747C40.5501 61.1235 40.4106 61.3457 40.2111 61.5047C40.0115 61.6637 39.7639 61.7502 39.5087 61.75H38.125V65.125Z" fill="black"/>
<path d="M46 62.875H43.75C43.7518 61.3837 44.345 59.954 45.3995 58.8995C46.454 57.845 47.8837 57.2518 49.375 57.25V59.5C48.4799 59.5 47.6214 59.8556 46.9885 60.4885C46.3556 61.1215 46 61.9799 46 62.875Z" fill="black"/>
<path d="M69.625 75.25C67.1775 75.25 64.7849 74.5242 62.7498 73.1644C60.7148 71.8047 59.1286 69.8719 58.192 67.6107C57.2554 65.3495 57.0103 62.8613 57.4878 60.4608C57.9653 58.0602 59.1439 55.8552 60.8746 54.1246C62.6052 52.3939 64.8102 51.2153 67.2108 50.7378C69.6113 50.2603 72.0995 50.5054 74.3607 51.442C76.622 52.3786 78.5547 53.9648 79.9144 55.9998C81.2742 58.0349 82 60.4275 82 62.875C81.9961 66.1559 80.6911 69.3013 78.3712 71.6212C76.0513 73.9411 72.9059 75.2461 69.625 75.25ZM69.625 52.75C67.6225 52.75 65.6649 53.3438 63.9999 54.4564C62.3348 55.5689 61.0371 57.1502 60.2707 59.0003C59.5044 60.8504 59.3039 62.8862 59.6946 64.8503C60.0852 66.8144 61.0495 68.6185 62.4655 70.0345C63.8816 71.4505 65.6857 72.4148 67.6497 72.8055C69.6138 73.1961 71.6496 72.9956 73.4997 72.2293C75.3498 71.4629 76.9311 70.1652 78.0436 68.5002C79.1562 66.8351 79.75 64.8775 79.75 62.875C79.7467 60.1907 78.6789 57.6173 76.7808 55.7192C74.8827 53.8211 72.3093 52.7533 69.625 52.75Z" fill="black"/>
<path d="M67.375 70.7498C67.0767 70.7497 66.7906 70.6311 66.5797 70.4201L60.9547 64.7951C60.7438 64.5842 60.6253 64.2981 60.6253 63.9998C60.6253 63.7015 60.7438 63.4154 60.9547 63.2044L64.3297 59.8294C64.5406 59.6185 64.8267 59.5 65.125 59.5C65.4233 59.5 65.7094 59.6185 65.9204 59.8294L67.375 61.284L73.3297 55.3294C73.5406 55.1185 73.8267 55 74.125 55C74.4233 55 74.7094 55.1185 74.9204 55.3294L78.2954 58.7044C78.5063 58.9154 78.6248 59.2015 78.6248 59.4998C78.6248 59.7981 78.5063 60.0842 78.2954 60.2951L68.1704 70.4201C67.9595 70.6311 67.6734 70.7497 67.375 70.7498ZM63.3408 63.9998L67.375 68.034L75.9093 59.4998L74.125 57.7155L68.1704 63.6701C67.9594 63.881 67.6733 63.9995 67.375 63.9995C67.0767 63.9995 66.7906 63.881 66.5797 63.6701L65.125 62.2155L63.3408 63.9998Z" fill="black"/>
<path d="M85.375 23.5H83.125V25.75H85.375V23.5Z" fill="black"/>
<path d="M80.875 23.5H66.25V25.75H80.875V23.5Z" fill="black"/>
</svg>
