<svg width="100" height="100" viewBox="0 0 100 100" fill="none" xmlns="http://www.w3.org/2000/svg">
<path d="M46.5 72.5H20.625C19.1337 72.4982 17.704 71.905 16.6495 70.8505C15.595 69.796 15.0018 68.3663 15 66.875V19.625C15.0018 18.1337 15.595 16.704 16.6495 15.6495C17.704 14.595 19.1337 14.0018 20.625 14H22.875V16.25H20.625C19.7299 16.25 18.8714 16.6056 18.2385 17.2385C17.6056 17.8714 17.25 18.7299 17.25 19.625V66.875C17.25 67.7701 17.6056 68.6285 18.2385 69.2615C18.8714 69.8944 19.7299 70.25 20.625 70.25H46.5V72.5Z" fill="black"/>
<path d="M27.3761 14H25.125V16.25H27.3761V14Z" fill="black"/>
<path d="M81.375 72.5V70.25C82.2701 70.25 83.1285 69.8944 83.7615 69.2615C84.3944 68.6285 84.75 67.7701 84.75 66.875V19.625C84.75 18.7299 84.3944 17.8714 83.7615 17.2385C83.1285 16.6056 82.2701 16.25 81.375 16.25H29.625V14H81.375C82.8663 14.0018 84.296 14.595 85.3505 15.6495C86.405 16.704 86.9982 18.1337 87 19.625V66.875C86.9982 68.3663 86.405 69.796 85.3505 70.8505C84.296 71.905 82.8663 72.4982 81.375 72.5Z" fill="black"/>
<path d="M37.5341 71.1028L36.4086 75.6025L38.5914 76.1485L39.7169 71.6488L37.5341 71.1028Z" fill="black"/>
<path d="M46.5 81.5H35.25C34.9516 81.5 34.6655 81.3815 34.4545 81.1705C34.2435 80.9595 34.125 80.6734 34.125 80.375V78.125C34.125 77.2299 34.4806 76.3715 35.1135 75.7385C35.7464 75.1056 36.6049 74.75 37.5 74.75H46.5V77H37.5C37.2016 77 36.9155 77.1185 36.7045 77.3295C36.4935 77.5405 36.375 77.8266 36.375 78.125V79.25H46.5V81.5Z" fill="black"/>
<path d="M46.5 61.25H16.125V63.5H46.5V61.25Z" fill="black"/>
<path d="M21.75 65.75H19.5V68H21.75V65.75Z" fill="black"/>
<path d="M30.75 65.75H24V68H30.75V65.75Z" fill="black"/>
<path d="M76.875 86H54.375C52.8837 85.9982 51.454 85.405 50.3995 84.3505C49.345 83.296 48.7518 81.8663 48.75 80.375V35.375C48.7518 33.8837 49.345 32.454 50.3995 31.3995C51.454 30.345 52.8837 29.7518 54.375 29.75H76.875C78.3663 29.7518 79.796 30.345 80.8505 31.3995C81.905 32.454 82.4982 33.8837 82.5 35.375V80.375C82.4982 81.8663 81.905 83.296 80.8505 84.3505C79.796 85.405 78.3663 85.9982 76.875 86ZM54.375 32C53.4799 32 52.6215 32.3556 51.9885 32.9885C51.3556 33.6214 51 34.4799 51 35.375V80.375C51 81.2701 51.3556 82.1285 51.9885 82.7615C52.6215 83.3944 53.4799 83.75 54.375 83.75H76.875C77.7701 83.75 78.6285 83.3944 79.2615 82.7615C79.8944 82.1285 80.25 81.2701 80.25 80.375V35.375C80.25 34.4799 79.8944 33.6214 79.2615 32.9885C78.6285 32.3556 77.7701 32 76.875 32H54.375Z" fill="black"/>
<path d="M71.25 41H60C57.8918 41 57.0086 39.164 56.7296 37.625H49.875V35.375H57.75C58.0484 35.375 58.3345 35.4935 58.5455 35.7045C58.7565 35.9155 58.875 36.2016 58.875 36.5C58.875 36.5191 58.938 38.75 60 38.75H71.25C72.312 38.75 72.375 36.5191 72.375 36.5C72.375 36.2016 72.4935 35.9155 72.7045 35.7045C72.9155 35.4935 73.2016 35.375 73.5 35.375H81.375V37.625H74.5204C74.2414 39.164 73.3582 41 71.25 41Z" fill="black"/>
<path d="M70.125 34.25H61.125V36.5H70.125V34.25Z" fill="black"/>
<path d="M70.125 80.375H61.125V82.625H70.125V80.375Z" fill="black"/>
<path d="M81.375 77H49.875V79.25H81.375V77Z" fill="black"/>
<path d="M35.25 45.5H30.75C30.4516 45.5 30.1655 45.3815 29.9545 45.1705C29.7435 44.9595 29.625 44.6734 29.625 44.375V42.7257C28.9968 42.5279 28.3873 42.2749 27.8036 41.9697L26.6359 43.1375C26.4249 43.3484 26.1388 43.4669 25.8405 43.4669C25.5422 43.4669 25.2561 43.3484 25.0451 43.1375L21.8625 39.9549C21.6516 39.7439 21.5331 39.4578 21.5331 39.1595C21.5331 38.8612 21.6516 38.5751 21.8625 38.3641L23.0291 37.1964C22.7244 36.6127 22.4718 36.0032 22.2743 35.375H20.625C20.3266 35.375 20.0405 35.2565 19.8295 35.0455C19.6185 34.8345 19.5 34.5484 19.5 34.25V29.75C19.5 29.4516 19.6185 29.1655 19.8295 28.9545C20.0405 28.7435 20.3266 28.625 20.625 28.625H22.2743C22.4721 27.9968 22.7251 27.3873 23.0302 26.8036L21.8625 25.6359C21.6516 25.4249 21.5331 25.1388 21.5331 24.8405C21.5331 24.5422 21.6516 24.2561 21.8625 24.0451L25.0451 20.8625C25.2561 20.6516 25.5422 20.5331 25.8405 20.5331C26.1388 20.5331 26.4249 20.6516 26.6359 20.8625L27.8036 22.0291C28.3873 21.7244 28.9968 21.4718 29.625 21.2743V19.625C29.625 19.3266 29.7435 19.0405 29.9545 18.8295C30.1655 18.6185 30.4516 18.5 30.75 18.5H35.25C35.5484 18.5 35.8345 18.6185 36.0455 18.8295C36.2565 19.0405 36.375 19.3266 36.375 19.625V21.2743C37.0032 21.4721 37.6127 21.7251 38.1964 22.0302L39.3641 20.8625C39.5751 20.6516 39.8612 20.5331 40.1595 20.5331C40.4578 20.5331 40.7439 20.6516 40.9549 20.8625L44.1375 24.0451C44.3484 24.2561 44.4669 24.5422 44.4669 24.8405C44.4669 25.1388 44.3484 25.4249 44.1375 25.6359L42.9709 26.8036C43.2756 27.3873 43.5282 27.9968 43.7257 28.625H45.375C45.6734 28.625 45.9595 28.7435 46.1705 28.9545C46.3815 29.1655 46.5 29.4516 46.5 29.75V34.25C46.5 34.5484 46.3815 34.8345 46.1705 35.0455C45.9595 35.2565 45.6734 35.375 45.375 35.375H43.7257C43.5279 36.0032 43.2749 36.6127 42.9697 37.1964L44.1375 38.3641C44.3484 38.5751 44.4669 38.8612 44.4669 39.1595C44.4669 39.4578 44.3484 39.7439 44.1375 39.9549L40.9549 43.1375C40.7439 43.3484 40.4578 43.4669 40.1595 43.4669C39.8612 43.4669 39.5751 43.3484 39.3641 43.1375L38.1964 41.9709C37.6127 42.2756 37.0032 42.5282 36.375 42.7257V44.375C36.375 44.6734 36.2565 44.9595 36.0455 45.1705C35.8345 45.3815 35.5484 45.5 35.25 45.5ZM31.875 43.25H34.125V41.8663C34.1248 41.6111 34.2113 41.3635 34.3703 41.1639C34.5293 40.9644 34.7515 40.8249 35.0002 40.7683C35.9865 40.5439 36.9273 40.1532 37.7824 39.6129C37.9983 39.4767 38.2541 39.4179 38.5078 39.4464C38.7616 39.4748 38.9981 39.5886 39.1785 39.7693L40.1595 40.7502L41.7502 39.1595L40.7693 38.1785C40.5886 37.9981 40.4748 37.7616 40.4464 37.5078C40.4179 37.2541 40.4767 36.9983 40.6129 36.7824C41.1532 35.9273 41.5439 34.9865 41.7683 34.0002C41.8249 33.7515 41.9644 33.5293 42.1639 33.3703C42.3635 33.2113 42.6111 33.1248 42.8663 33.125H44.25V30.875H42.8663C42.6111 30.8752 42.3635 30.7887 42.1639 30.6297C41.9644 30.4707 41.8249 30.2485 41.7683 29.9998C41.5439 29.0135 41.1532 28.0727 40.6129 27.2176C40.4767 27.0017 40.4179 26.7459 40.4464 26.4922C40.4748 26.2384 40.5886 26.0019 40.7693 25.8215L41.7502 24.8405L40.1595 23.2498L39.1785 24.2308C38.9981 24.4114 38.7616 24.5252 38.5078 24.5536C38.2541 24.5821 37.9983 24.5233 37.7824 24.3871C36.9273 23.8468 35.9865 23.4561 35.0002 23.2318C34.7515 23.1751 34.5293 23.0356 34.3703 22.8361C34.2113 22.6365 34.1248 22.3889 34.125 22.1337V20.75H31.875V22.1337C31.8752 22.3889 31.7887 22.6365 31.6297 22.8361C31.4707 23.0356 31.2485 23.1751 30.9998 23.2318C30.0135 23.4561 29.0727 23.8468 28.2176 24.3871C28.0017 24.5233 27.7459 24.5821 27.4922 24.5536C27.2384 24.5252 27.0019 24.4114 26.8215 24.2308L25.8405 23.2498L24.2498 24.8405L25.2308 25.8215C25.4114 26.0019 25.5252 26.2384 25.5536 26.4922C25.5821 26.7459 25.5233 27.0017 25.3871 27.2176C24.8468 28.0727 24.4561 29.0135 24.2318 29.9998C24.1751 30.2485 24.0356 30.4707 23.8361 30.6297C23.6365 30.7887 23.3889 30.8752 23.1337 30.875H21.75V33.125H23.1337C23.3889 33.1248 23.6365 33.2113 23.8361 33.3703C24.0356 33.5293 24.1751 33.7515 24.2318 34.0002C24.4561 34.9865 24.8468 35.9273 25.3871 36.7824C25.5233 36.9983 25.5821 37.2541 25.5536 37.5078C25.5252 37.7616 25.4114 37.9981 25.2308 38.1785L24.2498 39.1595L25.8405 40.7502L26.8215 39.7693C27.0019 39.5886 27.2384 39.4748 27.4922 39.4464C27.7459 39.4179 28.0017 39.4767 28.2176 39.6129C29.0727 40.1532 30.0135 40.5439 30.9998 40.7683C31.2485 40.8249 31.4707 40.9644 31.6297 41.1639C31.7887 41.3635 31.8752 41.6111 31.875 41.8663V43.25Z" fill="black"/>
<path d="M33 37.625C31.8875 37.625 30.7999 37.2951 29.8749 36.677C28.9499 36.0589 28.2289 35.1804 27.8032 34.1526C27.3774 33.1248 27.266 31.9938 27.4831 30.9026C27.7001 29.8115 28.2359 28.8092 29.0225 28.0225C29.8092 27.2359 30.8115 26.7001 31.9026 26.4831C32.9938 26.266 34.1248 26.3774 35.1526 26.8032C36.1804 27.2289 37.0589 27.9499 37.677 28.8749C38.2951 29.7999 38.625 30.8875 38.625 32C38.6232 33.4913 38.03 34.921 36.9755 35.9755C35.921 37.03 34.4913 37.6232 33 37.625ZM33 28.625C32.3325 28.625 31.68 28.8229 31.125 29.1938C30.5699 29.5646 30.1374 30.0917 29.8819 30.7084C29.6265 31.3251 29.5596 32.0037 29.6899 32.6584C29.8201 33.3131 30.1415 33.9145 30.6135 34.3865C31.0855 34.8585 31.6869 35.1799 32.3416 35.3102C32.9963 35.4404 33.6749 35.3735 34.2916 35.1181C34.9083 34.8626 35.4354 34.4301 35.8062 33.8751C36.1771 33.32 36.375 32.6675 36.375 32C36.375 31.1049 36.0194 30.2465 35.3865 29.6135C34.7536 28.9806 33.8951 28.625 33 28.625Z" fill="black"/>
<path d="M34.125 60.125H31.875V55.625C31.875 55.3266 31.9935 55.0405 32.2045 54.8295C32.4155 54.6185 32.7016 54.5 33 54.5H34.6493C34.8471 53.8718 35.1001 53.2623 35.4053 52.6786L34.2375 51.5109C34.0266 51.2999 33.9081 51.0138 33.9081 50.7155C33.9081 50.4172 34.0266 50.1311 34.2375 49.9201L37.4201 46.7375C37.6311 46.5266 37.9172 46.4081 38.2155 46.4081C38.5138 46.4081 38.7999 46.5266 39.0109 46.7375L40.1786 47.9041C40.7623 47.5994 41.3718 47.3468 42 47.1493V45.5C42 45.2016 42.1185 44.9155 42.3295 44.7045C42.5405 44.4935 42.8266 44.375 43.125 44.375H47.625V46.625H44.25V48.0088C44.2502 48.2639 44.1637 48.5115 44.0047 48.7111C43.8457 48.9106 43.6235 49.0501 43.3748 49.1068C42.3885 49.3311 41.4477 49.7218 40.5926 50.2621C40.3767 50.3983 40.1209 50.4571 39.8672 50.4286C39.6134 50.4002 39.3769 50.2864 39.1965 50.1058L38.2155 49.1247L36.6248 50.7155L37.6057 51.6965C37.7864 51.8769 37.9002 52.1134 37.9286 52.3672C37.9571 52.6209 37.8983 52.8767 37.7621 53.0926C37.2218 53.9477 36.8311 54.8885 36.6067 55.8747C36.5501 56.1235 36.4106 56.3457 36.2111 56.5047C36.0115 56.6637 35.7639 56.7502 35.5087 56.75H34.125V60.125Z" fill="black"/>
<path d="M42 57.875H39.75C39.7518 56.3837 40.345 54.954 41.3995 53.8995C42.454 52.845 43.8837 52.2518 45.375 52.25V54.5C44.4799 54.5 43.6214 54.8556 42.9885 55.4885C42.3556 56.1215 42 56.9799 42 57.875Z" fill="black"/>
<path d="M65.625 70.25C63.1775 70.25 60.7849 69.5242 58.7498 68.1644C56.7148 66.8047 55.1286 64.8719 54.192 62.6107C53.2554 60.3495 53.0103 57.8613 53.4878 55.4608C53.9653 53.0602 55.1439 50.8552 56.8746 49.1246C58.6052 47.3939 60.8102 46.2153 63.2108 45.7378C65.6113 45.2603 68.0995 45.5054 70.3607 46.442C72.622 47.3786 74.5547 48.9648 75.9144 50.9998C77.2742 53.0349 78 55.4275 78 57.875C77.9961 61.1559 76.6911 64.3013 74.3712 66.6212C72.0513 68.9411 68.9059 70.2461 65.625 70.25ZM65.625 47.75C63.6225 47.75 61.6649 48.3438 59.9999 49.4564C58.3348 50.5689 57.0371 52.1502 56.2707 54.0003C55.5044 55.8504 55.3039 57.8862 55.6946 59.8503C56.0852 61.8144 57.0495 63.6185 58.4655 65.0345C59.8816 66.4505 61.6857 67.4148 63.6497 67.8055C65.6138 68.1961 67.6496 67.9956 69.4997 67.2293C71.3498 66.4629 72.9311 65.1652 74.0436 63.5002C75.1562 61.8351 75.75 59.8775 75.75 57.875C75.7467 55.1907 74.6789 52.6173 72.7808 50.7192C70.8827 48.8211 68.3093 47.7533 65.625 47.75Z" fill="black"/>
<path d="M63.375 65.7498C63.0767 65.7497 62.7906 65.6311 62.5797 65.4201L56.9547 59.7951C56.7438 59.5842 56.6253 59.2981 56.6253 58.9998C56.6253 58.7015 56.7438 58.4154 56.9547 58.2044L60.3297 54.8294C60.5406 54.6185 60.8267 54.5 61.125 54.5C61.4233 54.5 61.7094 54.6185 61.9204 54.8294L63.375 56.284L69.3297 50.3294C69.5406 50.1185 69.8267 50 70.125 50C70.4233 50 70.7094 50.1185 70.9204 50.3294L74.2954 53.7044C74.5063 53.9154 74.6248 54.2015 74.6248 54.4998C74.6248 54.7981 74.5063 55.0842 74.2954 55.2951L64.1704 65.4201C63.9595 65.6311 63.6734 65.7497 63.375 65.7498ZM59.3408 58.9998L63.375 63.034L71.9093 54.4998L70.125 52.7155L64.1704 58.6701C63.9594 58.881 63.6733 58.9995 63.375 58.9995C63.0767 58.9995 62.7906 58.881 62.5797 58.6701L61.125 57.2155L59.3408 58.9998Z" fill="black"/>
<path d="M81.375 18.5H79.125V20.75H81.375V18.5Z" fill="black"/>
<path d="M76.875 18.5H62.25V20.75H76.875V18.5Z" fill="black"/>
</svg>
