<svg width="110" height="110" viewBox="0 0 110 110" fill="none" xmlns="http://www.w3.org/2000/svg">
<rect width="110" height="110" fill="white"/>
<path d="M89.9885 17.5441C88.6981 16.5493 87.1253 16.0075 85.5064 16H24.4936C22.5062 16 20.6002 16.8033 19.1948 18.2333C17.7895 19.6632 17 21.6026 17 23.6249V86.3751C17.0021 88.3967 17.7922 90.3349 19.1971 91.7644C20.602 93.1939 22.5068 93.9979 24.4936 94H85.5064C87.4932 93.9979 89.398 93.1939 90.8029 91.7644C92.2078 90.3349 92.9979 88.3967 93 86.3751V23.6249C92.9973 22.4429 92.7236 21.2778 92.2009 20.2222C91.6781 19.1666 90.9206 18.2496 89.9885 17.5441ZM21.2005 18.6265C22.1723 17.9553 23.3191 17.5949 24.4936 17.5918H85.5064C87.0789 17.5918 88.587 18.2275 89.699 19.3589C90.8109 20.4903 91.4356 22.0248 91.4356 23.6249V31.2976H18.5879V23.6249C18.5869 22.6376 18.8248 21.6652 19.2804 20.7935C19.736 19.9219 20.3954 19.1776 21.2005 18.6265ZM85.5064 92.4082H24.4936C22.9217 92.4061 21.4148 91.7698 20.3033 90.6388C19.1918 89.5078 18.5665 87.9745 18.5644 86.3751V32.8894H91.3886V86.3751C91.3866 87.9663 90.7678 89.4924 89.6664 90.622C88.565 91.7516 87.0701 92.3935 85.5064 92.4082ZM25.9485 27.5886C26.569 27.5885 27.1755 27.4008 27.6908 27.0491C28.2062 26.6975 28.6072 26.1979 28.8428 25.6139C29.0784 25.0298 29.138 24.3876 29.0141 23.769C28.8902 23.1504 28.5883 22.5832 28.1468 22.1396C27.7053 21.696 27.1441 21.3959 26.5346 21.2776C25.9251 21.1593 25.2948 21.2281 24.7238 21.4751C24.1528 21.7222 23.6669 22.1365 23.3279 22.6652C22.9888 23.194 22.8119 23.8134 22.8197 24.4447C22.83 25.2821 23.1642 26.0817 23.7498 26.6702C24.3355 27.2587 25.1254 27.5886 25.9485 27.5886ZM25.9485 22.8927C26.2596 22.8928 26.5636 22.9872 26.8216 23.1639C27.0797 23.3407 27.2801 23.5917 27.3972 23.8849C27.5144 24.1781 27.543 24.5001 27.4794 24.81C27.4158 25.1198 27.2629 25.4033 27.0402 25.6242C26.8175 25.8452 26.5351 25.9936 26.2291 26.0504C25.9231 26.1073 25.6073 26.07 25.3223 25.9434C25.0372 25.8168 24.7956 25.6066 24.6285 25.3396C24.4614 25.0727 24.3763 24.7611 24.3841 24.4447C24.3943 24.0294 24.5636 23.6347 24.8559 23.3447C25.1482 23.0548 25.5403 22.8925 25.9485 22.8927ZM33.7238 27.5886C34.3442 27.5885 34.9507 27.4008 35.4661 27.0491C35.9814 26.6975 36.3824 26.1979 36.618 25.6139C36.8536 25.0298 36.9133 24.3876 36.7893 23.769C36.6654 23.1504 36.3635 22.5832 35.922 22.1396C35.4805 21.696 34.9193 21.3959 34.3098 21.2776C33.7003 21.1593 33.07 21.2281 32.499 21.4751C31.928 21.7222 31.4421 22.1365 31.1031 22.6652C30.764 23.194 30.5871 23.8134 30.5949 24.4447C30.6052 25.2821 30.9394 26.0817 31.525 26.6702C32.1107 27.2587 32.9007 27.5886 33.7238 27.5886ZM33.7238 22.8927C34.0348 22.8928 34.3388 22.9872 34.5968 23.1639C34.8549 23.3407 35.0553 23.5917 35.1725 23.8849C35.2896 24.1781 35.3182 24.5001 35.2546 24.81C35.191 25.1198 35.0381 25.4033 34.8154 25.6242C34.5927 25.8452 34.3103 25.9936 34.0043 26.0504C33.6983 26.1073 33.3826 26.07 33.0975 25.9434C32.8124 25.8168 32.5709 25.6066 32.4038 25.3396C32.2366 25.0727 32.1515 24.7611 32.1593 24.4447C32.1695 24.0294 32.3388 23.6347 32.6311 23.3447C32.9234 23.0548 33.3155 22.8925 33.7238 22.8927ZM41.9839 27.5886C42.6044 27.5885 43.2109 27.4008 43.7262 27.0491C44.2416 26.6975 44.6426 26.1979 44.8782 25.6139C45.1138 25.0298 45.1734 24.3876 45.0495 23.769C44.9256 23.1504 44.6237 22.5832 44.1822 22.1396C43.7407 21.696 43.1795 21.3959 42.57 21.2776C41.9605 21.1593 41.3302 21.2281 40.7592 21.4751C40.1882 21.7222 39.7023 22.1365 39.3633 22.6652C39.0242 23.194 38.8473 23.8134 38.8551 24.4447C38.8654 25.2821 39.1996 26.0817 39.7852 26.6702C40.3709 27.2587 41.1609 27.5886 41.9839 27.5886ZM41.9839 22.8927C42.295 22.8928 42.599 22.9872 42.857 23.1639C43.1151 23.3407 43.3155 23.5917 43.4327 23.8849C43.5498 24.1781 43.5784 24.5001 43.5148 24.81C43.4512 25.1198 43.2983 25.4033 43.0756 25.6242C42.8529 25.8452 42.5705 25.9936 42.2645 26.0504C41.9585 26.1073 41.6428 26.07 41.3577 25.9434C41.0726 25.8168 40.8311 25.6066 40.6639 25.3396C40.4968 25.0727 40.4117 24.7611 40.4195 24.4447C40.4297 24.0294 40.599 23.6347 40.8913 23.3447C41.1836 23.0548 41.5757 22.8925 41.9839 22.8927ZM55.7118 24.4447C55.7118 24.2336 55.7942 24.0312 55.9409 23.8819C56.0876 23.7326 56.2866 23.6488 56.494 23.6488H85.6785C85.8859 23.6488 86.0849 23.7326 86.2316 23.8819C86.3783 24.0312 86.4607 24.2336 86.4607 24.4447C86.4607 24.6558 86.3783 24.8582 86.2316 25.0075C86.0849 25.1568 85.8859 25.2406 85.6785 25.2406H56.494C56.2866 25.2406 56.0876 25.1568 55.9409 25.0075C55.7942 24.8582 55.7118 24.6558 55.7118 24.4447ZM23.9695 39.1931C23.9695 38.982 24.0519 38.7795 24.1986 38.6303C24.3453 38.481 24.5443 38.3971 24.7517 38.3971H43.8534C44.0609 38.3971 44.2599 38.481 44.4065 38.6303C44.5532 38.7795 44.6357 38.982 44.6357 39.1931C44.6357 39.4042 44.5532 39.6066 44.4065 39.7559C44.2599 39.9051 44.0609 39.989 43.8534 39.989H24.7517C24.5443 39.989 24.3453 39.9051 24.1986 39.7559C24.0519 39.6066 23.9695 39.4042 23.9695 39.1931ZM37.7052 46.3563H35.7497C35.5422 46.3563 35.3433 46.2725 35.1966 46.1232C35.0499 45.9739 34.9675 45.7715 34.9675 45.5604C34.9675 45.3493 35.0499 45.1469 35.1966 44.9976C35.3433 44.8483 35.5422 44.7645 35.7497 44.7645H37.7052C37.9127 44.7645 38.1116 44.8483 38.2583 44.9976C38.405 45.1469 38.4874 45.3493 38.4874 45.5604C38.4874 45.7715 38.405 45.9739 38.2583 46.1232C38.1116 46.2725 37.9127 46.3563 37.7052 46.3563ZM31.7448 46.3563H24.7517C24.5443 46.3563 24.3453 46.2725 24.1986 46.1232C24.0519 45.9739 23.9695 45.7715 23.9695 45.5604C23.9695 45.3493 24.0519 45.1469 24.1986 44.9976C24.3453 44.8483 24.5443 44.7645 24.7517 44.7645H31.7448C31.9522 44.7645 32.1512 44.8483 32.2979 44.9976C32.4446 45.1469 32.527 45.3493 32.527 45.5604C32.527 45.7715 32.4446 45.9739 32.2979 46.1232C32.1512 46.2725 31.9522 46.3563 31.7448 46.3563ZM59.3804 69.1833L57.0885 68.3873C57.0112 68.3619 56.9403 68.3195 56.8808 68.2631C56.8213 68.2067 56.7747 68.1377 56.7443 68.061C56.7095 67.9864 56.6915 67.9048 56.6915 67.8222C56.6915 67.7397 56.7095 67.6581 56.7443 67.5835L57.8238 65.3947C58.0253 64.9873 58.0953 64.5256 58.0236 64.0753C57.952 63.6251 57.7424 63.2094 57.4249 62.8876L55.2894 60.7067C54.9718 60.3857 54.5634 60.1739 54.1215 60.1011C53.6796 60.0283 53.2264 60.0982 52.8254 60.3008L50.6665 61.4071C50.5942 61.4418 50.5154 61.4606 50.4355 61.4623C50.3555 61.464 50.2761 61.4486 50.2023 61.4171C50.1286 61.3856 50.0622 61.3386 50.0074 61.2793C49.9526 61.22 49.9107 61.1497 49.8843 61.0729L49.1021 58.7408C48.962 58.3091 48.6914 57.9335 48.3289 57.6677C47.9665 57.4018 47.5308 57.2593 47.084 57.2604H44.049C43.6022 57.2593 43.1665 57.4018 42.804 57.6677C42.4416 57.9335 42.171 58.3091 42.0309 58.7408L41.2487 61.0729C41.2223 61.1497 41.1804 61.22 41.1256 61.2793C41.0708 61.3386 41.0044 61.3856 40.9307 61.4171C40.8569 61.4486 40.7775 61.464 40.6975 61.4623C40.6175 61.4606 40.5388 61.4418 40.4664 61.4071L38.3075 60.3088C37.9079 60.1027 37.4546 60.0303 37.0122 60.1017C36.5698 60.1732 36.1608 60.3849 35.8436 60.7067L33.7081 62.8876C33.3905 63.2094 33.181 63.6251 33.1094 64.0753C33.0377 64.5256 33.1077 64.9873 33.3092 65.3947L34.3886 67.5835C34.4196 67.6591 34.4356 67.7403 34.4356 67.8222C34.4356 67.9042 34.4196 67.9854 34.3886 68.061C34.3582 68.1377 34.3117 68.2067 34.2522 68.2631C34.1927 68.3195 34.1218 68.3619 34.0445 68.3873L31.7526 69.1833C31.329 69.3269 30.9605 69.6025 30.6994 69.9711C30.4383 70.3396 30.2977 70.7824 30.2977 71.2367V74.3249C30.2977 74.7792 30.4383 75.222 30.6994 75.5906C30.9605 75.9591 31.329 76.2347 31.7526 76.3784L34.0445 77.1743C34.1223 77.1987 34.1937 77.2408 34.2533 77.2973C34.3129 77.3538 34.3592 77.4233 34.3886 77.5006C34.4234 77.5752 34.4415 77.6568 34.4415 77.7394C34.4415 77.822 34.4234 77.9035 34.3886 77.9782L33.3092 80.1749C33.1083 80.5811 33.0387 81.0415 33.1103 81.4903C33.182 81.9392 33.3912 82.3535 33.7081 82.6741L35.8436 84.8549C36.1599 85.178 36.5684 85.3912 37.0109 85.4641C37.4534 85.537 37.9072 85.4659 38.3075 85.2608L40.4664 84.1624C40.5398 84.1271 40.6199 84.1087 40.7011 84.1087C40.7823 84.1087 40.8624 84.1271 40.9358 84.1624C41.0103 84.1947 41.0774 84.2426 41.1327 84.3029C41.1879 84.3632 41.2301 84.4347 41.2565 84.5126L42.0387 86.8447C42.1837 87.2691 42.4554 87.6369 42.8158 87.8966C43.1762 88.1563 43.6074 88.295 44.049 88.2933H47.0762C47.5254 88.3028 47.966 88.1669 48.3343 87.9051C48.7027 87.6433 48.9798 87.2692 49.1256 86.8367L49.9078 84.5047C49.9342 84.4267 49.9763 84.3553 50.0316 84.2949C50.0868 84.2346 50.1539 84.1868 50.2285 84.1545C50.3018 84.1191 50.382 84.1007 50.4632 84.1007C50.5443 84.1007 50.6245 84.1191 50.6978 84.1545L52.8411 85.2449C53.2415 85.45 53.6953 85.5211 54.1377 85.4482C54.5802 85.3753 54.9887 85.1621 55.3051 84.839L57.4405 82.6582C57.7574 82.3376 57.9666 81.9232 58.0383 81.4744C58.1099 81.0256 58.0403 80.5652 57.8394 80.159L56.76 77.9622C56.7252 77.8876 56.7072 77.8061 56.7072 77.7235C56.7072 77.6409 56.7252 77.5593 56.76 77.4847C56.7878 77.4064 56.8336 77.3361 56.8934 77.2793C56.9533 77.2226 57.0255 77.1811 57.1042 77.1584L59.396 76.3624C59.8196 76.2188 60.1881 75.9432 60.4492 75.5746C60.7103 75.2061 60.8509 74.7633 60.851 74.309V71.2367C60.8498 70.7804 60.707 70.3362 60.4429 69.9674C60.1788 69.5986 59.8069 69.3242 59.3804 69.1833ZM59.2709 74.3249C59.2789 74.447 59.2483 74.5685 59.1835 74.6716C59.1188 74.7747 59.0233 74.854 58.9111 74.898L56.6114 75.6939C56.3221 75.7913 56.0569 75.9513 55.8341 76.1629C55.6113 76.3745 55.4362 76.6326 55.3207 76.9196C55.2047 77.2067 55.1503 77.5156 55.1611 77.8258C55.1719 78.1361 55.2477 78.4403 55.3833 78.7184L56.4627 80.9151C56.5165 81.0234 56.5356 81.1461 56.5174 81.266C56.4992 81.3859 56.4445 81.497 56.3611 81.5837L54.2178 83.7167C54.1345 83.802 54.0266 83.8581 53.9098 83.8767C53.7931 83.8953 53.6735 83.8755 53.5685 83.8202L51.4096 82.7218C51.137 82.5826 50.8382 82.5047 50.5333 82.4933C50.2285 82.482 49.9249 82.5374 49.643 82.6559C49.3611 82.7745 49.1075 82.9533 48.8995 83.1802C48.6914 83.4072 48.5338 83.677 48.4372 83.9714L47.655 86.3035C47.6173 86.419 47.545 86.5195 47.4481 86.5909C47.3513 86.6623 47.2349 86.701 47.1153 86.7014H44.049C43.9294 86.701 43.813 86.6623 43.7161 86.5909C43.6193 86.5195 43.5469 86.419 43.5093 86.3035L42.727 83.9714C42.6299 83.6778 42.4721 83.4087 42.2644 83.1822C42.0566 82.9557 41.8036 82.777 41.5224 82.6582C41.2746 82.5519 41.0091 82.4952 40.7402 82.491C40.409 82.4927 40.0825 82.5717 39.7859 82.7218L37.627 83.8202C37.5224 83.8768 37.4025 83.8972 37.2854 83.8786C37.1684 83.8599 37.0604 83.8031 36.9778 83.7167L34.8345 81.5359C34.7511 81.4492 34.6964 81.3381 34.6782 81.2182C34.6599 81.0983 34.679 80.9756 34.7328 80.8673L35.8123 78.6706C35.9479 78.3926 36.0236 78.0883 36.0344 77.7781C36.0452 77.4679 35.9908 77.1589 35.8748 76.8718C35.7594 76.5849 35.5842 76.3268 35.3614 76.1152C35.1386 75.9036 34.8735 75.7436 34.5842 75.6461L32.3158 74.898C32.2037 74.8608 32.1062 74.7883 32.0373 74.691C31.9684 74.5937 31.9317 74.4767 31.9325 74.3567V71.2367C31.9329 71.1171 31.97 71.0006 32.0387 70.9035C32.1075 70.8065 32.2044 70.7337 32.3158 70.6955L34.6077 69.8996C34.8977 69.8022 35.1637 69.6424 35.3876 69.4311C35.6115 69.2198 35.7881 68.9619 35.9054 68.6749C36.0226 68.388 36.0778 68.0787 36.0671 67.7682C36.0565 67.4576 35.9802 67.153 35.8436 66.8751L34.7641 64.6784C34.7098 64.5716 34.6903 64.4499 34.7086 64.3311C34.7269 64.2123 34.782 64.1025 34.8658 64.0178L37.0091 61.8529C37.0921 61.7673 37.1995 61.7105 37.316 61.6906C37.4325 61.6706 37.5523 61.6884 37.6583 61.7414L39.8172 62.8478C40.0903 62.9868 40.3897 63.0644 40.6949 63.0752C41.0001 63.0861 41.3041 63.03 41.5861 62.9107C41.8681 62.7913 42.1215 62.6117 42.3292 62.3838C42.5369 62.156 42.6939 61.8853 42.7896 61.5902L43.5718 59.2582C43.6108 59.1442 43.6838 59.0454 43.7805 58.9755C43.8772 58.9056 43.9929 58.8681 44.1116 58.8682H47.1387C47.2574 58.8681 47.3731 58.9056 47.4698 58.9755C47.5665 59.0454 47.6395 59.1442 47.6785 59.2582L48.4607 61.5902C48.5564 61.8853 48.7134 62.156 48.9211 62.3838C49.1288 62.6117 49.3823 62.7913 49.6643 62.9107C49.9463 63.03 50.2502 63.0861 50.5554 63.0752C50.8606 63.0644 51.16 62.9868 51.4331 62.8478L53.592 61.7414C53.698 61.6884 53.8178 61.6706 53.9343 61.6906C54.0508 61.7105 54.1582 61.7673 54.2413 61.8529L56.3845 64.0337C56.4683 64.1184 56.5234 64.2282 56.5417 64.347C56.56 64.4658 56.5405 64.5875 56.4862 64.6943L55.4067 66.891C55.2685 67.1638 55.1888 67.4634 55.173 67.77C55.1572 68.0765 55.2057 68.3829 55.3152 68.6689C55.4247 68.955 55.5927 69.214 55.808 69.4289C56.0234 69.6439 56.2812 69.8097 56.5644 69.9155L58.8563 70.7114C58.9677 70.7496 59.0646 70.8224 59.1333 70.9194C59.2021 71.0165 59.2392 71.133 59.2396 71.2526L59.2709 74.3249ZM45.6134 65.4743C44.1929 65.4727 42.8038 65.8999 41.6219 66.7018C40.44 67.5037 39.5184 68.6443 38.9737 69.9792C38.429 71.3142 38.2857 72.7835 38.5619 74.2014C38.8381 75.6192 39.5214 76.9219 40.5253 77.9445C41.5292 78.9671 42.8087 79.6638 44.2018 79.9464C45.595 80.2289 47.0392 80.0847 48.3517 79.5319C49.6643 78.9791 50.7862 78.0427 51.5756 76.8409C52.365 75.6392 52.7863 74.2262 52.7863 72.7808C52.7843 70.845 52.0281 68.989 50.6836 67.6195C49.3391 66.2499 47.5159 65.4785 45.6134 65.4743ZM45.6134 78.4955C44.5023 78.4971 43.4157 78.1633 42.491 77.5363C41.5664 76.9093 40.8453 76.0173 40.4191 74.9733C39.9928 73.9292 39.8804 72.7799 40.0963 71.6708C40.3121 70.5618 40.8464 69.5427 41.6315 68.7427C42.4166 67.9427 43.4174 67.3977 44.507 67.1765C45.5967 66.9554 46.7264 67.0681 47.7531 67.5004C48.7798 67.9327 49.6574 68.6651 50.2748 69.6051C50.8923 70.545 51.2219 71.6502 51.2219 72.7808C51.2198 74.2944 50.6285 75.7456 49.5774 76.8166C48.5263 77.8876 47.101 78.4913 45.6134 78.4955ZM78.9514 52.5088L77.2931 51.092C77.2452 51.0526 77.2064 51.0029 77.1794 50.9465C77.1523 50.8901 77.1378 50.8284 77.1367 50.7657C77.1352 50.703 77.1471 50.6407 77.1714 50.583C77.1956 50.5253 77.2318 50.4736 77.2775 50.4314L78.8967 48.959C79.2076 48.6763 79.4232 48.3013 79.513 47.8871C79.6029 47.4729 79.5624 47.0403 79.3973 46.6508L78.3178 44.1039C78.1506 43.7142 77.8674 43.3878 77.5081 43.1707C77.1488 42.9537 76.7316 42.8569 76.3154 42.8941L74.1564 43.0612C74.0957 43.0671 74.0345 43.0595 73.977 43.039C73.9194 43.0185 73.8669 42.9856 73.8231 42.9425C73.7792 42.8993 73.7451 42.8471 73.723 42.7893C73.7008 42.7315 73.6913 42.6695 73.6949 42.6076L73.8201 40.4029C73.844 39.9773 73.735 39.5549 73.5088 39.1961C73.2827 38.8373 72.9508 38.5605 72.5607 38.4051L70.0342 37.3863C69.6449 37.2309 69.2176 37.2033 68.8122 37.3075C68.4068 37.4117 68.0436 37.6425 67.7736 37.9673L66.3812 39.6547C66.3417 39.702 66.2925 39.74 66.2372 39.7661C66.1818 39.7922 66.1215 39.8058 66.0605 39.8059C66.0002 39.8063 65.9404 39.7937 65.8852 39.769C65.8299 39.7443 65.7804 39.7081 65.7398 39.6627L64.2927 38.0151C64.0159 37.7024 63.6511 37.4841 63.2479 37.3901C62.8448 37.2961 62.4229 37.3309 62.0399 37.4898L59.5447 38.5882C59.1484 38.7566 58.8158 39.0503 58.5961 39.4258C58.3764 39.8013 58.2811 40.2387 58.3244 40.6735L58.5121 42.8782C58.5176 42.9392 58.51 43.0007 58.4897 43.0585C58.4695 43.1162 58.4371 43.1688 58.3948 43.2124C58.3056 43.2974 58.1885 43.3457 58.0663 43.3478L55.8995 43.2204C55.4818 43.193 55.0663 43.3017 54.7133 43.5307C54.3603 43.7596 54.0882 44.097 53.9362 44.4939L52.9271 47.0408C52.7744 47.4369 52.7473 47.8717 52.8497 48.2842C52.9521 48.6967 53.1789 49.0663 53.4981 49.341L55.1564 50.7578C55.2043 50.7972 55.2432 50.8469 55.2702 50.9033C55.2972 50.9597 55.3118 51.0214 55.3129 51.0841C55.3149 51.1469 55.3033 51.2094 55.2789 51.2671C55.2546 51.3249 55.2181 51.3765 55.1721 51.4184L53.5529 52.8908C53.2414 53.1747 53.0254 53.5511 52.9356 53.9667C52.8457 54.3824 52.8866 54.8162 53.0523 55.2069L54.1317 57.7459C54.2952 58.14 54.5768 58.4715 54.9364 58.6931C55.296 58.9146 55.7152 59.0149 56.1342 58.9796L58.2931 58.7886C58.4161 58.7835 58.5363 58.8262 58.6295 58.908C58.7129 58.9982 58.7579 59.1184 58.7546 59.2422L58.6295 61.4469C58.6056 61.8725 58.7145 62.2949 58.9407 62.6537C59.1669 63.0124 59.4987 63.2893 59.8888 63.4447L62.4154 64.4635C62.8043 64.6214 63.2323 64.6502 63.6383 64.5458C64.0442 64.4415 64.4074 64.2093 64.676 63.8825L66.0683 62.1633C66.1071 62.1145 66.156 62.075 66.2114 62.0475C66.2668 62.02 66.3274 62.0052 66.389 62.0041C66.4544 62.0033 66.5191 62.0172 66.5785 62.0447C66.638 62.0722 66.6908 62.1127 66.7332 62.1633L68.1803 63.8029C68.4564 64.1216 68.8246 64.3432 69.232 64.4362C69.6395 64.5291 70.0653 64.4885 70.4487 64.3202L72.9518 63.2218C73.3348 63.0517 73.6556 62.7635 73.8689 62.3979C74.0822 62.0324 74.1773 61.6078 74.1408 61.1843L73.9452 58.9796C73.938 58.9172 73.9448 58.854 73.9651 58.7947C73.9855 58.7354 74.0188 58.6816 74.0626 58.6373C74.1048 58.5929 74.1561 58.5585 74.2129 58.5365C74.2697 58.5145 74.3305 58.5054 74.3911 58.51L76.55 58.6294C76.9637 58.6567 77.3754 58.5517 77.7274 58.329C78.0795 58.1064 78.3543 57.7773 78.5134 57.3878L79.5224 54.8169C79.677 54.4199 79.7051 53.9834 79.6026 53.5692C79.5001 53.155 79.2723 52.7841 78.9514 52.5088ZM78.0675 54.2041L77.0585 56.7908C77.028 56.8758 76.9709 56.9484 76.896 56.9972C76.8211 57.0461 76.7326 57.0687 76.6439 57.0614L74.4772 56.942C74.1924 56.9262 73.9076 56.9727 73.642 57.0784C73.3764 57.1841 73.1361 57.3465 72.9374 57.5547C72.7387 57.7629 72.5863 58.0121 72.4902 58.2853C72.3942 58.5586 72.3569 58.8496 72.3808 59.1388L72.5685 61.3673C72.5772 61.4588 72.5567 61.5507 72.5103 61.6294C72.4638 61.7082 72.3938 61.7698 72.3104 61.8051L69.8152 62.9035C69.7331 62.9395 69.642 62.9481 69.5548 62.928C69.4677 62.908 69.389 62.8604 69.3302 62.792L67.8831 61.1445C67.6913 60.9293 67.4569 60.7578 67.1954 60.6412C66.9339 60.5246 66.6511 60.4656 66.3656 60.468C66.0801 60.4729 65.799 60.54 65.5413 60.665C65.2835 60.79 65.0551 60.9698 64.8716 61.1922L63.4714 62.8796C63.4157 62.95 63.3394 63.0004 63.2535 63.0233C63.1676 63.0463 63.0767 63.0405 62.9942 63.0069L60.4755 61.9563C60.3913 61.923 60.3195 61.8636 60.2704 61.7864C60.2213 61.7093 60.1972 61.6183 60.2017 61.5265L60.3269 59.3298C60.3418 59.054 60.3012 58.7781 60.2077 58.5188C60.1141 58.2596 59.9696 58.0225 59.7828 57.8221C59.5961 57.6216 59.3712 57.4621 59.1217 57.3532C58.8723 57.2443 58.6036 57.1884 58.3322 57.1888H58.1289L55.9934 57.3878C55.9059 57.3942 55.8185 57.3733 55.743 57.3277C55.6675 57.2822 55.6075 57.2143 55.571 57.1331L54.4916 54.5861C54.4553 54.5035 54.4456 54.4112 54.4638 54.3226C54.4821 54.234 54.5274 54.1535 54.5932 54.0927L56.2124 52.6122C56.4251 52.4183 56.5943 52.1802 56.7087 51.914C56.8231 51.6478 56.88 51.3597 56.8756 51.0692C56.8711 50.7787 56.8054 50.4926 56.6829 50.2301C56.5604 49.9677 56.384 49.735 56.1655 49.548L54.5072 48.1312C54.4373 48.0733 54.3875 47.9942 54.365 47.9054C54.3425 47.8166 54.3485 47.7228 54.382 47.6378L55.3911 45.0669C55.4216 44.9819 55.4787 44.9094 55.5536 44.8605C55.6284 44.8116 55.717 44.7891 55.8057 44.7963L57.9724 44.9157C58.2578 44.9342 58.5438 44.8896 58.8107 44.7848C59.0775 44.6801 59.3189 44.5177 59.5181 44.3089C59.7174 44.1001 59.8697 43.8499 59.9648 43.5754C60.0599 43.3009 60.0953 43.0087 60.0688 42.719L59.881 40.5222C59.8736 40.431 59.8946 40.3396 59.9409 40.2611C59.9872 40.1826 60.0565 40.1208 60.1392 40.0845L62.6344 38.9861C62.7176 38.9495 62.8101 38.9405 62.8986 38.9606C62.9871 38.9806 63.0671 39.0285 63.1272 39.0975L64.5743 40.7371C64.7643 40.9525 64.9972 41.1243 65.2575 41.2409C65.5178 41.3576 65.7996 41.4165 66.084 41.4137C66.371 41.4084 66.6533 41.3394 66.9114 41.2116C67.1695 41.0837 67.397 40.9001 67.578 40.6735L68.9782 38.9941C69.0338 38.9237 69.1102 38.8733 69.1961 38.8503C69.282 38.8274 69.3729 38.8332 69.4553 38.8667L71.9819 39.8776C72.0661 39.9109 72.1379 39.9703 72.187 40.0475C72.2361 40.1246 72.2602 40.2155 72.2557 40.3073L72.1305 42.512C72.1124 42.8058 72.1569 43.1002 72.2608 43.3749C72.3648 43.6496 72.5258 43.8983 72.7328 44.1039C72.9378 44.3077 73.1839 44.4638 73.454 44.5614C73.7241 44.659 74.0118 44.6957 74.2972 44.669L76.464 44.478C76.5528 44.4697 76.6418 44.4908 76.7179 44.5381C76.794 44.5854 76.8531 44.6564 76.8864 44.7406L77.9658 47.2796C78.0034 47.362 78.0137 47.4546 77.9954 47.5435C77.9771 47.6324 77.9311 47.7129 77.8641 47.7731L76.245 49.2455C76.0323 49.4394 75.8631 49.6775 75.7487 49.9437C75.6343 50.2099 75.5774 50.498 75.5818 50.7885C75.5863 51.079 75.652 51.3652 75.7745 51.6276C75.897 51.8901 76.0734 52.1227 76.2919 52.3098L77.9502 53.7265C78.0137 53.7856 78.0587 53.8624 78.0795 53.9473C78.1004 54.0323 78.0962 54.1216 78.0675 54.2041ZM63.9876 45.5922C62.9451 46.0377 62.0563 46.7884 61.4341 47.749C60.8118 48.7096 60.4843 49.8368 60.4931 50.9872C60.5019 52.1377 60.8467 53.2595 61.4835 54.2101C62.1204 55.1608 63.0206 55.8973 64.0698 56.3261C65.119 56.755 66.2698 56.8567 67.376 56.6185C68.4822 56.3803 69.4938 55.8128 70.2823 54.9882C71.0708 54.1637 71.6006 53.1192 71.8043 51.9875C72.008 50.8558 71.8765 49.6881 71.4265 48.6327C70.8248 47.2302 69.7036 46.1259 68.3064 45.5596C66.9092 44.9933 65.3488 45.0108 63.9642 45.6082L63.9876 45.5922ZM67.8987 54.7771C67.1481 55.1037 66.3193 55.197 65.5167 55.0454C64.714 54.8938 63.9734 54.5039 63.388 53.925C62.8026 53.346 62.3986 52.6038 62.2268 51.7918C62.055 50.9797 62.1231 50.1341 62.4225 49.3613C62.722 48.5886 63.2394 47.9232 63.9096 47.449C64.5798 46.9747 65.3729 46.7128 66.1891 46.6962C67.0053 46.6795 67.8081 46.9089 68.4965 47.3555C69.1849 47.802 69.728 48.4458 70.0576 49.2057C70.2813 49.718 70.402 50.2705 70.4126 50.831C70.4233 51.3914 70.3236 51.9483 70.1195 52.4689C69.9154 52.9896 69.611 53.4634 69.2243 53.8626C68.8375 54.2617 68.3762 54.5781 67.8674 54.7931L67.8987 54.7771ZM69.8621 76.8002C69.9697 76.9119 70.0426 77.0535 70.0716 77.2071C70.1007 77.3608 70.0845 77.5197 70.0253 77.6641C69.966 77.8085 69.8662 77.9319 69.7384 78.0189C69.6106 78.1059 69.4605 78.1526 69.3067 78.1533C69.2038 78.1539 69.1017 78.1338 69.0064 78.0942C68.9111 78.0546 68.8244 77.9962 68.7513 77.9224L64.9498 74.0543C64.8765 73.9803 64.8183 73.8923 64.7786 73.7953C64.7388 73.6983 64.7184 73.5943 64.7184 73.4892C64.7184 73.3841 64.7388 73.2801 64.7786 73.1831C64.8183 73.0861 64.8765 72.9981 64.9498 72.9241C65.0963 72.7758 65.2946 72.6926 65.5012 72.6926C65.7079 72.6926 65.9061 72.7758 66.0527 72.9241L69.8621 76.8002ZM74.086 71.0218C74.086 71.2329 74.0036 71.4354 73.8569 71.5846C73.7102 71.7339 73.5113 71.8177 73.3038 71.8177H67.9535C67.746 71.8177 67.5471 71.7339 67.4004 71.5846C67.2537 71.4354 67.1713 71.2329 67.1713 71.0218C67.1713 70.8107 67.2537 70.6083 67.4004 70.459C67.5471 70.3098 67.746 70.2259 67.9535 70.2259H73.3351C73.5426 70.2259 73.7415 70.3098 73.8882 70.459C74.0349 70.6083 74.1173 70.8107 74.1173 71.0218H74.086ZM63.8625 75.9565V81.4324C63.8625 81.6435 63.7801 81.846 63.6334 81.9952C63.4867 82.1445 63.2877 82.2284 63.0803 82.2284C62.8728 82.2284 62.6739 82.1445 62.5272 81.9952C62.3805 81.846 62.2981 81.6435 62.2981 81.4324V75.9565C62.2981 75.7454 62.3805 75.543 62.5272 75.3937C62.6739 75.2445 62.8728 75.1606 63.0803 75.1606C63.2877 75.1606 63.4867 75.2445 63.6334 75.3937C63.7801 75.543 63.8625 75.7454 63.8625 75.9565ZM41.1783 47.6298L44.9798 51.498C45.0744 51.6487 45.1163 51.8274 45.0989 52.0053C45.0814 52.1833 45.0056 52.35 44.8836 52.4787C44.7616 52.6075 44.6006 52.6906 44.4265 52.7149C44.2524 52.7391 44.0753 52.7029 43.9238 52.6122L40.1379 48.752C40.0098 48.5998 39.9428 48.4039 39.9504 48.2036C39.958 48.0033 40.0396 47.8133 40.1789 47.6715C40.3182 47.5298 40.505 47.4467 40.7019 47.439C40.8987 47.4313 41.0912 47.4994 41.2408 47.6298H41.1783ZM35.8436 54.5304C35.8436 54.3193 35.926 54.1169 36.0727 53.9676C36.2194 53.8183 36.4183 53.7345 36.6258 53.7345H42.0074C42.2149 53.7345 42.4138 53.8183 42.5605 53.9676C42.7072 54.1169 42.7896 54.3193 42.7896 54.5304C42.7896 54.7415 42.7072 54.9439 42.5605 55.0932C42.4138 55.2425 42.2149 55.3263 42.0074 55.3263H36.6727C36.4652 55.3263 36.2663 55.2425 36.1196 55.0932C35.9729 54.9439 35.8905 54.7415 35.8905 54.5304H35.8436ZM46.0671 49.5957V44.1198C46.0671 43.9087 46.1495 43.7063 46.2962 43.557C46.4429 43.4077 46.6419 43.3239 46.8493 43.3239C47.0568 43.3239 47.2557 43.4077 47.4024 43.557C47.5491 43.7063 47.6315 43.9087 47.6315 44.1198V49.5957C47.6315 49.8068 47.5491 50.0092 47.4024 50.1585C47.2557 50.3078 47.0568 50.3916 46.8493 50.3916C46.6419 50.3916 46.4429 50.3078 46.2962 50.1585C46.1495 50.0092 46.0671 49.8068 46.0671 49.5957Z" fill="black" stroke="black" stroke-width="0.5"/>
</svg>
