<svg width="100" height="100" viewBox="0 0 100 100" fill="none" xmlns="http://www.w3.org/2000/svg">
<path d="M85.9885 12.5441C84.6981 11.5493 83.1253 11.0075 81.5064 11H20.4936C18.5062 11 16.6002 11.8033 15.1948 13.2333C13.7895 14.6632 13 16.6026 13 18.6249V81.3751C13.0021 83.3967 13.7922 85.3349 15.1971 86.7644C16.602 88.1939 18.5068 88.9979 20.4936 89H81.5064C83.4932 88.9979 85.398 88.1939 86.8029 86.7644C88.2078 85.3349 88.9979 83.3967 89 81.3751V18.6249C88.9973 17.4429 88.7236 16.2778 88.2009 15.2222C87.6781 14.1666 86.9206 13.2496 85.9885 12.5441ZM17.2005 13.6265C18.1723 12.9553 19.3191 12.5949 20.4936 12.5918H81.5064C83.0789 12.5918 84.587 13.2275 85.699 14.3589C86.8109 15.4903 87.4356 17.0248 87.4356 18.6249V26.2976H14.5879V18.6249C14.5869 17.6376 14.8248 16.6652 15.2804 15.7935C15.736 14.9219 16.3954 14.1776 17.2005 13.6265ZM81.5064 87.4082H20.4936C18.9217 87.4061 17.4148 86.7698 16.3033 85.6388C15.1918 84.5078 14.5665 82.9745 14.5644 81.3751V27.8894H87.3886V81.3751C87.3866 82.9663 86.7678 84.4924 85.6664 85.622C84.565 86.7516 83.0701 87.3935 81.5064 87.4082ZM21.9485 22.5886C22.569 22.5885 23.1755 22.4008 23.6908 22.0491C24.2062 21.6975 24.6072 21.1979 24.8428 20.6139C25.0784 20.0298 25.138 19.3876 25.0141 18.769C24.8902 18.1504 24.5883 17.5832 24.1468 17.1396C23.7053 16.696 23.1441 16.3959 22.5346 16.2776C21.9251 16.1593 21.2948 16.2281 20.7238 16.4751C20.1528 16.7222 19.6669 17.1365 19.3279 17.6652C18.9888 18.194 18.8119 18.8134 18.8197 19.4447C18.83 20.2821 19.1642 21.0817 19.7498 21.6702C20.3355 22.2587 21.1254 22.5886 21.9485 22.5886ZM21.9485 17.8927C22.2596 17.8928 22.5636 17.9872 22.8216 18.1639C23.0797 18.3407 23.2801 18.5917 23.3972 18.8849C23.5144 19.1781 23.543 19.5001 23.4794 19.81C23.4158 20.1198 23.2629 20.4033 23.0402 20.6242C22.8175 20.8452 22.5351 20.9936 22.2291 21.0504C21.9231 21.1073 21.6073 21.07 21.3223 20.9434C21.0372 20.8168 20.7956 20.6066 20.6285 20.3396C20.4614 20.0727 20.3763 19.7611 20.3841 19.4447C20.3943 19.0294 20.5636 18.6347 20.8559 18.3447C21.1482 18.0548 21.5403 17.8925 21.9485 17.8927ZM29.7238 22.5886C30.3442 22.5885 30.9507 22.4008 31.4661 22.0491C31.9814 21.6975 32.3824 21.1979 32.618 20.6139C32.8536 20.0298 32.9133 19.3876 32.7893 18.769C32.6654 18.1504 32.3635 17.5832 31.922 17.1396C31.4805 16.696 30.9193 16.3959 30.3098 16.2776C29.7003 16.1593 29.07 16.2281 28.499 16.4751C27.928 16.7222 27.4421 17.1365 27.1031 17.6652C26.764 18.194 26.5871 18.8134 26.5949 19.4447C26.6052 20.2821 26.9394 21.0817 27.525 21.6702C28.1107 22.2587 28.9007 22.5886 29.7238 22.5886ZM29.7238 17.8927C30.0348 17.8928 30.3388 17.9872 30.5968 18.1639C30.8549 18.3407 31.0553 18.5917 31.1725 18.8849C31.2896 19.1781 31.3182 19.5001 31.2546 19.81C31.191 20.1198 31.0381 20.4033 30.8154 20.6242C30.5927 20.8452 30.3103 20.9936 30.0043 21.0504C29.6983 21.1073 29.3826 21.07 29.0975 20.9434C28.8124 20.8168 28.5709 20.6066 28.4038 20.3396C28.2366 20.0727 28.1515 19.7611 28.1593 19.4447C28.1695 19.0294 28.3388 18.6347 28.6311 18.3447C28.9234 18.0548 29.3155 17.8925 29.7238 17.8927ZM37.9839 22.5886C38.6044 22.5885 39.2109 22.4008 39.7262 22.0491C40.2416 21.6975 40.6426 21.1979 40.8782 20.6139C41.1138 20.0298 41.1734 19.3876 41.0495 18.769C40.9256 18.1504 40.6237 17.5832 40.1822 17.1396C39.7407 16.696 39.1795 16.3959 38.57 16.2776C37.9605 16.1593 37.3302 16.2281 36.7592 16.4751C36.1882 16.7222 35.7023 17.1365 35.3633 17.6652C35.0242 18.194 34.8473 18.8134 34.8551 19.4447C34.8654 20.2821 35.1996 21.0817 35.7852 21.6702C36.3709 22.2587 37.1609 22.5886 37.9839 22.5886ZM37.9839 17.8927C38.295 17.8928 38.599 17.9872 38.857 18.1639C39.1151 18.3407 39.3155 18.5917 39.4327 18.8849C39.5498 19.1781 39.5784 19.5001 39.5148 19.81C39.4512 20.1198 39.2983 20.4033 39.0756 20.6242C38.8529 20.8452 38.5705 20.9936 38.2645 21.0504C37.9585 21.1073 37.6428 21.07 37.3577 20.9434C37.0726 20.8168 36.8311 20.6066 36.6639 20.3396C36.4968 20.0727 36.4117 19.7611 36.4195 19.4447C36.4297 19.0294 36.599 18.6347 36.8913 18.3447C37.1836 18.0548 37.5757 17.8925 37.9839 17.8927ZM51.7118 19.4447C51.7118 19.2336 51.7942 19.0312 51.9409 18.8819C52.0876 18.7326 52.2866 18.6488 52.494 18.6488H81.6785C81.8859 18.6488 82.0849 18.7326 82.2316 18.8819C82.3783 19.0312 82.4607 19.2336 82.4607 19.4447C82.4607 19.6558 82.3783 19.8582 82.2316 20.0075C82.0849 20.1568 81.8859 20.2406 81.6785 20.2406H52.494C52.2866 20.2406 52.0876 20.1568 51.9409 20.0075C51.7942 19.8582 51.7118 19.6558 51.7118 19.4447ZM19.9695 34.1931C19.9695 33.982 20.0519 33.7795 20.1986 33.6303C20.3453 33.481 20.5443 33.3971 20.7517 33.3971H39.8534C40.0609 33.3971 40.2599 33.481 40.4065 33.6303C40.5532 33.7795 40.6357 33.982 40.6357 34.1931C40.6357 34.4042 40.5532 34.6066 40.4065 34.7559C40.2599 34.9051 40.0609 34.989 39.8534 34.989H20.7517C20.5443 34.989 20.3453 34.9051 20.1986 34.7559C20.0519 34.6066 19.9695 34.4042 19.9695 34.1931ZM33.7052 41.3563H31.7497C31.5422 41.3563 31.3433 41.2725 31.1966 41.1232C31.0499 40.9739 30.9675 40.7715 30.9675 40.5604C30.9675 40.3493 31.0499 40.1469 31.1966 39.9976C31.3433 39.8483 31.5422 39.7645 31.7497 39.7645H33.7052C33.9127 39.7645 34.1116 39.8483 34.2583 39.9976C34.405 40.1469 34.4874 40.3493 34.4874 40.5604C34.4874 40.7715 34.405 40.9739 34.2583 41.1232C34.1116 41.2725 33.9127 41.3563 33.7052 41.3563ZM27.7448 41.3563H20.7517C20.5443 41.3563 20.3453 41.2725 20.1986 41.1232C20.0519 40.9739 19.9695 40.7715 19.9695 40.5604C19.9695 40.3493 20.0519 40.1469 20.1986 39.9976C20.3453 39.8483 20.5443 39.7645 20.7517 39.7645H27.7448C27.9522 39.7645 28.1512 39.8483 28.2979 39.9976C28.4446 40.1469 28.527 40.3493 28.527 40.5604C28.527 40.7715 28.4446 40.9739 28.2979 41.1232C28.1512 41.2725 27.9522 41.3563 27.7448 41.3563ZM55.3804 64.1833L53.0885 63.3873C53.0112 63.3619 52.9403 63.3195 52.8808 63.2631C52.8213 63.2067 52.7747 63.1377 52.7443 63.061C52.7095 62.9864 52.6915 62.9048 52.6915 62.8222C52.6915 62.7397 52.7095 62.6581 52.7443 62.5835L53.8238 60.3947C54.0253 59.9873 54.0953 59.5256 54.0236 59.0753C53.952 58.6251 53.7424 58.2094 53.4249 57.8876L51.2894 55.7067C50.9718 55.3857 50.5634 55.1739 50.1215 55.1011C49.6796 55.0283 49.2264 55.0982 48.8254 55.3008L46.6665 56.4071C46.5942 56.4418 46.5154 56.4606 46.4355 56.4623C46.3555 56.464 46.2761 56.4486 46.2023 56.4171C46.1286 56.3856 46.0622 56.3386 46.0074 56.2793C45.9526 56.22 45.9107 56.1497 45.8843 56.0729L45.1021 53.7408C44.962 53.3091 44.6914 52.9335 44.3289 52.6677C43.9665 52.4018 43.5308 52.2593 43.084 52.2604H40.049C39.6022 52.2593 39.1665 52.4018 38.804 52.6677C38.4416 52.9335 38.171 53.3091 38.0309 53.7408L37.2487 56.0729C37.2223 56.1497 37.1804 56.22 37.1256 56.2793C37.0708 56.3386 37.0044 56.3856 36.9307 56.4171C36.8569 56.4486 36.7775 56.464 36.6975 56.4623C36.6175 56.4606 36.5388 56.4418 36.4664 56.4071L34.3075 55.3088C33.9079 55.1027 33.4546 55.0303 33.0122 55.1017C32.5698 55.1732 32.1608 55.3849 31.8436 55.7067L29.7081 57.8876C29.3905 58.2094 29.181 58.6251 29.1094 59.0753C29.0377 59.5256 29.1077 59.9873 29.3092 60.3947L30.3886 62.5835C30.4196 62.6591 30.4356 62.7403 30.4356 62.8222C30.4356 62.9042 30.4196 62.9854 30.3886 63.061C30.3582 63.1377 30.3117 63.2067 30.2522 63.2631C30.1927 63.3195 30.1218 63.3619 30.0445 63.3873L27.7526 64.1833C27.329 64.3269 26.9605 64.6025 26.6994 64.9711C26.4383 65.3396 26.2977 65.7824 26.2977 66.2367V69.3249C26.2977 69.7792 26.4383 70.222 26.6994 70.5906C26.9605 70.9591 27.329 71.2347 27.7526 71.3784L30.0445 72.1743C30.1223 72.1987 30.1937 72.2408 30.2533 72.2973C30.3129 72.3538 30.3592 72.4233 30.3886 72.5006C30.4234 72.5752 30.4415 72.6568 30.4415 72.7394C30.4415 72.822 30.4234 72.9035 30.3886 72.9782L29.3092 75.1749C29.1083 75.5811 29.0387 76.0415 29.1103 76.4903C29.182 76.9392 29.3912 77.3535 29.7081 77.6741L31.8436 79.8549C32.1599 80.178 32.5684 80.3912 33.0109 80.4641C33.4534 80.537 33.9072 80.4659 34.3075 80.2608L36.4664 79.1624C36.5398 79.1271 36.6199 79.1087 36.7011 79.1087C36.7823 79.1087 36.8624 79.1271 36.9358 79.1624C37.0103 79.1947 37.0774 79.2426 37.1327 79.3029C37.1879 79.3632 37.2301 79.4347 37.2565 79.5126L38.0387 81.8447C38.1837 82.2691 38.4554 82.6369 38.8158 82.8966C39.1762 83.1563 39.6074 83.295 40.049 83.2933H43.0762C43.5254 83.3028 43.966 83.1669 44.3343 82.9051C44.7027 82.6433 44.9798 82.2692 45.1256 81.8367L45.9078 79.5047C45.9342 79.4267 45.9763 79.3553 46.0316 79.2949C46.0868 79.2346 46.1539 79.1868 46.2285 79.1545C46.3018 79.1191 46.382 79.1007 46.4632 79.1007C46.5443 79.1007 46.6245 79.1191 46.6978 79.1545L48.8411 80.2449C49.2415 80.45 49.6953 80.5211 50.1377 80.4482C50.5802 80.3753 50.9887 80.1621 51.3051 79.839L53.4405 77.6582C53.7574 77.3376 53.9666 76.9232 54.0383 76.4744C54.1099 76.0256 54.0403 75.5652 53.8394 75.159L52.76 72.9622C52.7252 72.8876 52.7072 72.8061 52.7072 72.7235C52.7072 72.6409 52.7252 72.5593 52.76 72.4847C52.7878 72.4064 52.8336 72.3361 52.8934 72.2793C52.9533 72.2226 53.0255 72.1811 53.1042 72.1584L55.396 71.3624C55.8196 71.2188 56.1881 70.9432 56.4492 70.5746C56.7103 70.2061 56.8509 69.7633 56.851 69.309V66.2367C56.8498 65.7804 56.707 65.3362 56.4429 64.9674C56.1788 64.5986 55.8069 64.3242 55.3804 64.1833ZM55.2709 69.3249C55.2789 69.447 55.2483 69.5685 55.1835 69.6716C55.1188 69.7747 55.0233 69.854 54.9111 69.898L52.6114 70.6939C52.3221 70.7913 52.0569 70.9513 51.8341 71.1629C51.6113 71.3745 51.4362 71.6326 51.3207 71.9196C51.2047 72.2067 51.1503 72.5156 51.1611 72.8258C51.1719 73.1361 51.2477 73.4403 51.3833 73.7184L52.4627 75.9151C52.5165 76.0234 52.5356 76.1461 52.5174 76.266C52.4992 76.3859 52.4445 76.497 52.3611 76.5837L50.2178 78.7167C50.1345 78.802 50.0266 78.8581 49.9098 78.8767C49.7931 78.8953 49.6735 78.8755 49.5685 78.8202L47.4096 77.7218C47.137 77.5826 46.8382 77.5047 46.5333 77.4933C46.2285 77.482 45.9249 77.5374 45.643 77.6559C45.3611 77.7745 45.1075 77.9533 44.8995 78.1802C44.6914 78.4072 44.5338 78.677 44.4372 78.9714L43.655 81.3035C43.6173 81.419 43.545 81.5195 43.4481 81.5909C43.3513 81.6623 43.2349 81.701 43.1153 81.7014H40.049C39.9294 81.701 39.813 81.6623 39.7161 81.5909C39.6193 81.5195 39.5469 81.419 39.5093 81.3035L38.727 78.9714C38.6299 78.6778 38.4721 78.4087 38.2644 78.1822C38.0566 77.9557 37.8036 77.777 37.5224 77.6582C37.2746 77.5519 37.0091 77.4952 36.7402 77.491C36.409 77.4927 36.0825 77.5717 35.7859 77.7218L33.627 78.8202C33.5224 78.8768 33.4025 78.8972 33.2854 78.8786C33.1684 78.8599 33.0604 78.8031 32.9778 78.7167L30.8345 76.5359C30.7511 76.4492 30.6964 76.3381 30.6782 76.2182C30.6599 76.0983 30.679 75.9756 30.7328 75.8673L31.8123 73.6706C31.9479 73.3926 32.0236 73.0883 32.0344 72.7781C32.0452 72.4679 31.9908 72.1589 31.8748 71.8718C31.7594 71.5849 31.5842 71.3268 31.3614 71.1152C31.1386 70.9036 30.8735 70.7436 30.5842 70.6461L28.3158 69.898C28.2037 69.8608 28.1062 69.7883 28.0373 69.691C27.9684 69.5937 27.9317 69.4767 27.9325 69.3567V66.2367C27.9329 66.1171 27.97 66.0006 28.0387 65.9035C28.1075 65.8065 28.2044 65.7337 28.3158 65.6955L30.6077 64.8996C30.8977 64.8022 31.1637 64.6424 31.3876 64.4311C31.6115 64.2198 31.7881 63.9619 31.9054 63.6749C32.0226 63.388 32.0778 63.0787 32.0671 62.7682C32.0565 62.4576 31.9802 62.153 31.8436 61.8751L30.7641 59.6784C30.7098 59.5716 30.6903 59.4499 30.7086 59.3311C30.7269 59.2123 30.782 59.1025 30.8658 59.0178L33.0091 56.8529C33.0921 56.7673 33.1995 56.7105 33.316 56.6906C33.4325 56.6706 33.5523 56.6884 33.6583 56.7414L35.8172 57.8478C36.0903 57.9868 36.3897 58.0644 36.6949 58.0752C37.0001 58.0861 37.3041 58.03 37.5861 57.9107C37.8681 57.7913 38.1215 57.6117 38.3292 57.3838C38.5369 57.156 38.6939 56.8853 38.7896 56.5902L39.5718 54.2582C39.6108 54.1442 39.6838 54.0454 39.7805 53.9755C39.8772 53.9056 39.9929 53.8681 40.1116 53.8682H43.1387C43.2574 53.8681 43.3731 53.9056 43.4698 53.9755C43.5665 54.0454 43.6395 54.1442 43.6785 54.2582L44.4607 56.5902C44.5564 56.8853 44.7134 57.156 44.9211 57.3838C45.1288 57.6117 45.3823 57.7913 45.6643 57.9107C45.9463 58.03 46.2502 58.0861 46.5554 58.0752C46.8606 58.0644 47.16 57.9868 47.4331 57.8478L49.592 56.7414C49.698 56.6884 49.8178 56.6706 49.9343 56.6906C50.0508 56.7105 50.1582 56.7673 50.2413 56.8529L52.3845 59.0337C52.4683 59.1184 52.5234 59.2282 52.5417 59.347C52.56 59.4658 52.5405 59.5875 52.4862 59.6943L51.4067 61.891C51.2685 62.1638 51.1888 62.4634 51.173 62.77C51.1572 63.0765 51.2057 63.3829 51.3152 63.6689C51.4247 63.955 51.5927 64.214 51.808 64.4289C52.0234 64.6439 52.2812 64.8097 52.5644 64.9155L54.8563 65.7114C54.9677 65.7496 55.0646 65.8224 55.1333 65.9194C55.2021 66.0165 55.2392 66.133 55.2396 66.2526L55.2709 69.3249ZM41.6134 60.4743C40.1929 60.4727 38.8038 60.8999 37.6219 61.7018C36.44 62.5037 35.5184 63.6443 34.9737 64.9792C34.429 66.3142 34.2857 67.7835 34.5619 69.2014C34.8381 70.6192 35.5214 71.9219 36.5253 72.9445C37.5292 73.9671 38.8087 74.6638 40.2018 74.9464C41.595 75.2289 43.0392 75.0847 44.3517 74.5319C45.6643 73.9791 46.7862 73.0427 47.5756 71.8409C48.365 70.6392 48.7863 69.2262 48.7863 67.7808C48.7843 65.845 48.0281 63.989 46.6836 62.6195C45.3391 61.2499 43.5159 60.4785 41.6134 60.4743ZM41.6134 73.4955C40.5023 73.4971 39.4157 73.1633 38.491 72.5363C37.5664 71.9093 36.8453 71.0173 36.4191 69.9733C35.9928 68.9292 35.8804 67.7799 36.0963 66.6708C36.3121 65.5618 36.8464 64.5427 37.6315 63.7427C38.4166 62.9427 39.4174 62.3977 40.507 62.1765C41.5967 61.9554 42.7264 62.0681 43.7531 62.5004C44.7798 62.9327 45.6574 63.6651 46.2748 64.6051C46.8923 65.545 47.2219 66.6502 47.2219 67.7808C47.2198 69.2944 46.6285 70.7456 45.5774 71.8166C44.5263 72.8876 43.101 73.4913 41.6134 73.4955ZM74.9514 47.5088L73.2931 46.092C73.2452 46.0526 73.2064 46.0029 73.1794 45.9465C73.1523 45.8901 73.1378 45.8284 73.1367 45.7657C73.1352 45.703 73.1471 45.6407 73.1714 45.583C73.1956 45.5253 73.2318 45.4736 73.2775 45.4314L74.8967 43.959C75.2076 43.6763 75.4232 43.3013 75.513 42.8871C75.6029 42.4729 75.5624 42.0403 75.3973 41.6508L74.3178 39.1039C74.1506 38.7142 73.8674 38.3878 73.5081 38.1707C73.1488 37.9537 72.7316 37.8569 72.3154 37.8941L70.1564 38.0612C70.0957 38.0671 70.0345 38.0595 69.977 38.039C69.9194 38.0185 69.8669 37.9856 69.8231 37.9425C69.7792 37.8993 69.7451 37.8471 69.723 37.7893C69.7008 37.7315 69.6913 37.6695 69.6949 37.6076L69.8201 35.4029C69.844 34.9773 69.735 34.5549 69.5088 34.1961C69.2827 33.8373 68.9508 33.5605 68.5607 33.4051L66.0342 32.3863C65.6449 32.2309 65.2176 32.2033 64.8122 32.3075C64.4068 32.4117 64.0436 32.6425 63.7736 32.9673L62.3812 34.6547C62.3417 34.702 62.2925 34.74 62.2372 34.7661C62.1818 34.7922 62.1215 34.8058 62.0605 34.8059C62.0002 34.8063 61.9404 34.7937 61.8852 34.769C61.8299 34.7443 61.7804 34.7081 61.7398 34.6627L60.2927 33.0151C60.0159 32.7024 59.6511 32.4841 59.2479 32.3901C58.8448 32.2961 58.4229 32.3309 58.0399 32.4898L55.5447 33.5882C55.1484 33.7566 54.8158 34.0503 54.5961 34.4258C54.3764 34.8013 54.2811 35.2387 54.3244 35.6735L54.5121 37.8782C54.5176 37.9392 54.51 38.0007 54.4897 38.0585C54.4695 38.1162 54.4371 38.1688 54.3948 38.2124C54.3056 38.2974 54.1885 38.3457 54.0663 38.3478L51.8995 38.2204C51.4818 38.193 51.0663 38.3017 50.7133 38.5307C50.3603 38.7596 50.0882 39.097 49.9362 39.4939L48.9271 42.0408C48.7744 42.4369 48.7473 42.8717 48.8497 43.2842C48.9521 43.6967 49.1789 44.0663 49.4981 44.341L51.1564 45.7578C51.2043 45.7972 51.2432 45.8469 51.2702 45.9033C51.2972 45.9597 51.3118 46.0214 51.3129 46.0841C51.3149 46.1469 51.3033 46.2094 51.2789 46.2671C51.2546 46.3249 51.2181 46.3765 51.1721 46.4184L49.5529 47.8908C49.2414 48.1747 49.0254 48.5511 48.9356 48.9667C48.8457 49.3824 48.8866 49.8162 49.0523 50.2069L50.1317 52.7459C50.2952 53.14 50.5768 53.4715 50.9364 53.6931C51.296 53.9146 51.7152 54.0149 52.1342 53.9796L54.2931 53.7886C54.4161 53.7835 54.5363 53.8262 54.6295 53.908C54.7129 53.9982 54.7579 54.1184 54.7546 54.2422L54.6295 56.4469C54.6056 56.8725 54.7145 57.2949 54.9407 57.6537C55.1669 58.0124 55.4987 58.2893 55.8888 58.4447L58.4154 59.4635C58.8043 59.6214 59.2323 59.6502 59.6383 59.5458C60.0442 59.4415 60.4074 59.2093 60.676 58.8825L62.0683 57.1633C62.1071 57.1145 62.156 57.075 62.2114 57.0475C62.2668 57.02 62.3274 57.0052 62.389 57.0041C62.4544 57.0033 62.5191 57.0172 62.5785 57.0447C62.638 57.0722 62.6908 57.1127 62.7332 57.1633L64.1803 58.8029C64.4564 59.1216 64.8246 59.3432 65.232 59.4362C65.6395 59.5291 66.0653 59.4885 66.4487 59.3202L68.9518 58.2218C69.3348 58.0517 69.6556 57.7635 69.8689 57.3979C70.0822 57.0324 70.1773 56.6078 70.1408 56.1843L69.9452 53.9796C69.938 53.9172 69.9448 53.854 69.9651 53.7947C69.9855 53.7354 70.0188 53.6816 70.0626 53.6373C70.1048 53.5929 70.1561 53.5585 70.2129 53.5365C70.2697 53.5145 70.3305 53.5054 70.3911 53.51L72.55 53.6294C72.9637 53.6567 73.3754 53.5517 73.7274 53.329C74.0795 53.1064 74.3543 52.7773 74.5134 52.3878L75.5224 49.8169C75.677 49.4199 75.7051 48.9834 75.6026 48.5692C75.5001 48.155 75.2723 47.7841 74.9514 47.5088ZM74.0675 49.2041L73.0585 51.7908C73.028 51.8758 72.9709 51.9484 72.896 51.9972C72.8211 52.0461 72.7326 52.0687 72.6439 52.0614L70.4772 51.942C70.1924 51.9262 69.9076 51.9727 69.642 52.0784C69.3764 52.1841 69.1361 52.3465 68.9374 52.5547C68.7387 52.7629 68.5863 53.0121 68.4902 53.2853C68.3942 53.5586 68.3569 53.8496 68.3808 54.1388L68.5685 56.3673C68.5772 56.4588 68.5567 56.5507 68.5103 56.6294C68.4638 56.7082 68.3938 56.7698 68.3104 56.8051L65.8152 57.9035C65.7331 57.9395 65.642 57.9481 65.5548 57.928C65.4677 57.908 65.389 57.8604 65.3302 57.792L63.8831 56.1445C63.6913 55.9293 63.4569 55.7578 63.1954 55.6412C62.9339 55.5246 62.6511 55.4656 62.3656 55.468C62.0801 55.4729 61.799 55.54 61.5413 55.665C61.2835 55.79 61.0551 55.9698 60.8716 56.1922L59.4714 57.8796C59.4157 57.95 59.3394 58.0004 59.2535 58.0233C59.1676 58.0463 59.0767 58.0405 58.9942 58.0069L56.4755 56.9563C56.3913 56.923 56.3195 56.8636 56.2704 56.7864C56.2213 56.7093 56.1972 56.6183 56.2017 56.5265L56.3269 54.3298C56.3418 54.054 56.3012 53.7781 56.2077 53.5188C56.1141 53.2596 55.9696 53.0225 55.7828 52.8221C55.5961 52.6216 55.3712 52.4621 55.1217 52.3532C54.8723 52.2443 54.6036 52.1884 54.3322 52.1888H54.1289L51.9934 52.3878C51.9059 52.3942 51.8185 52.3733 51.743 52.3277C51.6675 52.2822 51.6075 52.2143 51.571 52.1331L50.4916 49.5861C50.4553 49.5035 50.4456 49.4112 50.4638 49.3226C50.4821 49.234 50.5274 49.1535 50.5932 49.0927L52.2124 47.6122C52.4251 47.4183 52.5943 47.1802 52.7087 46.914C52.8231 46.6478 52.88 46.3597 52.8756 46.0692C52.8711 45.7787 52.8054 45.4926 52.6829 45.2301C52.5604 44.9677 52.384 44.735 52.1655 44.548L50.5072 43.1312C50.4373 43.0733 50.3875 42.9942 50.365 42.9054C50.3425 42.8166 50.3485 42.7228 50.382 42.6378L51.3911 40.0669C51.4216 39.9819 51.4787 39.9094 51.5536 39.8605C51.6284 39.8116 51.717 39.7891 51.8057 39.7963L53.9724 39.9157C54.2578 39.9342 54.5438 39.8896 54.8107 39.7848C55.0775 39.6801 55.3189 39.5177 55.5181 39.3089C55.7174 39.1001 55.8697 38.8499 55.9648 38.5754C56.0599 38.3009 56.0953 38.0087 56.0688 37.719L55.881 35.5222C55.8736 35.431 55.8946 35.3396 55.9409 35.2611C55.9872 35.1826 56.0565 35.1208 56.1392 35.0845L58.6344 33.9861C58.7176 33.9495 58.8101 33.9405 58.8986 33.9606C58.9871 33.9806 59.0671 34.0285 59.1272 34.0975L60.5743 35.7371C60.7643 35.9525 60.9972 36.1243 61.2575 36.2409C61.5178 36.3576 61.7996 36.4165 62.084 36.4137C62.371 36.4084 62.6533 36.3394 62.9114 36.2116C63.1695 36.0837 63.397 35.9001 63.578 35.6735L64.9782 33.9941C65.0338 33.9237 65.1102 33.8733 65.1961 33.8503C65.282 33.8274 65.3729 33.8332 65.4553 33.8667L67.9819 34.8776C68.0661 34.9109 68.1379 34.9703 68.187 35.0475C68.2361 35.1246 68.2602 35.2155 68.2557 35.3073L68.1305 37.512C68.1124 37.8058 68.1569 38.1002 68.2608 38.3749C68.3648 38.6496 68.5258 38.8983 68.7328 39.1039C68.9378 39.3077 69.1839 39.4638 69.454 39.5614C69.7241 39.659 70.0118 39.6957 70.2972 39.669L72.464 39.478C72.5528 39.4697 72.6418 39.4908 72.7179 39.5381C72.794 39.5854 72.8531 39.6564 72.8864 39.7406L73.9658 42.2796C74.0034 42.362 74.0137 42.4546 73.9954 42.5435C73.9771 42.6324 73.9311 42.7129 73.8641 42.7731L72.245 44.2455C72.0323 44.4394 71.8631 44.6775 71.7487 44.9437C71.6343 45.2099 71.5774 45.498 71.5818 45.7885C71.5863 46.079 71.652 46.3652 71.7745 46.6276C71.897 46.8901 72.0734 47.1227 72.2919 47.3098L73.9502 48.7265C74.0137 48.7856 74.0587 48.8624 74.0795 48.9473C74.1004 49.0323 74.0962 49.1216 74.0675 49.2041ZM59.9876 40.5922C58.9451 41.0377 58.0563 41.7884 57.4341 42.749C56.8118 43.7096 56.4843 44.8368 56.4931 45.9872C56.5019 47.1377 56.8467 48.2595 57.4835 49.2101C58.1204 50.1608 59.0206 50.8973 60.0698 51.3261C61.119 51.755 62.2698 51.8567 63.376 51.6185C64.4822 51.3803 65.4938 50.8128 66.2823 49.9882C67.0708 49.1637 67.6006 48.1192 67.8043 46.9875C68.008 45.8558 67.8765 44.6881 67.4265 43.6327C66.8248 42.2302 65.7036 41.1259 64.3064 40.5596C62.9092 39.9933 61.3488 40.0108 59.9642 40.6082L59.9876 40.5922ZM63.8987 49.7771C63.1481 50.1037 62.3193 50.197 61.5167 50.0454C60.714 49.8938 59.9734 49.5039 59.388 48.925C58.8026 48.346 58.3986 47.6038 58.2268 46.7918C58.055 45.9797 58.1231 45.1341 58.4225 44.3613C58.722 43.5886 59.2394 42.9232 59.9096 42.449C60.5798 41.9747 61.3729 41.7128 62.1891 41.6962C63.0053 41.6795 63.8081 41.9089 64.4965 42.3555C65.1849 42.802 65.728 43.4458 66.0576 44.2057C66.2813 44.718 66.402 45.2705 66.4126 45.831C66.4233 46.3914 66.3236 46.9483 66.1195 47.4689C65.9154 47.9896 65.611 48.4634 65.2243 48.8626C64.8375 49.2617 64.3762 49.5781 63.8674 49.7931L63.8987 49.7771ZM65.8621 71.8002C65.9697 71.9119 66.0426 72.0535 66.0716 72.2071C66.1007 72.3608 66.0845 72.5197 66.0253 72.6641C65.966 72.8085 65.8662 72.9319 65.7384 73.0189C65.6106 73.1059 65.4605 73.1526 65.3067 73.1533C65.2038 73.1539 65.1017 73.1338 65.0064 73.0942C64.9111 73.0546 64.8244 72.9962 64.7513 72.9224L60.9498 69.0543C60.8765 68.9803 60.8183 68.8923 60.7786 68.7953C60.7388 68.6983 60.7184 68.5943 60.7184 68.4892C60.7184 68.3841 60.7388 68.2801 60.7786 68.1831C60.8183 68.0861 60.8765 67.9981 60.9498 67.9241C61.0963 67.7758 61.2946 67.6926 61.5012 67.6926C61.7079 67.6926 61.9061 67.7758 62.0527 67.9241L65.8621 71.8002ZM70.086 66.0218C70.086 66.2329 70.0036 66.4354 69.8569 66.5846C69.7102 66.7339 69.5113 66.8177 69.3038 66.8177H63.9535C63.746 66.8177 63.5471 66.7339 63.4004 66.5846C63.2537 66.4354 63.1713 66.2329 63.1713 66.0218C63.1713 65.8107 63.2537 65.6083 63.4004 65.459C63.5471 65.3098 63.746 65.2259 63.9535 65.2259H69.3351C69.5426 65.2259 69.7415 65.3098 69.8882 65.459C70.0349 65.6083 70.1173 65.8107 70.1173 66.0218H70.086ZM59.8625 70.9565V76.4324C59.8625 76.6435 59.7801 76.846 59.6334 76.9952C59.4867 77.1445 59.2877 77.2284 59.0803 77.2284C58.8728 77.2284 58.6739 77.1445 58.5272 76.9952C58.3805 76.846 58.2981 76.6435 58.2981 76.4324V70.9565C58.2981 70.7454 58.3805 70.543 58.5272 70.3937C58.6739 70.2445 58.8728 70.1606 59.0803 70.1606C59.2877 70.1606 59.4867 70.2445 59.6334 70.3937C59.7801 70.543 59.8625 70.7454 59.8625 70.9565ZM37.1783 42.6298L40.9798 46.498C41.0744 46.6487 41.1163 46.8274 41.0989 47.0053C41.0814 47.1833 41.0056 47.35 40.8836 47.4787C40.7616 47.6075 40.6006 47.6906 40.4265 47.7149C40.2524 47.7391 40.0753 47.7029 39.9238 47.6122L36.1379 43.752C36.0098 43.5998 35.9428 43.4039 35.9504 43.2036C35.958 43.0033 36.0396 42.8133 36.1789 42.6715C36.3182 42.5298 36.505 42.4467 36.7019 42.439C36.8987 42.4313 37.0912 42.4994 37.2408 42.6298H37.1783ZM31.8436 49.5304C31.8436 49.3193 31.926 49.1169 32.0727 48.9676C32.2194 48.8183 32.4183 48.7345 32.6258 48.7345H38.0074C38.2149 48.7345 38.4138 48.8183 38.5605 48.9676C38.7072 49.1169 38.7896 49.3193 38.7896 49.5304C38.7896 49.7415 38.7072 49.9439 38.5605 50.0932C38.4138 50.2425 38.2149 50.3263 38.0074 50.3263H32.6727C32.4652 50.3263 32.2663 50.2425 32.1196 50.0932C31.9729 49.9439 31.8905 49.7415 31.8905 49.5304H31.8436ZM42.0671 44.5957V39.1198C42.0671 38.9087 42.1495 38.7063 42.2962 38.557C42.4429 38.4077 42.6419 38.3239 42.8493 38.3239C43.0568 38.3239 43.2557 38.4077 43.4024 38.557C43.5491 38.7063 43.6315 38.9087 43.6315 39.1198V44.5957C43.6315 44.8068 43.5491 45.0092 43.4024 45.1585C43.2557 45.3078 43.0568 45.3916 42.8493 45.3916C42.6419 45.3916 42.4429 45.3078 42.2962 45.1585C42.1495 45.0092 42.0671 44.8068 42.0671 44.5957Z" fill="black" stroke="black" stroke-width="0.5"/>
</svg>
